<svg width="32" height="32" viewBox="0 0 32 32" fill="none" xmlns="http://www.w3.org/2000/svg">
<rect width="32" height="32" rx="8" fill="url(#paint0_linear_1636_2757)"/>
<path fill-rule="evenodd" clip-rule="evenodd" d="M7.24273 15.8319C11.9071 13.7997 15.0173 12.46 16.5736 11.8127C21.0169 9.96457 21.9402 9.64353 22.542 9.63293C22.6744 9.63059 22.9703 9.6634 23.162 9.81895C23.3239 9.95029 23.3684 10.1277 23.3897 10.2522C23.4111 10.3768 23.4376 10.6605 23.4165 10.8821C23.1757 13.4121 22.1338 19.5517 21.6038 22.3853C21.3795 23.5843 20.9379 23.9863 20.5103 24.0257C19.5812 24.1112 18.8756 23.4116 17.9757 22.8217C16.5675 21.8986 15.7719 21.324 14.405 20.4232C12.8253 19.3822 13.8494 18.8101 14.7496 17.875C14.9852 17.6303 19.0791 13.9066 19.1583 13.5688C19.1683 13.5266 19.1775 13.3691 19.0839 13.2859C18.9903 13.2028 18.8523 13.2312 18.7526 13.2538C18.6114 13.2859 16.3618 14.7728 12.0037 17.7146C11.3652 18.1531 10.7868 18.3667 10.2686 18.3555C9.69731 18.3432 8.59839 18.0325 7.78145 17.767C6.77945 17.4412 5.98308 17.269 6.05243 16.7159C6.08855 16.4278 6.48531 16.1331 7.24273 15.8319Z" fill="white"/>
<defs>
<linearGradient id="paint0_linear_1636_2757" x1="16" y1="0" x2="16" y2="31.7627" gradientUnits="userSpaceOnUse">
<stop stop-color="#2AABEE"/>
<stop offset="1" stop-color="#229ED9"/>
</linearGradient>
</defs>
</svg>
