<svg width="32" height="32" viewBox="0 0 32 32" fill="none" xmlns="http://www.w3.org/2000/svg">
<g clip-path="url(#clip0_1636_2763)">
<path d="M0 15.36C0 8.1192 0 4.49884 2.24942 2.24942C4.49884 0 8.1192 0 15.36 0H16.64C23.8808 0 27.5011 0 29.7506 2.24942C32 4.49884 32 8.1192 32 15.36V16.64C32 23.8808 32 27.5011 29.7506 29.7506C27.5011 32 23.8808 32 16.64 32H15.36C8.1192 32 4.49884 32 2.24942 29.7506C0 27.5011 0 23.8808 0 16.64V15.36Z" fill="#0077FF"/>
<path d="M17.026 23.0544C9.73268 23.0544 5.57275 18.0544 5.39941 9.73438H9.05275C9.17275 15.841 11.866 18.4277 13.9993 18.961V9.73438H17.4395V15.001C19.5461 14.7744 21.7592 12.3744 22.5059 9.73438H25.9459C25.3726 12.9877 22.9726 15.3877 21.2659 16.3744C22.9726 17.1744 25.7061 19.2677 26.7461 23.0544H22.9593C22.1459 20.521 20.1195 18.561 17.4395 18.2944V23.0544H17.026Z" fill="white"/>
</g>
<defs>
<clipPath id="clip0_1636_2763">
<rect width="32" height="32" fill="white"/>
</clipPath>
</defs>
</svg>
