<svg width="32" height="32" viewBox="0 0 32 32" fill="none" xmlns="http://www.w3.org/2000/svg">
<rect width="32" height="32" rx="8" fill="#FF0000"/>
<path d="M25.3179 11.4183C25.0982 10.6026 24.4551 9.95948 23.6394 9.73987C22.1492 9.33203 16.1884 9.33203 16.1884 9.33203C16.1884 9.33203 10.2277 9.33203 8.73746 9.72419C7.93746 9.9438 7.27863 10.6026 7.05903 11.4183C6.66687 12.9085 6.66687 15.9987 6.66687 15.9987C6.66687 15.9987 6.66687 19.1046 7.05903 20.5791C7.27863 21.3948 7.92177 22.0379 8.73746 22.2575C10.2433 22.6654 16.1884 22.6654 16.1884 22.6654C16.1884 22.6654 22.1492 22.6654 23.6394 22.2732C24.4551 22.0536 25.0982 21.4105 25.3179 20.5948C25.71 19.1046 25.71 16.0144 25.71 16.0144C25.71 16.0144 25.7257 12.9085 25.3179 11.4183Z" fill="white"/>
<path d="M14.2905 18.8543L19.2474 15.9994L14.2905 13.1445V18.8543Z" fill="#FF0000"/>
</svg>
