<svg width="34" height="35" viewBox="0 0 34 35" xmlns="http://www.w3.org/2000/svg">
<g clip-path="url(#clip0_997_5657)">
<mask id="mask0_997_5657" style="mask-type:luminance" maskUnits="userSpaceOnUse" x="10" y="0" width="13" height="6">
<path d="M10.7031 0.709961H22.6661V5.38301H10.7031V0.709961Z" fill="white"/>
</mask>
<g mask="url(#mask0_997_5657)">
<path d="M18.8905 4.90094H14.6995C13.5435 4.90094 12.6041 3.96141 12.6041 2.80545C12.6041 2.42177 12.2917 2.10695 11.9055 2.10695C11.5194 2.10695 11.207 1.7946 11.207 1.40846C11.207 1.02231 11.5194 0.709961 11.9055 0.709961C13.0615 0.709961 14.001 1.64949 14.001 2.80545C14.001 3.18913 14.3134 3.50394 14.6995 3.50394H18.8905C19.2766 3.50394 19.589 3.18913 19.589 2.80545C19.589 1.64949 20.5285 0.709961 21.6845 0.709961C22.0706 0.709961 22.383 1.02231 22.383 1.40846C22.383 1.7946 22.0706 2.10695 21.6845 2.10695C21.2983 2.10695 20.986 2.42177 20.986 2.80545C20.986 3.96141 20.0465 4.90094 18.8905 4.90094Z" fill="url(#paint0_linear_997_5657)"/>
</g>
<mask id="mask1_997_5657" style="mask-type:luminance" maskUnits="userSpaceOnUse" x="8" y="0" width="17" height="27">
<path d="M8.8125 0.708984H24.5533V26.1598H8.8125V0.708984Z" fill="white"/>
</mask>
<g mask="url(#mask1_997_5657)">
<path d="M21.6784 25.8548H11.8995C10.3574 25.8548 9.10547 24.6029 9.10547 23.0609V3.50296C9.10547 1.96333 10.3574 0.708984 11.8995 0.708984H21.6784C23.218 0.708984 24.4724 1.96333 24.4724 3.50296V23.0609C24.4724 24.6029 23.218 25.8548 21.6784 25.8548ZM11.8995 2.10598C11.1296 2.10598 10.5025 2.73314 10.5025 3.50296V23.0609C10.5025 23.8331 11.1296 24.4578 11.8995 24.4578H21.6784C22.4482 24.4578 23.0754 23.8331 23.0754 23.0609V3.50296C23.0754 2.73314 22.4482 2.10598 21.6784 2.10598H11.8995Z" fill="url(#paint1_linear_997_5657)"/>
</g>
<path d="M28.6661 30.047H4.91726C4.53111 30.047 4.21875 29.7347 4.21875 29.3485V22.3636C4.21875 20.4378 5.78544 18.8711 7.71121 18.8711H9.8067C10.1928 18.8711 10.5052 19.1835 10.5052 19.5696C10.5052 19.9557 10.1928 20.2681 9.8067 20.2681H7.71121C6.55526 20.2681 5.61572 21.2076 5.61572 22.3636V28.6501H27.9676V22.3636C27.9676 21.2076 27.0281 20.2681 25.8721 20.2681H23.7766C23.3905 20.2681 23.0781 19.9557 23.0781 19.5696C23.0781 19.1835 23.3905 18.8711 23.7766 18.8711H25.8721C27.7979 18.8711 29.3646 20.4378 29.3646 22.3636V29.3485C29.3646 29.7347 29.0522 30.047 28.6661 30.047Z" fill="url(#paint2_linear_997_5657)"/>
<mask id="mask2_997_5657" style="mask-type:luminance" maskUnits="userSpaceOnUse" x="0" y="28" width="34" height="7">
<path d="M0.0273438 28.0488H33.5551V34.2369H0.0273438V28.0488Z" fill="white"/>
</mask>
<g mask="url(#mask2_997_5657)">
<path d="M32.8566 34.2374H0.725841C0.339699 34.2374 0.0273438 33.925 0.0273438 33.5389V32.1419C0.0273438 30.2161 1.59404 28.6494 3.51982 28.6494H30.0627C31.9884 28.6494 33.5551 30.2161 33.5551 32.1419V33.5389C33.5551 33.925 33.2427 34.2374 32.8566 34.2374ZM1.42433 32.8404H32.1581V32.1419C32.1581 30.9859 31.2186 30.0464 30.0627 30.0464H3.51982C2.36386 30.0464 1.42433 30.9859 1.42433 32.1419V32.8404Z" fill="url(#paint3_linear_997_5657)"/>
</g>
</g>
<defs>
<linearGradient id="paint0_linear_997_5657" x1="11.8195" y1="1.06184" x2="15.2369" y2="7.42504" gradientUnits="userSpaceOnUse">
<stop offset="0.00399963" stop-color="#F57A78"/>
<stop offset="0.229" stop-color="#F94F63"/>
<stop offset="0.539" stop-color="#B73CB7"/>
<stop offset="1" stop-color="#7B5BDD"/>
</linearGradient>
<linearGradient id="paint1_linear_997_5657" x1="9.94765" y1="2.82028" x2="27.7048" y2="10.3975" gradientUnits="userSpaceOnUse">
<stop offset="0.00399963" stop-color="#F57A78"/>
<stop offset="0.229" stop-color="#F94F63"/>
<stop offset="0.539" stop-color="#B73CB7"/>
<stop offset="1" stop-color="#7B5BDD"/>
</linearGradient>
<linearGradient id="paint2_linear_997_5657" x1="5.59686" y1="19.8095" x2="15.5003" y2="35.3685" gradientUnits="userSpaceOnUse">
<stop offset="0.00399963" stop-color="#F57A78"/>
<stop offset="0.229" stop-color="#F94F63"/>
<stop offset="0.539" stop-color="#B73CB7"/>
<stop offset="1" stop-color="#7B5BDD"/>
</linearGradient>
<linearGradient id="paint3_linear_997_5657" x1="1.86483" y1="29.1186" x2="4.33337" y2="39.4607" gradientUnits="userSpaceOnUse">
<stop offset="0.00399963" stop-color="#F57A78"/>
<stop offset="0.229" stop-color="#F94F63"/>
<stop offset="0.539" stop-color="#B73CB7"/>
<stop offset="1" stop-color="#7B5BDD"/>
</linearGradient>
<clipPath id="clip0_997_5657">
<rect width="34" height="34" fill="white" transform="translate(0 0.5)"/>
</clipPath>
</defs>
</svg>

