<svg width="41" height="32" viewBox="0 0 41 32" xmlns="http://www.w3.org/2000/svg">
<g clip-path="url(#clip0_997_5601)">
<mask id="mask0_997_5601" style="mask-type:luminance" maskUnits="userSpaceOnUse" x="23" y="2" width="18" height="27">
<path d="M40.8496 2.41309V28.2464H23.8211V2.41309L40.8496 2.41309Z" fill="white"/>
</mask>
<g mask="url(#mask0_997_5601)">
<path d="M33.2745 27.8138H24.8454C24.3809 27.8138 24.0028 27.4361 24.0028 26.969C24.0028 26.5048 24.3809 26.1271 24.8454 26.1271H33.2745C34.6684 26.1271 35.8024 24.9911 35.8024 23.5986V21.9119C35.8024 21.4477 36.1805 21.07 36.6451 21.07H38.3159C38.7834 21.07 39.1585 20.6923 39.1585 20.2252V10.111C39.1585 9.64391 38.7834 9.26621 38.3159 9.26621H36.6451C36.1805 9.26621 35.8024 8.88856 35.8024 8.42434V6.73766C35.8024 5.3451 34.6684 4.20912 33.2745 4.20912L28.2188 4.20912C27.7513 4.20912 27.3733 3.83142 27.3733 3.36723C27.3733 2.90016 27.7513 2.52246 28.2188 2.52246L33.2745 2.52246C35.5975 2.52246 37.4877 4.41383 37.4877 6.73766V7.58246H38.3159C39.7097 7.58246 40.8438 8.71551 40.8438 10.111V20.2252C40.8438 21.6207 39.7097 22.7538 38.3159 22.7538H37.4877V23.5986C37.4877 25.9224 35.5975 27.8138 33.2745 27.8138Z" fill="url(#paint0_linear_997_5601)"/>
</g>
<mask id="mask1_997_5601" style="mask-type:luminance" maskUnits="userSpaceOnUse" x="0" y="2" width="18" height="27">
<path d="M17.9121 2.41309V28.2464H0.404556V2.41309L17.9121 2.41309Z" fill="white"/>
</mask>
<g mask="url(#mask1_997_5601)">
<path d="M11.3624 27.8138H4.61855C2.29845 27.8138 0.405415 25.9224 0.405415 23.5986V6.73766C0.405415 4.41383 2.29845 2.52246 4.61855 2.52246L16.4211 2.52246C16.8856 2.52246 17.2637 2.90016 17.2637 3.36723C17.2637 3.83142 16.8856 4.20912 16.4211 4.20912L4.61855 4.20912C3.22478 4.20912 2.09068 5.3451 2.09068 6.73766L2.09068 23.5986C2.09068 24.9911 3.22478 26.1271 4.61855 26.1271H11.3624C11.827 26.1271 12.205 26.5048 12.205 26.969C12.205 27.4361 11.827 27.8138 11.3624 27.8138Z" fill="url(#paint1_linear_997_5601)"/>
</g>
<mask id="mask2_997_5601" style="mask-type:luminance" maskUnits="userSpaceOnUse" x="11" y="0" width="20" height="32">
<path d="M30.4668 0.746094L30.4668 31.1925H11.2596L11.2596 0.746094L30.4668 0.746094Z" fill="white"/>
</mask>
<g mask="url(#mask2_997_5601)">
<path d="M16.0812 31.1841C15.9484 31.1841 15.8128 31.1524 15.6888 31.0861C15.3251 30.8958 15.1549 30.4691 15.2847 30.077L18.8139 19.3832H12.1999C11.8854 19.3832 11.5997 19.2102 11.4525 18.9306C11.3082 18.6538 11.3285 18.3164 11.5074 18.0599L23.1829 1.199C23.4109 0.870312 23.8495 0.752102 24.2131 0.904911C24.5825 1.06925 24.7845 1.46713 24.7008 1.85925L22.3258 12.6395H29.0582C29.3785 12.6395 29.67 12.8211 29.8142 13.1094C29.9556 13.3977 29.921 13.7408 29.7248 13.9975L16.7507 30.8554C16.5862 31.0688 16.338 31.1841 16.0812 31.1841ZM13.8102 17.6965H19.9798C20.2511 17.6965 20.505 17.8263 20.6637 18.0455C20.8195 18.2646 20.8657 18.5471 20.7791 18.8037L18.4359 25.9021L27.3441 14.3261H21.2783C21.0244 14.3261 20.782 14.2079 20.6204 14.009C20.4588 13.81 20.3982 13.5506 20.453 13.2997L22.1325 5.67658L13.8102 17.6965Z" fill="url(#paint2_linear_997_5601)"/>
</g>
</g>
<defs>
<linearGradient id="paint0_linear_997_5601" x1="39.4297" y1="3.90855" x2="22.1759" y2="20.3623" gradientUnits="userSpaceOnUse">
<stop offset="0.00399963" stop-color="#F57A78"/>
<stop offset="0.229" stop-color="#F94F63"/>
<stop offset="0.539" stop-color="#B73CB7"/>
<stop offset="1" stop-color="#7B5BDD"/>
</linearGradient>
<linearGradient id="paint1_linear_997_5601" x1="15.8482" y1="3.90855" x2="-1.40649" y2="20.3801" gradientUnits="userSpaceOnUse">
<stop offset="0.00399963" stop-color="#F57A78"/>
<stop offset="0.229" stop-color="#F94F63"/>
<stop offset="0.539" stop-color="#B73CB7"/>
<stop offset="1" stop-color="#7B5BDD"/>
</linearGradient>
<linearGradient id="paint2_linear_997_5601" x1="28.3435" y1="2.50193" x2="7.80139" y2="20.4793" gradientUnits="userSpaceOnUse">
<stop offset="0.00399963" stop-color="#F57A78"/>
<stop offset="0.229" stop-color="#F94F63"/>
<stop offset="0.539" stop-color="#B73CB7"/>
<stop offset="1" stop-color="#7B5BDD"/>
</linearGradient>
<clipPath id="clip0_997_5601">
<rect width="31" height="41" fill="white" transform="matrix(0 1 -1 0 41 0.567383)"/>
</clipPath>
</defs>
</svg>

