<svg width="21" height="35" viewBox="0 0 21 35" xmlns="http://www.w3.org/2000/svg">
<path d="M11.4487 17.6259L20.3814 9.77891C20.5061 9.66642 20.5794 9.51482 20.5794 9.35829C20.5794 9.19937 20.5061 9.05021 20.3814 8.93527L10.9987 0.692154C10.8031 0.523426 10.5145 0.469631 10.2603 0.560108C10.0035 0.653026 9.84212 0.870662 9.84212 1.11274V16.1562L1.61855 8.93283C1.35446 8.69808 0.924084 8.69808 0.657545 8.93283C0.393454 9.16758 0.393454 9.54416 0.657545 9.77647L9.59024 17.6234L0.655099 25.4728C0.391009 25.7076 0.391009 26.0842 0.655099 26.3165C0.919192 26.5512 1.34957 26.5512 1.61611 26.3165L9.8372 19.0931V34.1366C9.8372 34.3762 10.0035 34.5963 10.2554 34.6892C10.341 34.7186 10.429 34.7332 10.5145 34.7332C10.6931 34.7332 10.8642 34.6721 10.9963 34.5571L20.3765 26.3165C20.5036 26.204 20.577 26.0524 20.577 25.8934C20.577 25.7369 20.5036 25.5853 20.3765 25.4728L11.4487 17.6259ZM11.1993 2.55303L18.9387 9.35585L11.1993 16.1562V2.55303ZM11.1993 32.6963V19.0955L18.9387 25.8983L11.1993 32.6963Z" fill="url(#paint0_linear_997_5514)"/>
<defs>
<linearGradient id="paint0_linear_997_5514" x1="1.55983" y1="3.38951" x2="25.0799" y2="13.0477" gradientUnits="userSpaceOnUse">
<stop offset="0.00399963" stop-color="#F57A78"/>
<stop offset="0.229" stop-color="#F94F63"/>
<stop offset="0.539" stop-color="#B73CB7"/>
<stop offset="1" stop-color="#7B5BDD"/>
</linearGradient>
</defs>
</svg>

