<svg width="35" height="35" viewBox="0 0 35 35" xmlns="http://www.w3.org/2000/svg">
<g clip-path="url(#clip0_997_5363)">
<mask id="mask0_997_5363" style="mask-type:luminance" maskUnits="userSpaceOnUse" x="0" y="0" width="35" height="35">
<path d="M0.320312 0.212891H34.5986V34.5167H0.320312V0.212891Z" fill="white"/>
</mask>
<g mask="url(#mask0_997_5363)">
<path d="M17.7364 0.250977C17.1846 0.250977 16.6352 0.276295 16.0858 0.331995C15.539 0.387696 14.9921 0.468713 14.4527 0.577583C13.9133 0.686453 13.3789 0.823172 12.852 0.985207C12.3227 1.14724 11.8058 1.3346 11.2964 1.54727C10.7869 1.76248 10.29 2.00047 9.80305 2.26378C9.31861 2.52709 8.84664 2.81572 8.38713 3.1246C7.93017 3.43602 7.48816 3.76769 7.06116 4.12214C6.63416 4.4766 6.22711 4.85131 5.83755 5.24627C5.448 5.64123 5.07843 6.05394 4.72884 6.48687C4.37923 6.9198 4.05211 7.36795 3.74496 7.83126C3.43781 8.29715 3.15563 8.77563 2.89593 9.2668C2.63623 9.76054 2.4015 10.2643 2.18924 10.7808C1.97948 11.2973 1.79469 11.824 1.63487 12.3582C1.47256 12.8924 1.34021 13.4342 1.23283 13.9811C1.12545 14.5305 1.04305 15.0824 0.990607 15.6369C0.935671 16.1939 0.908203 16.7509 0.908203 17.3104C0.908203 17.8675 0.935671 18.427 0.990607 18.9814C1.04305 19.5385 1.12545 20.0904 1.23283 20.6373C1.34021 21.1867 1.47256 21.7285 1.63487 22.2627C1.79469 22.7969 1.97948 23.321 2.18924 23.8375C2.4015 24.354 2.63623 24.8578 2.89593 25.3515C3.15563 25.8452 3.43781 26.3238 3.74496 26.7871C4.05211 27.2529 4.37923 27.7011 4.72884 28.1315C5.07843 28.5644 5.448 28.9771 5.83755 29.3721C6.22711 29.767 6.63416 30.1418 7.06116 30.4962C7.48567 30.8507 7.93017 31.1849 8.38713 31.4937C8.84415 31.8051 9.31861 32.0913 9.80305 32.3545C10.29 32.6179 10.7869 32.8584 11.2964 33.0711C11.8058 33.2837 12.3227 33.4736 12.852 33.6357C13.3789 33.7977 13.9133 33.9319 14.4527 34.0408C14.9921 34.1496 15.5365 34.2332 16.0858 34.2864C16.6352 34.3421 17.1846 34.3699 17.7364 34.3699C18.2859 34.3699 18.8352 34.3421 19.3846 34.2864C19.934 34.2332 20.4783 34.1496 21.0177 34.0408C21.5596 33.9319 22.0915 33.7977 22.6209 33.6357C23.1478 33.4736 23.6647 33.2837 24.1741 33.0711C24.6835 32.8584 25.1805 32.6179 25.6674 32.3545C26.1543 32.0913 26.6263 31.8051 27.0833 31.4937C27.5428 31.1849 27.9847 30.8507 28.4093 30.4962C28.8363 30.1418 29.2433 29.767 29.6329 29.3721C30.0224 28.9771 30.392 28.5644 30.7416 28.1315C31.0912 27.7011 31.4208 27.2529 31.7255 26.7871C32.0327 26.3238 32.3148 25.8452 32.5745 25.3515C32.8342 24.8578 33.0689 24.354 33.2812 23.8375C33.491 23.321 33.6757 22.7969 33.8381 22.2627C33.9979 21.726 34.1303 21.1867 34.2376 20.6373C34.345 20.0904 34.4274 19.5385 34.4798 18.9814C34.5348 18.4244 34.5622 17.8675 34.5622 17.3104C34.5597 16.7509 34.5323 16.1939 34.4798 15.6369C34.4249 15.0824 34.3425 14.5305 34.2351 13.9836C34.1277 13.4342 33.9929 12.8949 33.8331 12.3607C33.6732 11.824 33.486 11.2999 33.2762 10.7834C33.064 10.2669 32.8292 9.76307 32.5695 9.2719C32.3098 8.77816 32.0251 8.29968 31.7205 7.83632C31.4133 7.373 31.0862 6.92486 30.7366 6.49193C30.387 6.06152 30.0174 5.64629 29.6279 5.25132C29.2383 4.85637 28.8313 4.48166 28.4043 4.12721C27.9798 3.77275 27.5378 3.44108 27.0783 3.12967C26.6213 2.82078 26.1493 2.53215 25.6624 2.26884C25.178 2.00553 24.681 1.76754 24.1716 1.55234C23.6622 1.33966 23.1453 1.15231 22.6184 0.98774C22.0915 0.825699 21.5571 0.688981 21.0177 0.580116C20.4758 0.471246 19.9315 0.390227 19.3846 0.334527C18.8352 0.278826 18.2859 0.250977 17.7364 0.250977ZM17.7364 32.8508C17.2346 32.8508 16.7326 32.8255 16.2332 32.7748C15.7338 32.7242 15.2368 32.6508 14.7449 32.5521C14.2529 32.4508 13.766 32.3293 13.2866 32.1799C12.8046 32.033 12.3326 31.8609 11.8707 31.6659C11.4062 31.4709 10.9517 31.2557 10.5097 31.0152C10.0678 30.7747 9.63822 30.5139 9.22119 30.2303C8.80167 29.9493 8.39965 29.6455 8.01259 29.3215C7.62303 28.9999 7.25347 28.6581 6.89637 28.2986C6.54177 27.9391 6.20467 27.5618 5.88751 27.1694C5.56786 26.7744 5.27069 26.3668 4.99103 25.944C4.71136 25.5211 4.45415 25.0831 4.21692 24.635C3.98219 24.1869 3.76743 23.7261 3.57516 23.2577C3.38287 22.7868 3.21307 22.3083 3.06823 21.8196C2.9234 21.3335 2.80104 20.8398 2.70365 20.341C2.60376 19.8423 2.53135 19.3384 2.48141 18.8321C2.43146 18.3257 2.40898 17.8193 2.40898 17.3104C2.40898 16.8015 2.43146 16.2927 2.48141 15.7863C2.53135 15.2799 2.60376 14.7761 2.70365 14.2773C2.80104 13.7785 2.9234 13.2848 3.06823 12.7987C3.21307 12.3126 3.38287 11.8341 3.57516 11.3631C3.76743 10.8923 3.98219 10.434 4.21692 9.98332C4.45415 9.53518 4.71136 9.09972 4.99103 8.6769C5.27069 8.25408 5.56786 7.84395 5.88751 7.45151C6.20467 7.05654 6.54177 6.6818 6.89637 6.32232C7.25347 5.96027 7.62303 5.62096 8.01259 5.29692C8.39965 4.97536 8.80167 4.67155 9.21869 4.38798C9.63822 4.10695 10.0678 3.84364 10.5097 3.60565C10.9517 3.36512 11.4062 3.14739 11.8707 2.95244C12.3326 2.75749 12.8046 2.58532 13.2866 2.43848C13.766 2.29163 14.2529 2.16757 14.7449 2.06883C15.2368 1.97009 15.7338 1.89413 16.2332 1.84349C16.7326 1.79539 17.2346 1.77007 17.7364 1.77007C18.2384 1.77007 18.7378 1.79539 19.2373 1.84349C19.7367 1.89413 20.2336 1.97009 20.7255 2.06883C21.2175 2.16757 21.7044 2.29163 22.1839 2.43848C22.6658 2.58532 23.1378 2.75749 23.5998 2.95244C24.0643 3.14739 24.5187 3.36512 24.9607 3.60565C25.4027 3.84364 25.8322 4.10695 26.2518 4.38798C26.6688 4.67155 27.0708 4.97283 27.4579 5.29692C27.8474 5.62096 28.2195 5.96027 28.5741 6.32232C28.9287 6.6818 29.2658 7.05654 29.5829 7.45151C29.9025 7.84395 30.1997 8.25155 30.4794 8.6769C30.7591 9.09972 31.0163 9.53518 31.2535 9.98332C31.4882 10.434 31.703 10.8923 31.8953 11.3631C32.0875 11.8341 32.2574 12.3126 32.4022 12.7987C32.5496 13.2848 32.6694 13.7785 32.7693 14.2773C32.8667 14.7761 32.9391 15.2799 32.989 15.7863C33.039 16.2927 33.0615 16.8015 33.0615 17.3104C33.0615 17.8193 33.0365 18.3257 32.9865 18.8321C32.9366 19.3384 32.8642 19.8423 32.7643 20.341C32.6669 20.8398 32.5446 21.331 32.3997 21.8196C32.2524 22.3058 32.0826 22.7842 31.8903 23.2526C31.698 23.7235 31.4832 24.1818 31.2485 24.6325C31.0113 25.0806 30.7541 25.5161 30.4744 25.9389C30.1947 26.3617 29.8976 26.7694 29.578 27.1643C29.2608 27.5568 28.9237 27.934 28.5691 28.2935C28.2145 28.6531 27.8424 28.9948 27.4554 29.3163C27.0658 29.6404 26.6637 29.9417 26.2467 30.2253C25.8297 30.5089 25.4002 30.7696 24.9582 31.0102C24.5137 31.2507 24.0618 31.4659 23.5973 31.6609C23.1353 31.8558 22.6633 32.028 22.1839 32.1774C21.702 32.3242 21.2175 32.4482 20.7255 32.547C20.2336 32.6483 19.7367 32.7242 19.2373 32.7723C18.7378 32.823 18.2384 32.8483 17.7364 32.8508Z" fill="url(#paint0_linear_997_5363)"/>
</g>
<path d="M17.736 3.07715C17.6361 3.07715 17.5412 3.09487 17.4488 3.13285C17.3564 3.17336 17.2766 3.22653 17.2041 3.29742C17.1342 3.37084 17.0818 3.45186 17.0418 3.54554C17.0043 3.63921 16.9844 3.73543 16.9844 3.8367C16.9844 3.93544 17.0043 4.03418 17.0418 4.12533C17.0818 4.219 17.1342 4.30256 17.2041 4.37345C17.2766 4.44434 17.3564 4.50004 17.4488 4.53801C17.5412 4.57599 17.6361 4.59625 17.736 4.59625C18.1455 4.59625 18.5551 4.6165 18.9646 4.65701C19.3716 4.70005 19.7787 4.76081 20.1807 4.84183C20.5828 4.92283 20.9798 5.02414 21.3743 5.14566C21.7664 5.26719 22.1534 5.40894 22.533 5.56848C22.9101 5.72798 23.2822 5.90521 23.6443 6.10014C24.0063 6.29765 24.3584 6.51032 24.698 6.74322C25.0402 6.97364 25.3698 7.22175 25.6869 7.48507C26.0041 7.75093 26.3087 8.02942 26.5984 8.32308C26.888 8.61932 27.1627 8.92566 27.4249 9.24722C27.6846 9.56874 27.9294 9.90294 28.1566 10.2498C28.3863 10.5967 28.5961 10.9537 28.7909 11.3183C28.9831 11.6854 29.1604 12.0626 29.3178 12.4474C29.4751 12.8323 29.6124 13.2222 29.7323 13.6222C29.8521 14.0197 29.9521 14.4223 30.0319 14.8299C30.1119 15.2401 30.1743 15.6502 30.2142 16.0654C30.2542 16.4781 30.2742 16.8933 30.2742 17.3111C30.2742 17.4098 30.2942 17.5086 30.3316 17.5997C30.3716 17.6934 30.424 17.777 30.4939 17.8478C30.5663 17.9187 30.6463 17.9744 30.7387 18.0124C30.831 18.0504 30.9259 18.0706 31.0258 18.0706C31.1232 18.0706 31.2206 18.0504 31.3105 18.0124C31.4029 17.9744 31.4853 17.9187 31.5552 17.8478C31.6251 17.777 31.6801 17.6934 31.7175 17.5997C31.755 17.5086 31.7749 17.4098 31.7749 17.3111C31.7749 16.8452 31.75 16.3794 31.705 15.916C31.6601 15.4527 31.5927 14.9919 31.5028 14.5337C31.4129 14.078 31.3005 13.6248 31.1657 13.1791C31.0333 12.7336 30.8785 12.2955 30.7012 11.8651C30.5264 11.4347 30.3291 11.0144 30.1119 10.6043C29.8946 10.1916 29.6599 9.7941 29.4027 9.40672C29.148 9.01934 28.8733 8.64464 28.5836 8.28511C28.2914 7.92306 27.9818 7.57875 27.6572 7.2496C27.3325 6.92045 26.9929 6.60652 26.6383 6.31282C26.2812 6.01658 25.9142 5.73809 25.5321 5.47986C25.15 5.22159 24.7555 4.98107 24.351 4.76081C23.9439 4.54055 23.5294 4.34306 23.1049 4.16331C22.6804 3.98607 22.2483 3.8291 21.8089 3.69239C21.3693 3.55567 20.9248 3.44426 20.4729 3.35312C20.0209 3.26197 19.5689 3.19108 19.1094 3.14551C18.6524 3.09994 18.1955 3.07715 17.736 3.07715Z" fill="url(#paint1_linear_997_5363)"/>
<path d="M17.7354 9.08008C17.201 9.08008 16.6741 9.13326 16.1497 9.23704C15.6278 9.3434 15.1209 9.50037 14.6289 9.70546C14.1345 9.91308 13.6676 10.1662 13.2231 10.4675C12.781 10.7663 12.3715 11.1081 11.9945 11.4904C11.6174 11.8727 11.2803 12.2879 10.9856 12.7386C10.6884 13.1867 10.4387 13.6602 10.234 14.1614C10.0292 14.6602 9.87686 15.1742 9.772 15.7033C9.6671 16.2351 9.61719 16.7692 9.61719 17.3111C9.61719 17.8503 9.6671 18.3871 9.772 18.9162C9.87686 19.4454 10.0292 19.9619 10.234 20.4607C10.4387 20.9594 10.6884 21.4329 10.9831 21.8836C11.2803 22.3317 11.6174 22.7494 11.9945 23.1292C12.3715 23.5115 12.781 23.8533 13.2231 24.1546C13.6676 24.4533 14.1345 24.7065 14.6265 24.9141C15.1209 25.1217 15.6278 25.2787 16.1497 25.3825C16.6741 25.4889 17.201 25.542 17.7354 25.542C18.2673 25.542 18.7942 25.4889 19.3186 25.3825C19.8405 25.2787 20.3474 25.1217 20.8418 24.9141C21.3338 24.7065 21.8007 24.4533 22.2452 24.1546C22.6872 23.8533 23.0968 23.5115 23.4738 23.1292C23.8509 22.7469 24.188 22.3317 24.4852 21.8836C24.7799 21.4329 25.0296 20.9594 25.2343 20.4607C25.4391 19.9619 25.5914 19.4454 25.6963 18.9162C25.8012 18.3871 25.8511 17.8503 25.8511 17.3111C25.8511 16.7692 25.7987 16.2351 25.6938 15.7059C25.5914 15.1742 25.4366 14.6602 25.2318 14.1614C25.0271 13.6627 24.7774 13.1892 24.4802 12.7386C24.1855 12.2905 23.8484 11.8752 23.4713 11.4929C23.0942 11.1106 22.6847 10.7688 22.2427 10.4701C21.7982 10.1688 21.3313 9.91561 20.8393 9.70799C20.3474 9.50037 19.8405 9.34593 19.3186 9.23957C18.7942 9.13326 18.2673 9.08008 17.7354 9.08008ZM17.7354 24.0204C17.3009 24.0204 16.8689 23.9773 16.4419 23.8913C16.0173 23.8077 15.6028 23.6786 15.2008 23.5115C14.7988 23.3419 14.4192 23.1343 14.0571 22.8912C13.695 22.6456 13.3604 22.3671 13.0532 22.0557C12.7461 21.7443 12.4714 21.405 12.2317 21.0379C11.9895 20.6733 11.7847 20.286 11.6199 19.8784C11.4526 19.4707 11.3277 19.0529 11.2428 18.62C11.1579 18.1871 11.1155 17.7516 11.1155 17.3111C11.1155 16.8705 11.1579 16.4325 11.2428 16.0021C11.3277 15.5692 11.4526 15.1489 11.6199 14.7412C11.7847 14.3362 11.9895 13.9488 12.2317 13.5817C12.4714 13.2146 12.7461 12.8778 13.0532 12.5639C13.3604 12.2525 13.695 11.9739 14.0571 11.7309C14.4192 11.4853 14.7988 11.2777 15.2008 11.1106C15.6028 10.941 16.0173 10.8144 16.4419 10.7283C16.8689 10.6422 17.2984 10.5992 17.7329 10.5992C18.1699 10.5992 18.5994 10.6422 19.0264 10.7283C19.4509 10.8144 19.8655 10.941 20.2675 11.1106C20.6696 11.2777 21.0491 11.4853 21.4112 11.7309C21.7733 11.9739 22.1079 12.2525 22.4151 12.5639C22.7222 12.8753 22.9969 13.2146 23.2366 13.5817C23.4788 13.9488 23.6836 14.3336 23.8484 14.7412C24.0157 15.1489 24.1406 15.5692 24.2255 16.0021C24.3104 16.4325 24.3528 16.8705 24.3528 17.3111C24.3528 17.7516 24.3104 18.1871 24.2255 18.62C24.1406 19.0504 24.0132 19.4707 23.8484 19.8784C23.6811 20.2834 23.4763 20.6708 23.2366 21.0379C22.9944 21.4025 22.7197 21.7418 22.4126 22.0532C22.1054 22.3646 21.7708 22.6431 21.4112 22.8887C21.0491 23.1318 20.667 23.3393 20.2675 23.509C19.8655 23.6761 19.4509 23.8052 19.0264 23.8913C18.5994 23.9773 18.1699 24.0204 17.7354 24.0204Z" fill="url(#paint2_linear_997_5363)"/>
<path d="M17.7356 12.9961C17.4559 12.9961 17.1788 13.0239 16.904 13.0797C16.6319 13.1354 16.3647 13.2164 16.1075 13.3252C15.8478 13.4341 15.6031 13.5658 15.3708 13.7227C15.1386 13.8797 14.9238 14.0595 14.7266 14.2595C14.5293 14.4595 14.352 14.6773 14.1972 14.9127C14.0423 15.1482 13.9125 15.3963 13.8051 15.6596C13.6977 15.9203 13.6178 16.1913 13.5629 16.4672C13.5079 16.7458 13.4805 17.0268 13.4805 17.3103C13.4805 17.5914 13.5079 17.8724 13.5629 18.1509C13.6178 18.4294 13.6977 18.6978 13.8051 18.9585C13.9125 19.2219 14.0423 19.47 14.1972 19.7054C14.352 19.9409 14.5293 20.1586 14.7266 20.3587C14.9238 20.5587 15.1386 20.7384 15.3708 20.8954C15.6031 21.0524 15.8478 21.1866 16.1075 21.2929C16.3647 21.4018 16.6319 21.4853 16.904 21.5385C17.1788 21.5942 17.4559 21.622 17.7356 21.622C18.0153 21.622 18.29 21.5942 18.5647 21.5385C18.8394 21.4853 19.1041 21.4018 19.3638 21.2929C19.621 21.1866 19.8657 21.0524 20.0979 20.8954C20.3302 20.7384 20.5449 20.5587 20.7422 20.3587C20.9394 20.1586 21.1168 19.9409 21.2716 19.7054C21.4264 19.47 21.5588 19.2219 21.6661 18.9611C21.771 18.6978 21.8534 18.4294 21.9058 18.1509C21.9608 17.8724 21.9883 17.5914 21.9883 17.3103C21.9883 17.0268 21.9608 16.7458 21.9058 16.4672C21.8509 16.1913 21.771 15.9203 21.6636 15.6596C21.5563 15.3988 21.4264 15.1507 21.2716 14.9152C21.1143 14.6798 20.9394 14.462 20.7422 14.262C20.5449 14.0595 20.3302 13.8822 20.0979 13.7253C19.8657 13.5683 19.621 13.4341 19.3612 13.3252C19.1041 13.2164 18.8369 13.1354 18.5647 13.0797C18.29 13.0239 18.0128 12.9961 17.7356 12.9961ZM17.7356 20.1029C17.5533 20.1029 17.3735 20.0852 17.1962 20.0498C17.0189 20.0118 16.8467 19.9611 16.6793 19.8903C16.512 19.8194 16.3547 19.7333 16.2049 19.632C16.0525 19.5307 15.9152 19.4143 15.7878 19.2852C15.658 19.1535 15.5456 19.0142 15.4433 18.8598C15.3433 18.7079 15.2585 18.5484 15.1885 18.3788C15.1211 18.2091 15.0687 18.0344 15.0337 17.8547C14.9963 17.6749 14.9788 17.4926 14.9788 17.3078C14.9788 17.1255 14.9963 16.9432 15.0337 16.7635C15.0687 16.5837 15.1211 16.409 15.1885 16.2394C15.2585 16.0697 15.3433 15.9102 15.4433 15.7583C15.5456 15.6039 15.658 15.4646 15.7878 15.333C15.9152 15.2039 16.055 15.0874 16.2049 14.9861C16.3547 14.8848 16.5145 14.7988 16.6818 14.7279C16.8467 14.6595 17.0189 14.6063 17.1987 14.5684C17.376 14.5329 17.5533 14.5152 17.7356 14.5152C17.9154 14.5152 18.0952 14.5329 18.2725 14.5684C18.4498 14.6063 18.6221 14.6595 18.7894 14.7279C18.9567 14.7988 19.114 14.8848 19.2664 14.9861C19.4162 15.0899 19.556 15.2039 19.6834 15.333C19.8107 15.4646 19.9256 15.6039 20.0255 15.7583C20.1254 15.9102 20.2103 16.0697 20.2802 16.2394C20.3501 16.409 20.4026 16.5837 20.4375 16.7635C20.4725 16.9432 20.49 17.1255 20.49 17.3103C20.49 17.4926 20.4725 17.6749 20.4375 17.8547C20.4001 18.0344 20.3476 18.2091 20.2802 18.3788C20.2103 18.5484 20.1254 18.7079 20.0255 18.8598C19.9231 19.0117 19.8107 19.1535 19.6809 19.2826C19.5535 19.4143 19.4137 19.5282 19.2639 19.632C19.114 19.7333 18.9567 19.8194 18.7894 19.8903C18.6221 19.9586 18.4498 20.0118 18.2725 20.0472C18.0952 20.0852 17.9154 20.1029 17.7356 20.1029Z" fill="url(#paint3_linear_997_5363)"/>
</g>
<defs>
<linearGradient id="paint0_linear_997_5363" x1="2.75261" y1="3.11568" x2="33.9319" y2="24.5902" gradientUnits="userSpaceOnUse">
<stop offset="0.00399963" stop-color="#F57A78"/>
<stop offset="0.229" stop-color="#F94F63"/>
<stop offset="0.539" stop-color="#B73CB7"/>
<stop offset="1" stop-color="#7B5BDD"/>
</linearGradient>
<linearGradient id="paint1_linear_997_5363" x1="17.795" y1="4.33604" x2="31.4971" y2="13.7741" gradientUnits="userSpaceOnUse">
<stop offset="0.00399963" stop-color="#F57A78"/>
<stop offset="0.229" stop-color="#F94F63"/>
<stop offset="0.539" stop-color="#B73CB7"/>
<stop offset="1" stop-color="#7B5BDD"/>
</linearGradient>
<linearGradient id="paint2_linear_997_5363" x1="10.5069" y1="10.4623" x2="25.5493" y2="20.8202" gradientUnits="userSpaceOnUse">
<stop offset="0.00399963" stop-color="#F57A78"/>
<stop offset="0.229" stop-color="#F94F63"/>
<stop offset="0.539" stop-color="#B73CB7"/>
<stop offset="1" stop-color="#7B5BDD"/>
</linearGradient>
<linearGradient id="paint3_linear_997_5363" x1="13.9467" y1="13.7203" x2="21.8293" y2="19.149" gradientUnits="userSpaceOnUse">
<stop offset="0.00399963" stop-color="#F57A78"/>
<stop offset="0.229" stop-color="#F94F63"/>
<stop offset="0.539" stop-color="#B73CB7"/>
<stop offset="1" stop-color="#7B5BDD"/>
</linearGradient>
<clipPath id="clip0_997_5363">
<rect width="35" height="35" fill="white"/>
</clipPath>
</defs>
</svg>

