<svg width="43" height="39" viewBox="0 0 43 39" fill="none" xmlns="http://www.w3.org/2000/svg">
<mask id="mask0_997_5334" style="mask-type:luminance" maskUnits="userSpaceOnUse" x="0" y="0" width="43" height="39">
<path d="M0 0.5H43V38.8178H0V0.5Z" fill="white"/>
</mask>
<g mask="url(#mask0_997_5334)">
<path d="M36.1547 0.513672H7.72529C7.65453 0.513894 7.58393 0.518107 7.51334 0.526533C7.44295 0.53496 7.37287 0.547377 7.30358 0.564008C7.23409 0.580639 7.16554 0.601483 7.09772 0.626097C7.0299 0.650933 6.9634 0.679538 6.89799 0.712135C6.83259 0.744732 6.76861 0.781099 6.70619 0.821013C6.64373 0.861149 6.58311 0.904832 6.52416 0.952065C6.46521 0.999297 6.40847 1.04986 6.35378 1.10396C6.29908 1.15785 6.24659 1.21484 6.19652 1.27493C6.14644 1.33502 6.09894 1.39799 6.05406 1.46363C6.00912 1.52927 5.96682 1.59757 5.92745 1.66809C5.88813 1.73882 5.85171 1.81156 5.81843 1.88651C5.78499 1.96145 5.75471 2.03818 5.72752 2.11668C5.70038 2.19518 5.67655 2.27522 5.65602 2.3566C5.63534 2.43777 5.61813 2.52025 5.60427 2.60363C5.59041 2.68679 5.57986 2.77083 5.57288 2.85553C5.56585 2.94002 5.56233 3.02473 5.56233 3.10988V6.44761H2.16314C2.09236 6.44761 2.02159 6.45205 1.95118 6.46047C1.8806 6.46889 1.81075 6.48132 1.74127 6.49795C1.67179 6.51458 1.60323 6.53542 1.53541 6.56003C1.46778 6.58487 1.40107 6.61348 1.33565 6.64607C1.27024 6.67867 1.2063 6.71481 1.14384 6.75495C1.08139 6.79509 1.02078 6.83877 0.961824 6.88601C0.903062 6.93325 0.846146 6.98377 0.791452 7.03768C0.736752 7.09179 0.684272 7.1488 0.634197 7.20889C0.584116 7.26898 0.536628 7.33197 0.491723 7.3976C0.446819 7.46323 0.404688 7.53151 0.365327 7.602C0.325968 7.67273 0.289564 7.74548 0.256117 7.82044C0.222671 7.8954 0.192365 7.97211 0.165386 8.0506C0.138222 8.12914 0.1142 8.20914 0.0936881 8.29033C0.0729918 8.37171 0.0558065 8.45397 0.0419471 8.53737C0.0280879 8.6207 0.017555 8.70479 0.0107178 8.78926C0.00369578 8.87398 0 8.9587 0 9.04361V32.0376C0 32.1225 0.00369578 32.2073 0.0107178 32.292C0.017555 32.3764 0.0280879 32.4605 0.0419471 32.5439C0.0558065 32.6273 0.0729918 32.7095 0.0936881 32.7909C0.1142 32.872 0.138222 32.9521 0.165386 33.0306C0.192365 33.1091 0.222671 33.1858 0.256117 33.2607C0.289564 33.3357 0.325968 33.4084 0.365327 33.4792C0.404688 33.5497 0.446819 33.618 0.491723 33.6836C0.536628 33.7493 0.584116 33.8123 0.634197 33.8724C0.684272 33.9324 0.736752 33.9894 0.791452 34.0436C0.846146 34.0974 0.903062 34.148 0.961824 34.1952C1.02078 34.2424 1.08139 34.2861 1.14384 34.3262C1.2063 34.3664 1.27024 34.4025 1.33565 34.4352C1.40107 34.4677 1.46778 34.4963 1.53541 34.5212C1.60323 34.5458 1.67179 34.5666 1.74127 34.5832C1.81075 34.5999 1.8806 34.6123 1.95118 34.6207C2.02159 34.6292 2.09236 34.6336 2.16314 34.6336H30.5925C30.6633 34.6336 30.7339 34.6292 30.8045 34.6207C30.8749 34.6123 30.9447 34.5999 31.0142 34.5832C31.0837 34.5666 31.1523 34.5458 31.2201 34.5212C31.2879 34.4963 31.3544 34.4677 31.4198 34.4352C31.4852 34.4025 31.5492 34.3664 31.6116 34.3262C31.6741 34.2861 31.7347 34.2424 31.7937 34.1952C31.8524 34.148 31.9093 34.0974 31.964 34.0436C32.0187 33.9894 32.0712 33.9324 32.1213 33.8724C32.1714 33.8123 32.2189 33.7493 32.2638 33.6836C32.3087 33.618 32.351 33.5497 32.3904 33.4792C32.4297 33.4084 32.4661 33.3357 32.4994 33.2607C32.5328 33.1858 32.5631 33.1091 32.5903 33.0306C32.6174 32.9521 32.6413 32.872 32.6618 32.7909C32.6825 32.7095 32.6997 32.6273 32.7135 32.5439C32.7274 32.4605 32.7379 32.3764 32.7449 32.292C32.752 32.2073 32.7555 32.1225 32.7555 32.0376V27.9579H36.1547C36.2254 27.9579 36.2962 27.9537 36.3666 27.9453C36.4372 27.9368 36.5071 27.9242 36.5766 27.9076C36.6461 27.8909 36.7146 27.8703 36.7824 27.8455C36.85 27.8209 36.9167 27.792 36.9821 27.7597C37.0475 27.7271 37.1115 27.6907 37.1739 27.6506C37.2364 27.6104 37.297 27.5667 37.356 27.5196C37.4148 27.4723 37.4717 27.4217 37.5264 27.3679C37.5811 27.314 37.6335 27.2568 37.6836 27.1967C37.7337 27.1366 37.7812 27.0738 37.8261 27.008C37.871 26.9423 37.9131 26.8742 37.9525 26.8035C37.9918 26.7328 38.0282 26.66 38.0617 26.5851C38.0951 26.5101 38.1254 26.4334 38.1524 26.3549C38.1796 26.2764 38.2036 26.1966 38.2241 26.1152C38.2448 26.0338 38.262 25.9515 38.2759 25.8682C38.2897 25.7848 38.3003 25.7008 38.3071 25.6163C38.3141 25.5316 38.3178 25.4469 38.3178 25.362V3.10988C38.3178 3.02473 38.3141 2.94002 38.3071 2.85553C38.3003 2.77083 38.2897 2.68679 38.2759 2.60363C38.262 2.52025 38.2448 2.43777 38.2241 2.3566C38.2036 2.27522 38.1796 2.19518 38.1524 2.11668C38.1254 2.03818 38.0951 1.96145 38.0617 1.88651C38.0282 1.81156 37.9918 1.73882 37.9525 1.66809C37.9131 1.59757 37.871 1.52927 37.8261 1.46363C37.7812 1.39799 37.7337 1.33502 37.6836 1.27493C37.6335 1.21484 37.5811 1.15785 37.5264 1.10396C37.4717 1.04986 37.4148 0.999297 37.356 0.952065C37.297 0.904832 37.2364 0.861149 37.1739 0.821013C37.1115 0.781099 37.0475 0.744732 36.9821 0.712135C36.9167 0.679538 36.85 0.650933 36.7824 0.626097C36.7146 0.601483 36.6461 0.580639 36.5766 0.564008C36.5071 0.547377 36.4372 0.53496 36.3666 0.526533C36.2962 0.518107 36.2254 0.513894 36.1547 0.513672ZM31.5194 32.0376C31.5194 32.074 31.518 32.1103 31.515 32.1465C31.512 32.1829 31.5074 32.2188 31.5015 32.2545C31.4956 32.2901 31.4882 32.3254 31.4793 32.3604C31.4706 32.3953 31.4603 32.4294 31.4486 32.4631C31.437 32.4969 31.4241 32.5297 31.4098 32.5618C31.3955 32.5939 31.3799 32.6252 31.3631 32.6554C31.3461 32.6858 31.3282 32.7148 31.3087 32.743C31.2895 32.7711 31.2692 32.7982 31.2478 32.8239C31.2263 32.8497 31.2038 32.8742 31.1804 32.8973C31.1569 32.9204 31.1325 32.9421 31.1073 32.9623C31.082 32.9825 31.056 33.0014 31.0294 33.0184C31.0026 33.0357 30.9751 33.0512 30.9471 33.0652C30.9191 33.0791 30.8906 33.0914 30.8614 33.102C30.8324 33.1127 30.803 33.1215 30.7732 33.1286C30.7435 33.1357 30.7136 33.141 30.6833 33.1446C30.6531 33.1484 30.6229 33.1501 30.5925 33.1501H2.16314C2.13283 33.1501 2.10253 33.1484 2.07222 33.1446C2.0421 33.141 2.01198 33.1357 1.98223 33.1286C1.95248 33.1215 1.9231 33.1127 1.89409 33.102C1.86507 33.0914 1.83643 33.0791 1.80853 33.0652C1.78044 33.0512 1.75309 33.0357 1.7263 33.0184C1.69951 33.0014 1.67345 32.9825 1.64832 32.9623C1.623 32.9421 1.59861 32.9204 1.57514 32.8973C1.55167 32.8742 1.52931 32.8497 1.50788 32.8239C1.48626 32.7982 1.46593 32.7711 1.44671 32.743C1.4275 32.7148 1.40939 32.6858 1.39257 32.6554C1.37575 32.6252 1.36005 32.5939 1.34582 32.5618C1.3314 32.5297 1.31847 32.4969 1.30683 32.4631C1.29518 32.4294 1.28502 32.3953 1.27615 32.3604C1.26728 32.3254 1.25989 32.2901 1.25398 32.2545C1.24806 32.2188 1.24363 32.1829 1.24067 32.1465C1.23753 32.1103 1.23605 32.074 1.23605 32.0376V18.3155H31.5194V32.0376ZM31.5194 16.832H1.23605V12.3815H31.5194V16.832ZM31.5194 10.898H1.23605V9.04361C1.23605 9.0072 1.23753 8.97086 1.24067 8.9347C1.24363 8.89836 1.24806 8.86245 1.25398 8.82674C1.25989 8.79102 1.26728 8.75575 1.27615 8.72073C1.28502 8.6859 1.29518 8.65176 1.30683 8.61806C1.31847 8.58436 1.3314 8.55154 1.34582 8.51942C1.36005 8.48723 1.37575 8.45599 1.39257 8.42582C1.40939 8.39546 1.4275 8.36617 1.44671 8.33801C1.46593 8.31005 1.48626 8.28302 1.50788 8.25726C1.52931 8.23156 1.55167 8.20693 1.57514 8.18388C1.59861 8.16083 1.623 8.1391 1.64832 8.11894C1.67345 8.09872 1.69951 8.07989 1.7263 8.06282C1.75309 8.0455 1.78044 8.03 1.80853 8.01602C1.83643 8.00203 1.86507 7.98988 1.89409 7.97923C1.9231 7.96859 1.95248 7.95971 1.98223 7.95259C2.01198 7.94553 2.0421 7.94018 2.07222 7.93665C2.10253 7.93287 2.13283 7.93111 2.16314 7.93111H30.5925C30.6229 7.93111 30.6531 7.93287 30.6833 7.9364C30.7136 7.94018 30.7435 7.94553 30.7732 7.95259C30.803 7.95971 30.8324 7.96859 30.8614 7.97923C30.8906 7.98988 30.9191 8.00203 30.9471 8.01602C30.9751 8.03 31.0026 8.0455 31.0294 8.06282C31.056 8.07989 31.082 8.09872 31.1073 8.11894C31.1325 8.1391 31.1569 8.16083 31.1804 8.18388C31.2038 8.20693 31.2263 8.23156 31.2478 8.25726C31.2692 8.28302 31.2895 8.31005 31.3087 8.33801C31.3282 8.36617 31.3461 8.39546 31.3631 8.42582C31.3799 8.45599 31.3955 8.48723 31.4098 8.51942C31.4241 8.55154 31.437 8.58436 31.4486 8.61806C31.4603 8.65176 31.4706 8.6859 31.4793 8.72073C31.4882 8.75575 31.4956 8.79102 31.5015 8.82674C31.5074 8.86245 31.512 8.89836 31.515 8.9347C31.518 8.97086 31.5194 9.0072 31.5194 9.04361V10.898ZM37.0818 25.362C37.0818 25.3983 37.0803 25.4346 37.0772 25.4708C37.0742 25.5071 37.0698 25.5431 37.0638 25.5788C37.0579 25.6145 37.0505 25.65 37.0417 25.6848C37.0328 25.7196 37.0226 25.7537 37.011 25.7874C36.9994 25.8211 36.9864 25.854 36.972 25.8861C36.9578 25.9183 36.9423 25.9496 36.9252 25.9797C36.9085 26.0101 36.8903 26.0394 36.8711 26.0675C36.8519 26.0957 36.8316 26.1225 36.8099 26.1482C36.7885 26.1742 36.7661 26.1986 36.7427 26.2216C36.7192 26.2447 36.6948 26.2664 36.6695 26.2866C36.6444 26.307 36.6183 26.3256 36.5915 26.3429C36.5647 26.36 36.5373 26.3756 36.5093 26.3895C36.4814 26.4035 36.4527 26.4159 36.4237 26.4263C36.3947 26.437 36.3653 26.4459 36.3356 26.4529C36.3058 26.46 36.2757 26.4653 36.2456 26.4691C36.2153 26.4726 36.185 26.4745 36.1547 26.4745H32.7555V9.04361C32.7555 8.9587 32.752 8.87398 32.7449 8.78926C32.7379 8.70479 32.7274 8.6207 32.7135 8.53737C32.6997 8.45397 32.6825 8.37171 32.6618 8.29033C32.6413 8.20914 32.6174 8.12914 32.5903 8.0506C32.5631 7.97211 32.5328 7.8954 32.4994 7.82044C32.4661 7.74548 32.4297 7.67273 32.3904 7.602C32.351 7.53151 32.3087 7.46323 32.2638 7.3976C32.2189 7.33197 32.1714 7.26898 32.1213 7.20889C32.0712 7.1488 32.0187 7.09179 31.964 7.03768C31.9093 6.98377 31.8526 6.93325 31.7937 6.88601C31.7347 6.83877 31.6741 6.79509 31.6116 6.75495C31.5492 6.71481 31.4852 6.67867 31.4198 6.64607C31.3544 6.61348 31.2879 6.58487 31.2201 6.56003C31.1523 6.53542 31.0837 6.51458 31.0142 6.49795C30.9449 6.48132 30.8749 6.46889 30.8045 6.46047C30.7339 6.45205 30.6633 6.44761 30.5925 6.44761H6.79837V3.10988C6.79837 3.07329 6.79984 3.03693 6.80283 3.00078C6.80577 2.96442 6.81039 2.92849 6.81632 2.89279C6.8222 2.85709 6.8296 2.82183 6.83847 2.78702C6.84718 2.75198 6.85752 2.71784 6.86918 2.68412C6.88078 2.65042 6.89374 2.6176 6.90797 2.58545C6.92235 2.5533 6.93789 2.52225 6.95474 2.49187C6.97169 2.46149 6.98964 2.43244 7.00906 2.40428C7.02827 2.37612 7.04859 2.34907 7.07 2.32335C7.09147 2.29762 7.11399 2.27323 7.13745 2.24995C7.16092 2.22689 7.18532 2.20516 7.21047 2.18497C7.23577 2.1648 7.26185 2.14595 7.28841 2.12887C7.31524 2.11157 7.34279 2.09605 7.37067 2.08208C7.39875 2.06811 7.4272 2.05592 7.45644 2.04527C7.48541 2.03463 7.5148 2.02576 7.54457 2.01867C7.57433 2.01157 7.60425 2.00625 7.63453 2.0027C7.66466 1.99915 7.69495 1.99716 7.72529 1.99716H36.1547C36.185 1.99716 36.2153 1.99915 36.2456 2.0027C36.2757 2.00625 36.3058 2.01157 36.3356 2.01867C36.3653 2.02576 36.3947 2.03463 36.4237 2.04527C36.4527 2.05592 36.4814 2.06811 36.5093 2.08208C36.5373 2.09605 36.5647 2.11157 36.5915 2.12887C36.6183 2.14595 36.6444 2.1648 36.6695 2.18497C36.6948 2.20516 36.7192 2.22689 36.7427 2.24995C36.7661 2.27323 36.7885 2.29762 36.8099 2.32335C36.8316 2.34907 36.8519 2.37612 36.8711 2.40428C36.8903 2.43244 36.9085 2.46149 36.9252 2.49187C36.942 2.52225 36.9578 2.5533 36.972 2.58545C36.9864 2.6176 36.9994 2.65042 37.011 2.68412C37.0226 2.71784 37.0328 2.75198 37.0417 2.78702C37.0505 2.82183 37.0579 2.85709 37.0638 2.89279C37.0698 2.92849 37.0742 2.96442 37.0772 3.00078C37.0803 3.03693 37.0818 3.07329 37.0818 3.10988V25.362Z" fill="url(#paint0_linear_997_5334)"/>
</g>
<defs>
<linearGradient id="paint0_linear_997_5334" x1="2.1" y1="3.37846" x2="34.5105" y2="28.7936" gradientUnits="userSpaceOnUse">
<stop offset="0.00399963" stop-color="#F57A78"/>
<stop offset="0.229" stop-color="#F94F63"/>
<stop offset="0.539" stop-color="#B73CB7"/>
<stop offset="1" stop-color="#7B5BDD"/>
</linearGradient>
</defs>
</svg>

