<svg width="43" height="43" viewBox="0 0 43 43" xmlns="http://www.w3.org/2000/svg">
<g clip-path="url(#clip0_975_4522)">
<path d="M32.6164 33.8644V11.0963C32.6164 10.8148 32.3894 10.5878 32.1079 10.5878H14.2427C13.9945 10.5878 13.7585 10.491 13.583 10.3154C13.4104 10.1399 13.3105 9.90383 13.3105 9.65868C13.3105 9.41055 13.4104 9.17446 13.583 8.99892C13.7585 8.82639 13.9945 8.72656 14.2427 8.72656H33.9692C34.2507 8.72656 34.4776 8.95655 34.4776 9.23501V33.8644C34.4776 34.1125 34.3778 34.3486 34.2053 34.5241C34.0297 34.6966 33.7937 34.7965 33.5455 34.7965C33.3004 34.7965 33.0643 34.6966 32.8888 34.5241C32.7133 34.3486 32.6164 34.1125 32.6164 33.8644Z" fill="url(#paint0_linear_975_4522)"/>
<path d="M28.9966 32.9352C29.2418 32.9352 29.4809 33.0321 29.6534 33.2076C29.8289 33.3801 29.9258 33.6192 29.9258 33.8644C29.9258 34.1125 29.8289 34.3486 29.6534 34.5241C29.4809 34.6966 29.2418 34.7965 28.9966 34.7965H9.26714C8.98869 34.7965 8.76172 34.5695 8.76172 34.2881V9.65868C8.76172 9.41055 8.85858 9.17446 9.03413 8.99892C9.20659 8.82639 9.44269 8.72656 9.69087 8.72656C9.93603 8.72656 10.1751 8.82639 10.3476 8.99892C10.5232 9.17446 10.62 9.41055 10.62 9.65868V32.4268C10.62 32.7082 10.85 32.9352 11.1284 32.9352H28.9966Z" fill="url(#paint1_linear_975_4522)"/>
<path fill-rule="evenodd" clip-rule="evenodd" d="M15.7894 15.127H27.4474C27.7742 15.127 28.0405 15.3902 28.0405 15.7171V27.8048C28.0405 28.1317 27.7742 28.395 27.4474 28.395H15.7894C15.4626 28.395 15.1992 28.1317 15.1992 27.8048V15.7171C15.1992 15.3902 15.4626 15.127 15.7894 15.127ZM17.6507 16.9882H25.586C25.913 16.9882 26.1793 17.2515 26.1793 17.5784V25.9435C26.1793 26.2704 25.913 26.5367 25.586 26.5367H17.6507C17.3238 26.5367 17.0605 26.2704 17.0605 25.9435V17.5784C17.0605 17.2515 17.3238 16.9882 17.6507 16.9882Z" fill="url(#paint2_linear_975_4522)"/>
<mask id="mask0_975_4522" style="mask-type:luminance" maskUnits="userSpaceOnUse" x="20" y="0" width="3" height="7">
<path d="M20.5312 0.576172H22.8556V6.20237H20.5312V0.576172Z" fill="white"/>
</mask>
<g mask="url(#mask0_975_4522)">
<path d="M22.5508 5.11606C22.5508 5.36121 22.4509 5.60029 22.2784 5.7728C22.1028 5.94835 21.8668 6.04516 21.6186 6.04516C21.3734 6.04516 21.1344 5.94835 20.9619 5.7728C20.7863 5.60029 20.6895 5.36121 20.6895 5.11606V1.50246C20.6895 1.25429 20.7863 1.01823 20.9619 0.845719C21.1344 0.670186 21.3734 0.570312 21.6186 0.570312C21.8668 0.570312 22.1028 0.670186 22.2784 0.845719C22.4509 1.01823 22.5508 1.25429 22.5508 1.50246V5.11606Z" fill="url(#paint3_linear_975_4522)"/>
</g>
<mask id="mask1_975_4522" style="mask-type:luminance" maskUnits="userSpaceOnUse" x="15" y="0" width="4" height="7">
<path d="M15.1094 0.576172H18.2085V6.20237H15.1094V0.576172Z" fill="white"/>
</mask>
<g mask="url(#mask1_975_4522)">
<path d="M17.4765 5.11606C17.4765 5.36121 17.3796 5.60029 17.2041 5.7728C17.0286 5.94835 16.7925 6.04516 16.5473 6.04516C16.2992 6.04516 16.0631 5.94835 15.8876 5.7728C15.7151 5.60029 15.6152 5.36121 15.6152 5.11606V1.50246C15.6152 1.25429 15.7151 1.01823 15.8876 0.845719C16.0631 0.670186 16.2992 0.570312 16.5473 0.570312C16.7925 0.570312 17.0286 0.670186 17.2041 0.845719C17.3796 1.01823 17.4765 1.25429 17.4765 1.50246V5.11606Z" fill="url(#paint4_linear_975_4522)"/>
</g>
<mask id="mask2_975_4522" style="mask-type:luminance" maskUnits="userSpaceOnUse" x="25" y="0" width="4" height="7">
<path d="M25.1797 0.576172H28.2788V6.20237H25.1797V0.576172Z" fill="white"/>
</mask>
<g mask="url(#mask2_975_4522)">
<path d="M27.623 5.11606C27.623 5.36121 27.5261 5.60029 27.3506 5.7728C27.1781 5.94835 26.939 6.04516 26.6938 6.04516C26.4487 6.04516 26.2096 5.94835 26.0341 5.7728C25.8615 5.60029 25.7617 5.36121 25.7617 5.11606V1.50246C25.7617 1.25429 25.8615 1.01823 26.0341 0.845719C26.2096 0.670186 26.4487 0.570312 26.6938 0.570312C26.939 0.570312 27.1781 0.670186 27.3506 0.845719C27.5261 1.01823 27.623 1.25429 27.623 1.50246V5.11606Z" fill="url(#paint5_linear_975_4522)"/>
</g>
<mask id="mask3_975_4522" style="mask-type:luminance" maskUnits="userSpaceOnUse" x="20" y="37" width="3" height="6">
<path d="M20.5312 37.1934H22.8556V42.9951H20.5312V37.1934Z" fill="white"/>
</mask>
<g mask="url(#mask3_975_4522)">
<path d="M22.5508 42.0603C22.5508 42.3055 22.4509 42.5445 22.2784 42.717C22.1028 42.8926 21.8668 42.9894 21.6186 42.9894C21.3734 42.9894 21.1344 42.8926 20.9619 42.717C20.7863 42.5445 20.6895 42.3055 20.6895 42.0603V38.4467C20.6895 38.1985 20.7863 37.9625 20.9619 37.7899C21.1344 37.6144 21.3734 37.5176 21.6186 37.5176C21.8668 37.5176 22.1028 37.6144 22.2784 37.7899C22.4509 37.9625 22.5508 38.1985 22.5508 38.4467V42.0603Z" fill="url(#paint6_linear_975_4522)"/>
</g>
<mask id="mask4_975_4522" style="mask-type:luminance" maskUnits="userSpaceOnUse" x="15" y="37" width="4" height="6">
<path d="M15.1094 37.1934H18.2085V42.9951H15.1094V37.1934Z" fill="white"/>
</mask>
<g mask="url(#mask4_975_4522)">
<path d="M17.4765 42.0603C17.4765 42.3055 17.3796 42.5445 17.2041 42.717C17.0286 42.8926 16.7925 42.9894 16.5473 42.9894C16.2992 42.9894 16.0631 42.8926 15.8876 42.717C15.7151 42.5445 15.6152 42.3055 15.6152 42.0603V38.4467C15.6152 38.1985 15.7151 37.9625 15.8876 37.7899C16.0631 37.6144 16.2992 37.5176 16.5473 37.5176C16.7925 37.5176 17.0286 37.6144 17.2041 37.7899C17.3796 37.9625 17.4765 38.1985 17.4765 38.4467V42.0603Z" fill="url(#paint7_linear_975_4522)"/>
</g>
<mask id="mask5_975_4522" style="mask-type:luminance" maskUnits="userSpaceOnUse" x="25" y="37" width="4" height="6">
<path d="M25.1797 37.1934H28.2788V42.9951H25.1797V37.1934Z" fill="white"/>
</mask>
<g mask="url(#mask5_975_4522)">
<path d="M27.623 42.0603C27.623 42.3055 27.5261 42.5445 27.3506 42.717C27.1781 42.8926 26.939 42.9894 26.6938 42.9894C26.4487 42.9894 26.2096 42.8926 26.0341 42.717C25.8615 42.5445 25.7617 42.3055 25.7617 42.0603V38.4467C25.7617 38.1985 25.8615 37.9625 26.0341 37.7899C26.2096 37.6144 26.4487 37.5176 26.6938 37.5176C26.939 37.5176 27.1781 37.6144 27.3506 37.7899C27.5261 37.9625 27.623 38.1985 27.623 38.4467V42.0603Z" fill="url(#paint8_linear_975_4522)"/>
</g>
<mask id="mask6_975_4522" style="mask-type:luminance" maskUnits="userSpaceOnUse" x="36" y="20" width="7" height="4">
<path d="M36.8027 20.1484H42.8345V23.2476H36.8027V20.1484Z" fill="white"/>
</mask>
<g mask="url(#mask6_975_4522)">
<path d="M38.2857 22.7119C38.0375 22.7119 37.8015 22.612 37.6259 22.4395C37.4534 22.2639 37.3535 22.0279 37.3535 21.7797C37.3535 21.5346 37.4534 21.2985 37.6259 21.123C37.8015 20.9475 38.0375 20.8506 38.2857 20.8506H41.8993C42.1444 20.8506 42.3805 20.9475 42.5561 21.123C42.7316 21.2985 42.8284 21.5346 42.8284 21.7797C42.8284 22.0279 42.7316 22.2639 42.5561 22.4395C42.3805 22.612 42.1444 22.7119 41.8993 22.7119H38.2857Z" fill="url(#paint9_linear_975_4522)"/>
</g>
<mask id="mask7_975_4522" style="mask-type:luminance" maskUnits="userSpaceOnUse" x="36" y="15" width="7" height="3">
<path d="M36.8027 15.499H42.8345V17.8233H36.8027V15.499Z" fill="white"/>
</mask>
<g mask="url(#mask7_975_4522)">
<path d="M38.2857 17.6357C38.0375 17.6357 37.8015 17.5388 37.6259 17.3633C37.4534 17.1878 37.3535 16.9517 37.3535 16.7065C37.3535 16.4583 37.4534 16.2223 37.6259 16.0468C37.8015 15.8742 38.0375 15.7744 38.2857 15.7744H41.8993C42.1444 15.7744 42.3805 15.8742 42.5561 16.0468C42.7316 16.2223 42.8284 16.4583 42.8284 16.7065C42.8284 16.9517 42.7316 17.1878 42.5561 17.3633C42.3805 17.5388 42.1444 17.6357 41.8993 17.6357H38.2857Z" fill="url(#paint10_linear_975_4522)"/>
</g>
<mask id="mask8_975_4522" style="mask-type:luminance" maskUnits="userSpaceOnUse" x="36" y="25" width="7" height="3">
<path d="M36.8027 25.5713H42.8345V27.8956H36.8027V25.5713Z" fill="white"/>
</mask>
<g mask="url(#mask8_975_4522)">
<path d="M38.2857 27.784C38.0375 27.784 37.8015 27.6872 37.6259 27.5117C37.4534 27.3391 37.3535 27.1031 37.3535 26.8549C37.3535 26.6098 37.4534 26.3707 37.6259 26.1982C37.8015 26.0226 38.0375 25.9258 38.2857 25.9258H41.8993C42.1444 25.9258 42.3805 26.0226 42.5561 26.1982C42.7316 26.3707 42.8284 26.6098 42.8284 26.8549C42.8284 27.1031 42.7316 27.3391 42.5561 27.5117C42.3805 27.6872 42.1444 27.784 41.8993 27.784H38.2857Z" fill="url(#paint11_linear_975_4522)"/>
</g>
<mask id="mask9_975_4522" style="mask-type:luminance" maskUnits="userSpaceOnUse" x="0" y="20" width="7" height="4">
<path d="M0.414062 20.1484H6.58501V23.2476H0.414062V20.1484Z" fill="white"/>
</mask>
<g mask="url(#mask9_975_4522)">
<path d="M1.34035 22.7119C1.09219 22.7119 0.856121 22.612 0.680588 22.4395C0.508076 22.2639 0.408203 22.0279 0.408203 21.7797C0.408203 21.5346 0.508076 21.2985 0.680588 21.123C0.856121 20.9475 1.09219 20.8506 1.34035 20.8506H4.95395C5.1991 20.8506 5.43516 20.9475 5.61069 21.123C5.78623 21.2985 5.88308 21.5346 5.88308 21.7797C5.88308 22.0279 5.78623 22.2639 5.61069 22.4395C5.43516 22.612 5.1991 22.7119 4.95395 22.7119H1.34035Z" fill="url(#paint12_linear_975_4522)"/>
</g>
<mask id="mask10_975_4522" style="mask-type:luminance" maskUnits="userSpaceOnUse" x="0" y="15" width="7" height="3">
<path d="M0.414062 15.5H6.58501V17.8243H0.414062V15.5Z" fill="white"/>
</mask>
<g mask="url(#mask10_975_4522)">
<path d="M1.34035 17.6367C1.09219 17.6367 0.856121 17.5398 0.680588 17.3642C0.508076 17.1888 0.408203 16.9527 0.408203 16.7075C0.408203 16.4593 0.508076 16.2233 0.680588 16.0477C0.856121 15.8752 1.09219 15.7754 1.34035 15.7754H4.95395C5.1991 15.7754 5.43516 15.8752 5.61069 16.0477C5.78623 16.2233 5.88308 16.4593 5.88308 16.7075C5.88308 16.9527 5.78623 17.1888 5.61069 17.3642C5.43516 17.5398 5.1991 17.6367 4.95395 17.6367H1.34035Z" fill="url(#paint13_linear_975_4522)"/>
</g>
<mask id="mask11_975_4522" style="mask-type:luminance" maskUnits="userSpaceOnUse" x="0" y="25" width="7" height="3">
<path d="M0.414062 25.5713H6.58501V27.8956H0.414062V25.5713Z" fill="white"/>
</mask>
<g mask="url(#mask11_975_4522)">
<path d="M1.34035 27.784C1.09219 27.784 0.856121 27.6872 0.680588 27.5117C0.508076 27.3391 0.408203 27.1031 0.408203 26.8549C0.408203 26.6098 0.508076 26.3707 0.680588 26.1982C0.856121 26.0226 1.09219 25.9258 1.34035 25.9258H4.95395C5.1991 25.9258 5.43516 26.0226 5.61069 26.1982C5.78623 26.3707 5.88308 26.6098 5.88308 26.8549C5.88308 27.1031 5.78623 27.3391 5.61069 27.5117C5.43516 27.6872 5.1991 27.784 4.95395 27.784H1.34035Z" fill="url(#paint14_linear_975_4522)"/>
</g>
</g>
<defs>
<linearGradient id="paint0_linear_975_4522" x1="14.4706" y1="10.9155" x2="36.351" y2="23.3203" gradientUnits="userSpaceOnUse">
<stop offset="0.00399963" stop-color="#F57A78"/>
<stop offset="0.229" stop-color="#F94F63"/>
<stop offset="0.539" stop-color="#B73CB7"/>
<stop offset="1" stop-color="#7B5BDD"/>
</linearGradient>
<linearGradient id="paint1_linear_975_4522" x1="9.92161" y1="10.9155" x2="31.8004" y2="23.3176" gradientUnits="userSpaceOnUse">
<stop offset="0.00399963" stop-color="#F57A78"/>
<stop offset="0.229" stop-color="#F94F63"/>
<stop offset="0.539" stop-color="#B73CB7"/>
<stop offset="1" stop-color="#7B5BDD"/>
</linearGradient>
<linearGradient id="paint2_linear_975_4522" x1="15.903" y1="16.241" x2="27.9442" y2="24.3785" gradientUnits="userSpaceOnUse">
<stop offset="0.00399963" stop-color="#F57A78"/>
<stop offset="0.229" stop-color="#F94F63"/>
<stop offset="0.539" stop-color="#B73CB7"/>
<stop offset="1" stop-color="#7B5BDD"/>
</linearGradient>
<linearGradient id="paint3_linear_975_4522" x1="20.7915" y1="1.02999" x2="23.1983" y2="1.60135" gradientUnits="userSpaceOnUse">
<stop offset="0.00399963" stop-color="#F57A78"/>
<stop offset="0.229" stop-color="#F94F63"/>
<stop offset="0.539" stop-color="#B73CB7"/>
<stop offset="1" stop-color="#7B5BDD"/>
</linearGradient>
<linearGradient id="paint4_linear_975_4522" x1="15.7172" y1="1.02999" x2="18.124" y2="1.60132" gradientUnits="userSpaceOnUse">
<stop offset="0.00399963" stop-color="#F57A78"/>
<stop offset="0.229" stop-color="#F94F63"/>
<stop offset="0.539" stop-color="#B73CB7"/>
<stop offset="1" stop-color="#7B5BDD"/>
</linearGradient>
<linearGradient id="paint5_linear_975_4522" x1="25.8637" y1="1.02999" x2="28.2705" y2="1.60132" gradientUnits="userSpaceOnUse">
<stop offset="0.00399963" stop-color="#F57A78"/>
<stop offset="0.229" stop-color="#F94F63"/>
<stop offset="0.539" stop-color="#B73CB7"/>
<stop offset="1" stop-color="#7B5BDD"/>
</linearGradient>
<linearGradient id="paint6_linear_975_4522" x1="20.7915" y1="37.977" x2="23.1982" y2="38.5486" gradientUnits="userSpaceOnUse">
<stop offset="0.00399963" stop-color="#F57A78"/>
<stop offset="0.229" stop-color="#F94F63"/>
<stop offset="0.539" stop-color="#B73CB7"/>
<stop offset="1" stop-color="#7B5BDD"/>
</linearGradient>
<linearGradient id="paint7_linear_975_4522" x1="15.7172" y1="37.977" x2="18.1239" y2="38.5486" gradientUnits="userSpaceOnUse">
<stop offset="0.00399963" stop-color="#F57A78"/>
<stop offset="0.229" stop-color="#F94F63"/>
<stop offset="0.539" stop-color="#B73CB7"/>
<stop offset="1" stop-color="#7B5BDD"/>
</linearGradient>
<linearGradient id="paint8_linear_975_4522" x1="25.8637" y1="37.977" x2="28.2703" y2="38.5486" gradientUnits="userSpaceOnUse">
<stop offset="0.00399963" stop-color="#F57A78"/>
<stop offset="0.229" stop-color="#F94F63"/>
<stop offset="0.539" stop-color="#B73CB7"/>
<stop offset="1" stop-color="#7B5BDD"/>
</linearGradient>
<linearGradient id="paint9_linear_975_4522" x1="37.6536" y1="21.0069" x2="39.0867" y2="23.9503" gradientUnits="userSpaceOnUse">
<stop offset="0.00399963" stop-color="#F57A78"/>
<stop offset="0.229" stop-color="#F94F63"/>
<stop offset="0.539" stop-color="#B73CB7"/>
<stop offset="1" stop-color="#7B5BDD"/>
</linearGradient>
<linearGradient id="paint10_linear_975_4522" x1="37.6536" y1="15.9307" x2="39.0866" y2="18.874" gradientUnits="userSpaceOnUse">
<stop offset="0.00399963" stop-color="#F57A78"/>
<stop offset="0.229" stop-color="#F94F63"/>
<stop offset="0.539" stop-color="#B73CB7"/>
<stop offset="1" stop-color="#7B5BDD"/>
</linearGradient>
<linearGradient id="paint11_linear_975_4522" x1="37.6536" y1="26.0818" x2="39.0828" y2="29.0222" gradientUnits="userSpaceOnUse">
<stop offset="0.00399963" stop-color="#F57A78"/>
<stop offset="0.229" stop-color="#F94F63"/>
<stop offset="0.539" stop-color="#B73CB7"/>
<stop offset="1" stop-color="#7B5BDD"/>
</linearGradient>
<linearGradient id="paint12_linear_975_4522" x1="0.708252" y1="21.0069" x2="2.14136" y2="23.9503" gradientUnits="userSpaceOnUse">
<stop offset="0.00399963" stop-color="#F57A78"/>
<stop offset="0.229" stop-color="#F94F63"/>
<stop offset="0.539" stop-color="#B73CB7"/>
<stop offset="1" stop-color="#7B5BDD"/>
</linearGradient>
<linearGradient id="paint13_linear_975_4522" x1="0.708252" y1="15.9317" x2="2.14129" y2="18.875" gradientUnits="userSpaceOnUse">
<stop offset="0.00399963" stop-color="#F57A78"/>
<stop offset="0.229" stop-color="#F94F63"/>
<stop offset="0.539" stop-color="#B73CB7"/>
<stop offset="1" stop-color="#7B5BDD"/>
</linearGradient>
<linearGradient id="paint14_linear_975_4522" x1="0.708252" y1="26.0818" x2="2.13753" y2="29.0222" gradientUnits="userSpaceOnUse">
<stop offset="0.00399963" stop-color="#F57A78"/>
<stop offset="0.229" stop-color="#F94F63"/>
<stop offset="0.539" stop-color="#B73CB7"/>
<stop offset="1" stop-color="#7B5BDD"/>
</linearGradient>
<clipPath id="clip0_975_4522">
<rect width="43" height="43" fill="white"/>
</clipPath>
</defs>
</svg>

