<svg width="24" height="37" viewBox="0 0 24 37" fill="none" xmlns="http://www.w3.org/2000/svg">
<g clip-path="url(#clip0_997_5305)">
<path d="M16.859 9.36914L7.45898 27.748" stroke="url(#paint0_linear_997_5305)" stroke-width="1.34433"/>
<path d="M18.4036 9.85121L17.9452 7.24414L15.5508 8.41688L18.4036 9.85121Z" fill="url(#paint1_linear_997_5305)" stroke="url(#paint2_linear_997_5305)" stroke-width="1.34433" stroke-linecap="round" stroke-linejoin="round"/>
<path d="M8.76378 28.7009L6.36932 29.8737L5.9082 27.2666L8.76378 28.7009Z" fill="url(#paint3_linear_997_5305)" stroke="url(#paint4_linear_997_5305)" stroke-width="1.34433" stroke-linecap="round" stroke-linejoin="round"/>
<mask id="mask0_997_5305" style="mask-type:luminance" maskUnits="userSpaceOnUse" x="0" y="0" width="24" height="37">
<path d="M0.490234 0.201172H23.9569V36.6726H0.490234V0.201172Z" fill="white"/>
</mask>
<g mask="url(#mask0_997_5305)">
<mask id="mask1_997_5305" style="mask-type:luminance" maskUnits="userSpaceOnUse" x="0" y="0" width="24" height="37">
<path d="M5.30968 0.201172H19.1375C21.7986 0.201172 23.9569 2.32096 23.9569 4.93354V31.9402C23.9569 34.5528 21.7986 36.6726 19.1375 36.6726H5.30968C2.64857 36.6726 0.490234 34.5528 0.490234 31.9402V4.93354C0.490234 2.32096 2.64857 0.201172 5.30968 0.201172Z" fill="white"/>
</mask>
<g mask="url(#mask1_997_5305)">
<path d="M5.30968 0.201172H19.1375C21.7986 0.201172 23.9569 2.32096 23.9569 4.93354V31.9402C23.9569 34.5528 21.7986 36.6726 19.1375 36.6726H5.30968C2.64857 36.6726 0.490234 34.5528 0.490234 31.9402V4.93354C0.490234 2.32096 2.64857 0.201172 5.30968 0.201172Z" stroke="url(#paint5_linear_997_5305)" stroke-width="4.02716"/>
</g>
</g>
</g>
<defs>
<linearGradient id="paint0_linear_997_5305" x1="7.97415" y1="10.9123" x2="19.3617" y2="14.9791" gradientUnits="userSpaceOnUse">
<stop offset="0.00399963" stop-color="#F57A78"/>
<stop offset="0.229" stop-color="#F94F63"/>
<stop offset="0.539" stop-color="#B73CB7"/>
<stop offset="1" stop-color="#7B5BDD"/>
</linearGradient>
<linearGradient id="paint1_linear_997_5305" x1="15.7071" y1="7.46304" x2="18.1675" y2="9.34295" gradientUnits="userSpaceOnUse">
<stop offset="0.00399963" stop-color="#F57A78"/>
<stop offset="0.229" stop-color="#F94F63"/>
<stop offset="0.539" stop-color="#B73CB7"/>
<stop offset="1" stop-color="#7B5BDD"/>
</linearGradient>
<linearGradient id="paint2_linear_997_5305" x1="15.7071" y1="7.46304" x2="18.1675" y2="9.34295" gradientUnits="userSpaceOnUse">
<stop offset="0.00399963" stop-color="#F57A78"/>
<stop offset="0.229" stop-color="#F94F63"/>
<stop offset="0.539" stop-color="#B73CB7"/>
<stop offset="1" stop-color="#7B5BDD"/>
</linearGradient>
<linearGradient id="paint3_linear_997_5305" x1="6.0647" y1="27.4855" x2="8.52572" y2="29.3677" gradientUnits="userSpaceOnUse">
<stop offset="0.00399963" stop-color="#F57A78"/>
<stop offset="0.229" stop-color="#F94F63"/>
<stop offset="0.539" stop-color="#B73CB7"/>
<stop offset="1" stop-color="#7B5BDD"/>
</linearGradient>
<linearGradient id="paint4_linear_997_5305" x1="6.0647" y1="27.4855" x2="8.52572" y2="29.3677" gradientUnits="userSpaceOnUse">
<stop offset="0.00399963" stop-color="#F57A78"/>
<stop offset="0.229" stop-color="#F94F63"/>
<stop offset="0.539" stop-color="#B73CB7"/>
<stop offset="1" stop-color="#7B5BDD"/>
</linearGradient>
<linearGradient id="paint5_linear_997_5305" x1="1.77632" y1="3.26339" x2="28.4471" y2="15.246" gradientUnits="userSpaceOnUse">
<stop offset="0.00399963" stop-color="#F57A78"/>
<stop offset="0.229" stop-color="#F94F63"/>
<stop offset="0.539" stop-color="#B73CB7"/>
<stop offset="1" stop-color="#7B5BDD"/>
</linearGradient>
<clipPath id="clip0_997_5305">
<rect width="24" height="37" fill="white"/>
</clipPath>
</defs>
</svg>



