<svg width="30" height="34" viewBox="0 0 30 34" xmlns="http://www.w3.org/2000/svg">
<g clip-path="url(#clip0_997_5286)">
<path d="M29.9375 8.57625C29.8962 8.4777 29.837 8.38885 29.7624 8.3145L29.7616 8.3137L21.6194 0.235088C21.6081 0.223778 21.5927 0.219738 21.5805 0.210044C21.5132 0.150263 21.4402 0.0969435 21.3559 0.0622055C21.2748 0.0282753 21.1881 0.0161574 21.1021 0.0113102C21.0827 0.0096945 21.0665 0 21.0471 0H0.81081C0.363244 0 0 0.361115 0 0.80786V33.1223C0 33.5691 0.363244 33.9302 0.81081 33.9302H5.0335H25.3038H29.1892C29.6367 33.9302 30 33.5691 30 33.1223V8.8865C30 8.78065 29.9789 8.67485 29.9375 8.57625ZM5.8443 32.3145V14.4066H24.493V32.3137L5.8443 32.3145ZM26.1146 32.3145V13.5988C26.1146 13.152 25.7514 12.7909 25.3038 12.7909H5.0335C4.58595 12.7909 4.2227 13.152 4.2227 13.5988V32.3137H1.62162V1.61492H4.2227V4.84636C4.2227 5.2931 4.58595 5.65425 5.0335 5.65425C5.4811 5.65425 5.8443 5.2931 5.8443 4.84636V1.61492H8.27675V4.84636C8.27675 5.2931 8.64 5.65425 9.08755 5.65425C9.53515 5.65425 9.8984 5.2931 9.8984 4.84636V1.61492H12.3308V4.84636C12.3308 5.2931 12.694 5.65425 13.1416 5.65425C13.5892 5.65425 13.9524 5.2931 13.9524 4.84636V1.61492H16.3848V4.84636C16.3848 5.2931 16.7481 5.65425 17.1957 5.65425C17.6432 5.65425 18.0065 5.2931 18.0065 4.84636V1.61492H20.7122L28.3784 9.22175V32.3137L26.1146 32.3145Z" fill="url(#paint0_linear_997_5286)"/>
</g>
<defs>
<linearGradient id="paint0_linear_997_5286" x1="1.64414" y1="2.84886" x2="31.3139" y2="21.1662" gradientUnits="userSpaceOnUse">
<stop offset="0.00399963" stop-color="#F57A78"/>
<stop offset="0.229" stop-color="#F94F63"/>
<stop offset="0.539" stop-color="#B73CB7"/>
<stop offset="1" stop-color="#7B5BDD"/>
</linearGradient>
<clipPath id="clip0_997_5286">
<rect width="30" height="34" fill="white"/>
</clipPath>
</defs>
</svg>

