<svg width="40" height="30" viewBox="0 0 40 30" fill="none" xmlns="http://www.w3.org/2000/svg">
<g clip-path="url(#clip0_997_5431)">
<path d="M20.0478 19.0803C22.2256 19.0803 23.9996 17.2748 23.9996 15.0568C23.9996 12.8368 22.2256 11.0312 20.0478 11.0312C17.8678 11.0312 16.0938 12.8368 16.0938 15.0568C16.0938 17.2748 17.8678 19.0803 20.0478 19.0803ZM20.0478 12.3724C21.4996 12.3724 22.6809 13.5768 22.6809 15.0568C22.6809 16.5347 21.4996 17.7391 20.0478 17.7391C18.5938 17.7391 17.4125 16.5347 17.4125 15.0568C17.4125 13.5768 18.5938 12.3724 20.0478 12.3724Z" fill="url(#paint0_linear_997_5431)"/>
<mask id="mask0_997_5431" style="mask-type:luminance" maskUnits="userSpaceOnUse" x="0" y="0" width="8" height="30">
<path d="M0.255859 0.230469H7.83747V29.8138H0.255859V0.230469Z" fill="white"/>
</mask>
<g mask="url(#mask0_997_5431)">
<path d="M6.87432 29.8137C7.04611 29.8137 7.21795 29.7465 7.34681 29.6097C7.60026 29.3428 7.59382 28.9175 7.3318 28.6614C3.63763 25.0221 1.60369 20.1914 1.60369 15.0568C1.60369 9.92007 3.63763 5.08936 7.3318 1.45003C7.59382 1.19395 7.60026 0.768603 7.34681 0.501674C7.09551 0.236918 6.67885 0.228238 6.41469 0.486486C2.4628 4.37969 0.287109 9.55332 0.287109 15.0568C0.287109 20.5581 2.4628 25.7317 6.41469 29.6249C6.54355 29.7508 6.70892 29.8137 6.87432 29.8137Z" fill="url(#paint1_linear_997_5431)"/>
</g>
<path d="M9.70846 24.9288C9.83733 25.0547 10.0005 25.1176 10.1659 25.1176C10.3377 25.1176 10.5096 25.0503 10.6406 24.9136C10.8919 24.6467 10.8854 24.2235 10.6234 23.9653C8.205 21.5803 6.87341 18.4163 6.87341 15.0569C6.87341 11.6953 8.205 8.53126 10.6234 6.14626C10.8854 5.88805 10.8919 5.46484 10.6406 5.19792C10.3871 4.93101 9.97048 4.92667 9.70846 5.18271C7.03019 7.82163 5.55469 11.3285 5.55469 15.0569C5.55469 18.783 7.03019 22.2899 9.70846 24.9288Z" fill="url(#paint2_linear_997_5431)"/>
<path d="M13.004 20.2351C13.1307 20.3609 13.2961 20.4217 13.4615 20.4217C13.6333 20.4217 13.8051 20.3544 13.934 20.2177C14.1874 19.9508 14.1788 19.5276 13.919 19.2693C12.7742 18.1431 12.1427 16.6478 12.1427 15.0571C12.1427 13.4642 12.7742 11.969 13.919 10.8427C14.1788 10.5845 14.1874 10.1613 13.934 9.89435C13.6827 9.62743 13.2639 9.62093 13.004 9.87701C11.5994 11.2594 10.8262 13.0975 10.8262 15.0571C10.8262 17.0146 11.5994 18.8527 13.004 20.2351Z" fill="url(#paint3_linear_997_5431)"/>
<mask id="mask1_997_5431" style="mask-type:luminance" maskUnits="userSpaceOnUse" x="32" y="0" width="8" height="30">
<path d="M32.0273 0.230469H39.8409V29.8138H32.0273V0.230469Z" fill="white"/>
</mask>
<g mask="url(#mask1_997_5431)">
<path d="M32.7476 0.501674C32.4941 0.768603 32.5027 1.19395 32.7626 1.45003C36.4568 5.08936 38.4907 9.92007 38.4907 15.0568C38.4907 20.1914 36.4568 25.0221 32.7626 28.6614C32.5027 28.9175 32.4941 29.3428 32.7476 29.6097C32.8765 29.7465 33.0483 29.8137 33.2201 29.8137C33.3855 29.8137 33.5508 29.7508 33.6797 29.6249C37.6316 25.7317 39.8073 20.5581 39.8073 15.0568C39.8073 9.55332 37.6316 4.37969 33.6797 0.486486C33.4177 0.228238 33.001 0.236918 32.7476 0.501674Z" fill="url(#paint4_linear_997_5431)"/>
</g>
<path d="M33.2204 15.0567C33.2204 18.4161 31.8888 21.5802 29.4705 23.9652C29.2084 24.2234 29.202 24.6466 29.4554 24.9135C29.5843 25.0502 29.7561 25.1175 29.9279 25.1175C30.0933 25.1175 30.2587 25.0545 30.3854 24.9287C33.0636 22.2898 34.5392 18.7829 34.5392 15.0567C34.5392 11.3284 33.0636 7.8215 30.3854 5.18258C30.1234 4.92433 29.7088 4.93087 29.4554 5.19779C29.202 5.46471 29.2084 5.88787 29.4705 6.14612C31.8888 8.53112 33.2204 11.6952 33.2204 15.0567Z" fill="url(#paint5_linear_997_5431)"/>
<path d="M26.1614 20.2177C26.2903 20.3544 26.4621 20.4217 26.6361 20.4217C26.7993 20.4217 26.9646 20.3609 27.0914 20.2351C28.496 18.8527 29.2692 17.0146 29.2692 15.0571C29.2692 13.0975 28.496 11.2594 27.0914 9.87701C26.8315 9.62093 26.4127 9.62743 26.1614 9.89435C25.9079 10.1613 25.9166 10.5845 26.1786 10.8427C27.3212 11.969 27.9526 13.4642 27.9526 15.0571C27.9526 16.6478 27.3212 18.1431 26.1786 19.2693C25.9166 19.5276 25.9079 19.9508 26.1614 20.2177Z" fill="url(#paint6_linear_997_5431)"/>
</g>
<defs>
<linearGradient id="paint0_linear_997_5431" x1="16.527" y1="11.7071" x2="23.8715" y2="16.7442" gradientUnits="userSpaceOnUse">
<stop offset="0.00399963" stop-color="#F57A78"/>
<stop offset="0.229" stop-color="#F94F63"/>
<stop offset="0.539" stop-color="#B73CB7"/>
<stop offset="1" stop-color="#7B5BDD"/>
</linearGradient>
<linearGradient id="paint1_linear_997_5431" x1="0.684202" y1="2.77607" x2="10.2988" y2="4.4241" gradientUnits="userSpaceOnUse">
<stop offset="0.00399963" stop-color="#F57A78"/>
<stop offset="0.229" stop-color="#F94F63"/>
<stop offset="0.539" stop-color="#B73CB7"/>
<stop offset="1" stop-color="#7B5BDD"/>
</linearGradient>
<linearGradient id="paint2_linear_997_5431" x1="5.8435" y1="6.68375" x2="12.809" y2="7.95745" gradientUnits="userSpaceOnUse">
<stop offset="0.00399963" stop-color="#F57A78"/>
<stop offset="0.229" stop-color="#F94F63"/>
<stop offset="0.539" stop-color="#B73CB7"/>
<stop offset="1" stop-color="#7B5BDD"/>
</linearGradient>
<linearGradient id="paint3_linear_997_5431" x1="11.0066" y1="10.5906" x2="15.3072" y2="11.5119" gradientUnits="userSpaceOnUse">
<stop offset="0.00399963" stop-color="#F57A78"/>
<stop offset="0.229" stop-color="#F94F63"/>
<stop offset="0.539" stop-color="#B73CB7"/>
<stop offset="1" stop-color="#7B5BDD"/>
</linearGradient>
<linearGradient id="paint4_linear_997_5431" x1="32.9595" y1="2.77607" x2="42.5732" y2="4.42375" gradientUnits="userSpaceOnUse">
<stop offset="0.00399963" stop-color="#F57A78"/>
<stop offset="0.229" stop-color="#F94F63"/>
<stop offset="0.539" stop-color="#B73CB7"/>
<stop offset="1" stop-color="#7B5BDD"/>
</linearGradient>
<linearGradient id="paint5_linear_997_5431" x1="29.5583" y1="6.68285" x2="36.5235" y2="7.95637" gradientUnits="userSpaceOnUse">
<stop offset="0.00399963" stop-color="#F57A78"/>
<stop offset="0.229" stop-color="#F94F63"/>
<stop offset="0.539" stop-color="#B73CB7"/>
<stop offset="1" stop-color="#7B5BDD"/>
</linearGradient>
<linearGradient id="paint6_linear_997_5431" x1="26.157" y1="10.5906" x2="30.4573" y2="11.5118" gradientUnits="userSpaceOnUse">
<stop offset="0.00399963" stop-color="#F57A78"/>
<stop offset="0.229" stop-color="#F94F63"/>
<stop offset="0.539" stop-color="#B73CB7"/>
<stop offset="1" stop-color="#7B5BDD"/>
</linearGradient>
<clipPath id="clip0_997_5431">
<rect width="40" height="30" fill="white"/>
</clipPath>
</defs>
</svg>

