<svg width="16" height="40" viewBox="0 0 16 40"  xmlns="http://www.w3.org/2000/svg">
<mask id="mask0_997_5558" style="mask-type:luminance" maskUnits="userSpaceOnUse" x="0" y="0" width="16" height="40">
<path d="M0.0664062 0.21875H15.495V39.6473H0.0664062V0.21875Z" fill="white"/>
</mask>
<g mask="url(#mask0_997_5558)">
<path d="M12.3963 27.3646H9.98263C9.78915 27.3646 9.60463 27.3288 9.42606 27.2544C9.24749 27.18 9.08978 27.0729 8.95286 26.936C8.81595 26.7991 8.71178 26.6414 8.63738 26.4628C8.56298 26.2812 8.52429 26.0967 8.52429 25.9033V22.5223H9.93498C10.1879 22.5194 10.432 22.4717 10.6642 22.3735C10.8993 22.2753 11.1046 22.1384 11.2862 21.9568C11.4647 21.7783 11.6017 21.5699 11.6999 21.3348C11.7951 21.0997 11.8457 20.8556 11.8457 20.6027V19.8199C12.2594 19.7366 12.6463 19.5848 13.0094 19.3646C13.3695 19.1443 13.685 18.8706 13.9529 18.5431C14.2177 18.2158 14.4231 17.8527 14.5659 17.4539C14.7088 17.0551 14.7802 16.6414 14.7802 16.2187V9.45982C14.7802 9.01044 14.6999 8.57884 14.5421 8.15924C14.3844 7.73959 14.1582 7.36456 13.8635 7.02827C13.5659 6.69199 13.2237 6.42113 12.8278 6.20982C12.435 6.00147 12.0154 5.86759 11.5719 5.81102V1.04315C11.5719 0.933038 11.5511 0.828867 11.5094 0.727678C11.4677 0.626489 11.4082 0.537203 11.3338 0.459821C11.2564 0.382441 11.1671 0.322917 11.0659 0.28125C10.9647 0.239584 10.8606 0.21875 10.7534 0.21875C10.6433 0.21875 10.5391 0.239584 10.4379 0.28125C10.3368 0.322917 10.2505 0.382441 10.1731 0.459821C10.0957 0.537203 10.0362 0.626489 9.99452 0.727678C9.95286 0.828867 9.932 0.933038 9.932 1.04315V5.78422H5.37844V1.04315C5.37844 0.933038 5.35761 0.828867 5.31892 0.727678C5.27725 0.626489 5.21773 0.537203 5.14035 0.459821C5.06296 0.382441 4.97368 0.322917 4.87249 0.28125C4.77427 0.239584 4.66714 0.21875 4.55999 0.21875C4.44987 0.21875 4.3457 0.239584 4.24451 0.28125C4.1463 0.322917 4.05702 0.382441 3.97963 0.459821C3.90225 0.537203 3.84273 0.626489 3.80106 0.727678C3.75939 0.828867 3.73856 0.933038 3.73856 1.04315V5.83782C3.31594 5.91519 2.91714 6.06102 2.54511 6.27827C2.17308 6.49256 1.84868 6.76639 1.57189 7.09673C1.29511 7.43004 1.0838 7.79616 0.934986 8.20387C0.789158 8.60861 0.714752 9.02827 0.714752 9.45982V16.2187C0.714752 16.6443 0.78618 17.0551 0.929038 17.4539C1.06892 17.8527 1.27427 18.2187 1.54213 18.5462C1.80999 18.8735 2.12547 19.1473 2.48559 19.3676C2.84868 19.5848 3.23559 19.7366 3.64927 19.8229V20.6027C3.64927 20.8586 3.69987 21.1027 3.79511 21.3378C3.89332 21.5729 4.03023 21.7783 4.21178 21.9598C4.39035 22.1384 4.59571 22.2783 4.83082 22.3765C5.06594 22.4717 5.30999 22.5223 5.56296 22.5223H6.8844V25.9033C6.8844 26.1086 6.90223 26.311 6.94389 26.5104C6.98263 26.7098 7.04212 26.9063 7.11949 27.0938C7.19692 27.2812 7.29212 27.4628 7.4052 27.6324C7.51835 27.8021 7.64629 27.9568 7.79212 28.1027C7.93498 28.2455 8.09275 28.3765 8.26235 28.4896C8.432 28.6027 8.61058 28.6979 8.79806 28.7753C8.9856 28.8556 9.17903 28.9122 9.37846 28.9539C9.57783 28.9926 9.78023 29.0134 9.98263 29.0134H12.3963C12.5927 29.0074 12.7802 29.0431 12.9647 29.1146C13.1463 29.186 13.31 29.2902 13.4499 29.4271C13.5898 29.567 13.6969 29.7247 13.7743 29.9063C13.8517 30.0878 13.8903 30.2783 13.8903 30.4747C13.8903 30.6711 13.8517 30.8616 13.7743 31.0431C13.6969 31.2247 13.5898 31.3854 13.4499 31.5223C13.31 31.6592 13.1463 31.7634 12.9647 31.8378C12.7802 31.9092 12.5927 31.942 12.3963 31.939H3.19392C2.98856 31.939 2.78916 31.9568 2.58975 31.9985C2.39035 32.0372 2.19689 32.0967 2.00641 32.1741C1.81892 32.2544 1.64035 32.3497 1.47368 32.4628C1.30404 32.5759 1.1463 32.7039 1.00344 32.8497C0.860586 32.9926 0.732609 33.1503 0.619512 33.3199C0.506418 33.4896 0.408203 33.6682 0.330822 33.8556C0.253441 34.0462 0.193917 34.2396 0.155227 34.439C0.116537 34.6384 0.0957031 34.8408 0.0957031 35.0462V38.7902C0.0957031 38.9003 0.116536 39.0044 0.158203 39.1056C0.199869 39.2068 0.259394 39.2962 0.333799 39.3735C0.41118 39.4509 0.500465 39.5104 0.601655 39.5521C0.702843 39.5938 0.807015 39.6146 0.914158 39.6146C1.02427 39.6146 1.12844 39.5938 1.22963 39.5521C1.33082 39.5104 1.41713 39.4509 1.49451 39.3735C1.57189 39.2962 1.63141 39.2068 1.67308 39.1056C1.71475 39.0044 1.73559 38.9003 1.73559 38.7902V35.0431C1.73559 34.8497 1.77428 34.6622 1.84571 34.4836C1.92011 34.3051 2.02725 34.1443 2.16416 34.0074C2.30106 33.8706 2.45582 33.7664 2.63439 33.692C2.81296 33.6176 3.00047 33.5788 3.19392 33.5788H12.3963C12.5987 33.5788 12.8011 33.561 13.0005 33.5194C13.1999 33.4807 13.3933 33.4211 13.5808 33.3438C13.7683 33.2664 13.9469 33.1682 14.1165 33.0551C14.2862 32.942 14.4439 32.814 14.5867 32.6682C14.7296 32.5253 14.8576 32.3676 14.9707 32.1979C15.0838 32.0283 15.179 31.8497 15.2564 31.6622C15.3368 31.4717 15.3933 31.2783 15.435 31.0788C15.4737 30.8795 15.4945 30.6771 15.4945 30.4717C15.4945 30.2694 15.4737 30.067 15.435 29.8676C15.3933 29.6652 15.3368 29.4717 15.2564 29.2842C15.179 29.0938 15.0838 28.9152 14.9707 28.7455C14.8576 28.5759 14.7296 28.4182 14.5867 28.2753C14.4439 28.1295 14.2862 28.0015 14.1165 27.8884C13.9469 27.7753 13.7683 27.68 13.5808 27.6027C13.3933 27.5223 13.1999 27.4658 13.0005 27.4241C12.8011 27.3854 12.5987 27.3646 12.3963 27.3646ZM4.38439 7.42707H11.1225C11.3903 7.42707 11.6493 7.4777 11.8963 7.58187C12.1463 7.68302 12.3635 7.83187 12.5541 8.02233C12.7445 8.21279 12.8903 8.43302 12.9915 8.68004C13.0957 8.93004 13.1463 9.18902 13.1463 9.45684V15.2158H2.35463V9.45982C2.35463 9.18902 2.40523 8.93004 2.50642 8.68004C2.61059 8.43302 2.75641 8.21279 2.94689 8.02233C3.13737 7.83187 3.35463 7.68302 3.60463 7.58187C3.85166 7.4777 4.11059 7.42707 4.37844 7.42707H4.38439ZM2.4588 16.8616H13.0391C12.8993 17.2753 12.6552 17.6116 12.301 17.8676C11.9469 18.1235 11.5541 18.2485 11.1165 18.2485H4.37844C3.94392 18.2485 3.54808 18.1235 3.19689 17.8676C2.84273 17.6116 2.5957 17.2753 2.4588 16.8616ZM5.28916 20.6027V19.8943H10.2088V20.6027C10.2088 20.6771 10.182 20.7426 10.1285 20.7962C10.0749 20.8497 10.0094 20.8765 9.93498 20.8765H5.56296C5.48559 20.8765 5.42308 20.8497 5.36951 20.7962C5.31594 20.7426 5.28916 20.6771 5.28916 20.6027Z" fill="url(#paint0_linear_997_5558)"/>
</g>
<defs>
<linearGradient id="paint0_linear_997_5558" x1="0.939632" y1="3.52651" x2="20.5154" y2="8.86934" gradientUnits="userSpaceOnUse">
<stop offset="0.00399963" stop-color="#F57A78"/>
<stop offset="0.229" stop-color="#F94F63"/>
<stop offset="0.539" stop-color="#B73CB7"/>
<stop offset="1" stop-color="#7B5BDD"/>
</linearGradient>
</defs>
</svg>

