<svg width="34" height="42" viewBox="0 0 34 42" xmlns="http://www.w3.org/2000/svg">
<g clip-path="url(#clip0_975_4484)">
<mask id="mask0_975_4484" style="mask-type:luminance" maskUnits="userSpaceOnUse" x="4" y="14" width="25" height="28">
<path d="M4.91016 14.4141H28.7308V41.7396H4.91016V14.4141Z" fill="white"/>
</mask>
<g mask="url(#mask0_975_4484)">
<path d="M12.5638 40.2962C12.98 40.123 13.3046 39.722 13.3046 39.09C13.3046 37.6833 13.2839 36.4863 13.2633 35.2923C13.2544 34.7758 13.2456 34.2624 13.2397 33.7307C13.2367 33.7094 13.2367 33.6851 13.2367 33.6638C13.2367 33.2962 13.523 32.9985 13.8772 32.9985H20.4293C20.7834 33.0045 21.0668 33.3053 21.0609 33.6699C21.052 34.2077 21.0461 34.7424 21.0372 35.2802C21.0196 36.4681 21.0018 37.6591 21.0018 39.09C21.0018 39.7311 21.3265 40.1352 21.7426 40.3083C21.9138 40.3782 22.1056 40.4147 22.2975 40.4147C22.4923 40.4147 22.6811 40.3782 22.8523 40.3083C23.2685 40.1352 23.5961 39.7311 23.5961 39.09V33.9738C23.5961 33.9434 23.5931 33.916 23.5931 33.8917C23.5931 33.8826 23.5902 33.8765 23.5902 33.8704H23.602V33.8674H23.5902C23.5902 33.8431 23.5872 33.8219 23.5872 33.8066C23.5755 33.7611 23.5725 33.7125 23.5725 33.6638C23.5725 33.2962 23.8588 32.9985 24.2129 32.9985H27.4034V15.8023H6.23307V32.9985H10.0817C10.1201 32.9985 10.1555 33.0015 10.1909 33.0076C10.5421 33.0653 10.7811 33.4056 10.7251 33.7671C10.5982 34.5875 10.6425 36.2068 10.6779 37.5649C10.6956 38.1847 10.7103 38.7559 10.7103 39.09C10.7103 39.722 11.035 40.123 11.4511 40.2962C11.6193 40.3661 11.8112 40.4025 12.006 40.4025C12.2038 40.4025 12.3926 40.3661 12.5638 40.2962ZM14.5855 39.09C14.5855 40.3509 13.9067 41.1651 13.036 41.5237C12.7055 41.6604 12.3543 41.7272 12.006 41.7272C11.6607 41.7272 11.3094 41.6604 10.9789 41.5237C10.1082 41.1651 9.42646 40.3509 9.42646 39.09C9.42646 38.604 9.41468 38.1239 9.39989 37.6013C9.37042 36.5167 9.33795 35.271 9.3881 34.3261H5.59262C5.23845 34.3261 4.94922 34.0284 4.94922 33.6638V15.14C4.94922 14.7723 5.23845 14.4746 5.59262 14.4746H28.0468C28.401 14.4746 28.6872 14.7723 28.6872 15.14V33.6638C28.6872 34.0284 28.401 34.3261 28.0468 34.3261H24.877V39.09C24.877 40.357 24.1982 41.1742 23.3305 41.5358C22.9999 41.6725 22.6487 41.7424 22.2975 41.7424C21.9492 41.7424 21.598 41.6725 21.2674 41.5358C20.3997 41.1742 19.718 40.357 19.718 39.09C19.718 37.9781 19.7386 36.62 19.7593 35.265C19.7652 34.9521 19.7681 34.6391 19.774 34.3261H14.5265C14.5294 34.6391 14.5353 34.9551 14.5413 35.271C14.5648 36.6139 14.5855 37.9598 14.5855 39.09Z" fill="url(#paint0_linear_975_4484)"/>
</g>
<path d="M18.7363 2.708C18.1195 2.59256 17.4791 2.53179 16.8209 2.53179C16.1598 2.53179 15.5194 2.59256 14.9055 2.708C12.4233 3.17892 10.2098 4.54308 8.61902 6.42677C7.03411 8.30435 6.06902 10.6985 6.06902 13.2475C6.06902 13.6577 6.0926 14.0678 6.13986 14.4749H27.4991C27.5492 14.0678 27.5728 13.6577 27.5728 13.2475C27.5728 10.6985 26.6048 8.30435 25.0199 6.42677C23.4291 4.54308 21.2185 3.17892 18.7363 2.708ZM16.8209 1.2041C17.544 1.2041 18.2612 1.27398 18.9666 1.40766C21.7379 1.93327 24.2083 3.45236 25.985 5.55479C27.7676 7.66939 28.8567 10.3703 28.8567 13.2475C28.8567 13.9038 28.7976 14.5752 28.6766 15.2588L28.5792 15.8026H5.05963L4.96519 15.2588C4.84419 14.5752 4.78516 13.9038 4.78516 13.2475C4.78516 10.3703 5.87126 7.66939 7.65688 5.55479C9.43361 3.45236 11.9009 1.93327 14.6753 1.40766C15.3807 1.27398 16.0978 1.2041 16.8209 1.2041Z" fill="url(#paint1_linear_975_4484)"/>
<mask id="mask1_975_4484" style="mask-type:luminance" maskUnits="userSpaceOnUse" x="8" y="0" width="5" height="5">
<path d="M8.6875 0.323242H12.4652V4.47645H8.6875V0.323242Z" fill="white"/>
</mask>
<g mask="url(#mask1_975_4484)">
<path d="M9.84518 0.587241C9.59432 0.328993 9.18706 0.328993 8.93619 0.587241C8.68533 0.845483 8.68533 1.26779 8.93619 1.52604L11.0199 3.68012C11.2678 3.93837 11.6751 3.93837 11.9259 3.68012C12.1768 3.41883 12.1768 2.99956 11.9259 2.74132L9.84518 0.587241Z" fill="url(#paint2_linear_975_4484)"/>
</g>
<mask id="mask2_975_4484" style="mask-type:luminance" maskUnits="userSpaceOnUse" x="20" y="0" width="6" height="5">
<path d="M20.7773 0.323242H25.3107V4.47645H20.7773V0.323242Z" fill="white"/>
</mask>
<g mask="url(#mask2_975_4484)">
<path d="M24.6994 1.52604C24.9503 1.26779 24.9503 0.845483 24.6994 0.587241C24.4485 0.328993 24.0442 0.328993 23.7933 0.587241L21.7096 2.74132C21.4588 2.99956 21.4588 3.41883 21.7096 3.68012C21.9605 3.93837 22.3678 3.93837 22.6187 3.68012L24.6994 1.52604Z" fill="url(#paint3_linear_975_4484)"/>
</g>
<path fill-rule="evenodd" clip-rule="evenodd" d="M11.5667 10.1181C12.2485 10.1181 12.8063 9.54082 12.8063 8.83295C12.8063 8.12805 12.2485 7.55078 11.5667 7.55078C10.882 7.55078 10.3242 8.12805 10.3242 8.83295C10.3242 9.54082 10.882 10.1181 11.5667 10.1181Z" fill="url(#paint4_linear_975_4484)"/>
<path fill-rule="evenodd" clip-rule="evenodd" d="M22.0697 10.1181C22.7544 10.1181 23.3122 9.54082 23.3122 8.83295C23.3122 8.12805 22.7544 7.55078 22.0697 7.55078C21.3879 7.55078 20.8301 8.12805 20.8301 8.83295C20.8301 9.54082 21.3879 10.1181 22.0697 10.1181Z" fill="url(#paint5_linear_975_4484)"/>
<mask id="mask3_975_4484" style="mask-type:luminance" maskUnits="userSpaceOnUse" x="29" y="14" width="5" height="14">
<path d="M29.2734 14.5264H33.5352V27.9856H29.2734V14.5264Z" fill="white"/>
</mask>
<g mask="url(#mask3_975_4484)">
<path d="M31.4189 15.8785C31.1916 15.8785 30.9821 15.9757 30.8315 16.1307C30.681 16.2886 30.5866 16.5044 30.5866 16.7383V25.7314C30.5866 25.9684 30.681 26.184 30.8315 26.339C30.9821 26.4939 31.1916 26.5912 31.4189 26.5912C31.6461 26.5912 31.8557 26.4939 32.0062 26.339C32.1567 26.184 32.2512 25.9684 32.2512 25.7314V16.7383C32.2512 16.5044 32.1567 16.2886 32.0062 16.1307C31.8557 15.9757 31.6461 15.8785 31.4189 15.8785ZM31.4189 14.5508C32.0003 14.5508 32.5315 14.7969 32.9123 15.1949C33.296 15.5899 33.5351 16.1367 33.5351 16.7383V25.7314C33.5351 26.3329 33.296 26.8798 32.9123 27.2778C32.5315 27.6727 32.0003 27.9189 31.4189 27.9189C30.8374 27.9189 30.3091 27.6727 29.9255 27.2778C29.5418 26.8798 29.3027 26.3329 29.3027 25.7314V16.7383C29.3027 16.1367 29.5418 15.5899 29.9255 15.1949C30.3091 14.7969 30.8374 14.5508 31.4189 14.5508Z" fill="url(#paint6_linear_975_4484)"/>
</g>
<mask id="mask4_975_4484" style="mask-type:luminance" maskUnits="userSpaceOnUse" x="0" y="13" width="5" height="16">
<path d="M0.103516 13.8096H4.91133V28.5874H0.103516V13.8096Z" fill="white"/>
</mask>
<g mask="url(#mask4_975_4484)">
<path d="M2.21671 15.8785C1.98946 15.8785 1.78285 15.9757 1.62938 16.1307C1.47886 16.2886 1.38442 16.5044 1.38442 16.7383V25.7314C1.38442 25.9684 1.47886 26.184 1.62938 26.339C1.78285 26.4939 1.98946 26.5912 2.21671 26.5912C2.44397 26.5912 2.65352 26.4939 2.80404 26.339C2.95456 26.184 3.049 25.9684 3.049 25.7314V16.7383C3.049 16.5044 2.95456 16.2886 2.80404 16.1307C2.65352 15.9757 2.44397 15.8785 2.21671 15.8785ZM2.21671 14.5508C2.80109 14.5508 3.32938 14.7969 3.71011 15.1949C4.0938 15.5899 4.33285 16.1367 4.33285 16.7383V25.7314C4.33285 26.3329 4.0938 26.8798 3.71011 27.2778C3.32938 27.6727 2.80109 27.9189 2.21671 27.9189C1.63529 27.9189 1.10699 27.6727 0.723307 27.2778C0.339627 26.8798 0.103516 26.3329 0.103516 25.7314V16.7383C0.103516 16.1367 0.339627 15.5899 0.723307 15.1949C1.10699 14.7969 1.63529 14.5508 2.21671 14.5508Z" fill="url(#paint7_linear_975_4484)"/>
</g>
</g>
<defs>
<linearGradient id="paint0_linear_975_4484" x1="6.25018" y1="16.7641" x2="29.9266" y2="31.1562" gradientUnits="userSpaceOnUse">
<stop offset="0.00399963" stop-color="#F57A78"/>
<stop offset="0.229" stop-color="#F94F63"/>
<stop offset="0.539" stop-color="#B73CB7"/>
<stop offset="1" stop-color="#7B5BDD"/>
</linearGradient>
<linearGradient id="paint1_linear_975_4484" x1="6.10439" y1="2.42983" x2="20.2428" y2="18.7081" gradientUnits="userSpaceOnUse">
<stop offset="0.00399963" stop-color="#F57A78"/>
<stop offset="0.229" stop-color="#F94F63"/>
<stop offset="0.539" stop-color="#B73CB7"/>
<stop offset="1" stop-color="#7B5BDD"/>
</linearGradient>
<linearGradient id="paint2_linear_975_4484" x1="8.93252" y1="0.685765" x2="12.0902" y2="2.81826" gradientUnits="userSpaceOnUse">
<stop offset="0.00399963" stop-color="#F57A78"/>
<stop offset="0.229" stop-color="#F94F63"/>
<stop offset="0.539" stop-color="#B73CB7"/>
<stop offset="1" stop-color="#7B5BDD"/>
</linearGradient>
<linearGradient id="paint3_linear_975_4484" x1="21.706" y1="0.685765" x2="24.8636" y2="2.8183" gradientUnits="userSpaceOnUse">
<stop offset="0.00399963" stop-color="#F57A78"/>
<stop offset="0.229" stop-color="#F94F63"/>
<stop offset="0.539" stop-color="#B73CB7"/>
<stop offset="1" stop-color="#7B5BDD"/>
</linearGradient>
<linearGradient id="paint4_linear_975_4484" x1="10.4603" y1="7.76634" x2="12.7893" y2="9.33862" gradientUnits="userSpaceOnUse">
<stop offset="0.00399963" stop-color="#F57A78"/>
<stop offset="0.229" stop-color="#F94F63"/>
<stop offset="0.539" stop-color="#B73CB7"/>
<stop offset="1" stop-color="#7B5BDD"/>
</linearGradient>
<linearGradient id="paint5_linear_975_4484" x1="20.9661" y1="7.76634" x2="23.2951" y2="9.33862" gradientUnits="userSpaceOnUse">
<stop offset="0.00399963" stop-color="#F57A78"/>
<stop offset="0.229" stop-color="#F94F63"/>
<stop offset="0.539" stop-color="#B73CB7"/>
<stop offset="1" stop-color="#7B5BDD"/>
</linearGradient>
<linearGradient id="paint6_linear_975_4484" x1="29.5347" y1="15.6732" x2="35.0465" y2="16.8917" gradientUnits="userSpaceOnUse">
<stop offset="0.00399963" stop-color="#F57A78"/>
<stop offset="0.229" stop-color="#F94F63"/>
<stop offset="0.539" stop-color="#B73CB7"/>
<stop offset="1" stop-color="#7B5BDD"/>
</linearGradient>
<linearGradient id="paint7_linear_975_4484" x1="0.335304" y1="15.6732" x2="5.84355" y2="16.89" gradientUnits="userSpaceOnUse">
<stop offset="0.00399963" stop-color="#F57A78"/>
<stop offset="0.229" stop-color="#F94F63"/>
<stop offset="0.539" stop-color="#B73CB7"/>
<stop offset="1" stop-color="#7B5BDD"/>
</linearGradient>
<clipPath id="clip0_975_4484">
<rect width="34" height="42" fill="white"/>
</clipPath>
</defs>
</svg>

