<svg width="21" height="41" viewBox="0 0 21 41" xmlns="http://www.w3.org/2000/svg">
<mask id="mask0_997_5388" style="mask-type:luminance" maskUnits="userSpaceOnUse" x="0" y="0" width="21" height="41">
<path d="M0 0.5H20.5V40.9306H0V0.5Z" fill="white"/>
</mask>
<g mask="url(#mask0_997_5388)">
<path fill-rule="evenodd" clip-rule="evenodd" d="M9.60936 5.75297H7.55702C7.31678 5.75297 7.10027 5.61654 6.99054 5.403C6.87785 5.18649 6.89562 4.92549 7.03205 4.72678L9.72507 0.823713C9.84665 0.648726 10.0394 0.544922 10.25 0.544922C10.4576 0.544922 10.6534 0.648726 10.775 0.823713L13.465 4.72678C13.6014 4.92549 13.6192 5.18649 13.5065 5.403C13.3968 5.61654 13.1803 5.75297 12.94 5.75297H10.8906V23.0765L16.855 17.1567C17.1367 16.8779 17.2969 16.4923 17.2969 16.0919V13.5591H16.0156C15.6597 13.5591 15.375 13.2685 15.375 12.9096V9.00651C15.375 8.64468 15.6597 8.35403 16.0156 8.35403H19.8594C20.2153 8.35403 20.5 8.64468 20.5 9.00651V12.9096C20.5 13.2685 20.2153 13.5591 19.8594 13.5591H18.5781V16.0919C18.5781 16.8423 18.2786 17.563 17.7506 18.0879L10.8906 24.8976V35.7674C11.9939 36.0551 12.8125 37.0754 12.8125 38.2884C12.8125 39.7239 11.6618 40.8895 10.25 40.8895C8.83531 40.8895 7.68749 39.7239 7.68749 38.2884C7.68749 37.0754 8.5031 36.0551 9.60936 35.7674V30.7522L2.74638 23.9455C2.21846 23.4176 1.92188 22.6999 1.92188 21.9466V19.3336C0.815612 19.0459 0 18.0257 0 16.8126C0 15.3772 1.14779 14.2116 2.5625 14.2116C3.97425 14.2116 5.125 15.3772 5.125 16.8126C5.125 18.0257 4.30643 19.0459 3.20313 19.3336V21.9466C3.20313 22.3499 3.36328 22.7325 3.64504 23.0143L9.60936 28.9341V5.75297ZM10.25 36.9864C10.9559 36.9864 11.5312 37.5677 11.5312 38.2884C11.5312 39.0061 10.9559 39.5874 10.25 39.5874C9.54114 39.5874 8.96873 39.0061 8.96873 38.2884C8.96873 37.5677 9.54114 36.9864 10.25 36.9864ZM2.5625 15.5136C3.26837 15.5136 3.84375 16.0949 3.84375 16.8126C3.84375 17.5334 3.26837 18.1147 2.5625 18.1147C1.85366 18.1147 1.28125 17.5334 1.28125 16.8126C1.28125 16.0949 1.85366 15.5136 2.5625 15.5136ZM16.6562 9.65601V12.2601H19.2187V9.65601H16.6562ZM8.78782 4.45095H11.7092L10.25 2.33037L8.78782 4.45095Z" fill="url(#paint0_linear_997_5388)"/>
</g>
<defs>
<linearGradient id="paint0_linear_997_5388" x1="1.1235" y1="3.93234" x2="25.9946" y2="12.7566" gradientUnits="userSpaceOnUse">
<stop offset="0.00399963" stop-color="#F57A78"/>
<stop offset="0.229" stop-color="#F94F63"/>
<stop offset="0.539" stop-color="#B73CB7"/>
<stop offset="1" stop-color="#7B5BDD"/>
</linearGradient>
</defs>
</svg>

