<svg width="90" height="90" viewBox="0 0 90 90" fill="none" xmlns="http://www.w3.org/2000/svg">
    <path fill-rule="evenodd" clip-rule="evenodd" d="M90 41.2872L87.2142 28.9717L77.7801 31.1052C76.9978 29.2586 76.0758 27.4978 75.0188 25.8425L82.1158 19.285L73.54 10.0128L66.4381 16.5801C64.8539 15.3858 63.1766 14.3264 61.4183 13.4117L64.2874 4.17385L52.2245 0.429155L49.3602 9.65722C47.4131 9.4169 45.4292 9.34332 43.4232 9.43405L41.2897 0L28.9716 2.78828L31.1077 12.2223C29.2586 13.0022 27.5002 13.9218 25.8449 14.9787L19.2874 7.8842L10.0128 16.4575L16.5826 23.5618C15.3859 25.1436 14.3289 26.8234 13.4117 28.5818L4.17385 25.715L0.429155 37.7755L9.6548 40.6398C9.41692 42.5869 9.34332 44.5733 9.43405 46.5769L0 48.7128L2.79071 61.0283L12.2224 58.8924C13.0022 60.7414 13.9243 62.5022 14.9812 64.155L7.88417 70.715L16.46 79.9872L23.5619 73.4199C25.1461 74.6142 26.8259 75.6736 28.5818 76.5883L25.7175 85.8261L37.7755 89.5708L40.6398 80.3452C42.5869 80.5856 44.5708 80.6567 46.5768 80.5659L48.7103 90L61.0283 87.2117L58.8923 77.7777C60.7414 76.9978 62.5022 76.0782 64.1575 75.0213L70.7126 82.1158L79.9872 73.5425L73.4174 66.4382C74.6141 64.8564 75.6711 63.1766 76.5883 61.4183L85.8261 64.285L89.5708 52.2245L80.3452 49.3602C80.5831 47.4131 80.6566 45.4267 80.5659 43.4231L90 41.2872ZM48.9286 62.3649C26.0166 67.1395 18.336 33.1872 41.0714 27.6351C63.9834 22.858 71.664 56.8104 48.9286 62.3649Z" fill="#FF9831"/>
</svg>

