<svg width="154" height="154" viewBox="0 0 154 154" fill="none" xmlns="http://www.w3.org/2000/svg">
    <path fill-rule="evenodd" clip-rule="evenodd" d="M154 70.647L149.233 49.5737L133.09 53.2244C131.752 50.0647 130.174 47.0518 128.366 44.2194L140.509 32.9988L125.835 17.133L113.683 28.3704C110.972 26.3269 108.102 24.5141 105.094 22.9489L110.003 7.14192L89.3619 0.734332L84.4608 16.5246C81.1291 16.1134 77.7344 15.9875 74.3019 16.1427L70.6512 0L49.5737 4.77106L53.2286 20.9138C50.0647 22.2482 47.056 23.8217 44.2236 25.6303L33.003 13.4907L17.1331 28.1606L28.3747 40.3169C26.3269 43.0235 24.5183 45.8979 22.9489 48.9066L7.14192 44.0012L0.734332 64.6381L16.5204 69.5392C16.1134 72.8709 15.9875 76.2699 16.1427 79.6982L0 83.353L4.77521 104.426L20.9138 100.771C22.2482 103.935 23.826 106.948 25.6345 109.776L13.4907 121.001L28.1648 136.867L40.317 125.63C43.0277 127.673 45.9021 129.486 48.9066 131.051L44.0054 146.858L64.6381 153.266L69.5392 137.48C72.8709 137.891 76.2656 138.013 79.6981 137.857L83.3488 154L104.426 149.229L100.771 133.086C103.935 131.752 106.948 130.178 109.781 128.37L120.997 140.509L136.867 125.839L125.625 113.683C127.673 110.977 129.482 108.102 131.051 105.093L146.858 109.999L153.266 89.3619L137.48 84.4608C137.887 81.1291 138.012 77.7301 137.857 74.3018L154 70.647ZM83.7223 106.713C44.5173 114.883 31.3749 56.7869 70.2777 47.2868C109.483 39.1126 122.625 97.2089 83.7223 106.713Z" fill="#FF9831"/>
</svg>

