<svg width="75" height="75" viewBox="0 0 75 75" fill="none" xmlns="http://www.w3.org/2000/svg">
    <path fill-rule="evenodd" clip-rule="evenodd" d="M75 36.4215L71.812 22.4226L63.7258 24.2416C62.52 21.8881 61.0126 19.7395 59.2626 17.8337L63.7332 10.7908L51.5189 3.13179L47.2164 9.91004C44.3666 8.91318 41.3435 8.34519 38.2458 8.26674L36.3635 0L22.2773 3.16841L24.1607 11.4351C21.5945 12.7333 19.2721 14.3839 17.2374 16.3107L10.8214 12.2877L3.11659 24.4278L9.53256 28.4498C8.65861 31.1036 8.15966 33.8985 8.08613 36.7584L0 38.5785L3.18804 52.5774L11.2752 50.7573C12.6807 53.5031 14.4979 55.9697 16.6302 58.0973L12.3288 64.8745L24.5431 72.5335L29.0137 65.4906C31.4968 66.2385 34.0977 66.6663 36.7553 66.7333L38.6365 75L52.7227 71.8305L50.8393 63.5648C53.4055 62.2667 55.7279 60.6161 57.7626 58.6893L65.2405 63.3776L72.9454 51.2385L65.4674 46.5502C66.3414 43.8964 66.8403 41.1015 66.9139 38.2406L75 36.4215ZM41.2479 50.0732C24.6544 54.8504 17.2647 29.8818 33.7542 24.9257C50.3466 20.1485 57.7353 45.1182 41.2479 50.0732Z" fill="#D74F8C"/>
</svg>

