<svg width="52" height="52" viewBox="0 0 52 52" fill="none" xmlns="http://www.w3.org/2000/svg">
    <path fill-rule="evenodd" clip-rule="evenodd" d="M52 22.1132L51.1375 18.3113L47.7793 19.0724C46.9443 16.4391 45.6661 14.0503 44.0454 11.9692L46.5732 9.63434L43.9263 6.77148L41.3984 9.10977C39.4055 7.29723 37.1055 5.84626 34.6121 4.82922L35.6326 1.54049L31.9101 0.384545L30.8919 3.66984C28.3148 3.10393 25.6083 2.97881 22.8743 3.35991L22.1138 0L18.3111 0.860927L19.0716 4.22084C16.4384 5.05422 14.0492 6.33298 11.9692 7.95382L9.63376 5.42729L6.77147 8.07321L9.11031 10.602C7.29719 12.5937 5.84598 14.8929 4.82889 17.3873L1.53938 16.3657L0.383712 20.0883L3.66978 21.1088C3.10511 23.6847 2.97913 26.3914 3.36054 29.1269L0 29.8868L0.860177 33.6887L4.22072 32.9276C5.05455 35.5609 6.33391 37.9497 7.95233 40.0308L5.42677 42.3668L8.07374 45.2285L10.6016 42.8902C12.5945 44.7028 14.8922 46.1537 17.3879 47.1708L16.3651 50.4607L20.0899 51.6154L21.1081 48.3302C23.6852 48.8961 26.3917 49.0212 29.1257 48.6401L29.8862 52L33.6878 51.1391L32.9284 47.7792C35.5593 46.9458 37.9485 45.667 40.0297 44.0473L42.3651 46.5727L45.2263 43.9268L42.8897 41.398C44.7028 39.4063 46.154 37.1071 47.17 34.6127L50.4583 35.6343L51.614 31.9117L48.3279 30.8912C48.8949 28.3153 49.0209 25.6086 48.6395 22.8731L52 22.1132ZM29.2803 40.4923C10.1572 44.4778 3.74653 16.1418 22.7197 11.5077C41.8428 7.52221 48.2523 35.8582 29.2803 40.4923Z" fill="#F57A78"/>
</svg>

