<svg width="121" height="121" viewBox="0 0 121 121" fill="none" xmlns="http://www.w3.org/2000/svg">
    <path fill-rule="evenodd" clip-rule="evenodd" d="M121 51.4557L118.993 42.6091L111.179 44.38C109.236 38.2525 106.261 32.694 102.49 27.8514L108.372 22.4184L102.213 15.7567L96.3309 21.1977C91.6935 16.9801 86.3417 13.6038 80.5396 11.2372L82.9143 3.5846L74.2524 0.894806L71.883 8.53944C65.8864 7.2226 59.5885 6.93146 53.2267 7.81826L51.457 0L42.6086 2.00331L44.3782 9.82157C38.2509 11.7608 32.6913 14.7364 27.8513 18.5079L22.417 12.6289L15.7567 18.7857L21.199 24.6701C16.98 29.3045 13.6031 34.6546 11.2365 40.4589L3.58201 38.0816L0.892867 46.7439L8.53931 49.1185C7.22536 55.1124 6.9322 61.4108 7.81972 67.776L0 69.5443L2.00157 78.3909L9.82128 76.62C11.7615 82.7475 14.7385 88.306 18.5045 93.1486L12.6277 98.5843L18.787 105.243L24.6691 99.8023C29.3065 104.02 34.6529 107.396 40.4604 109.763L38.0803 117.418L46.7476 120.105L49.1169 112.461C55.1136 113.777 61.4115 114.069 67.7733 113.182L69.543 121L78.3888 118.997L76.6218 111.178C82.7437 109.239 88.3033 106.264 93.146 102.495L98.5803 108.371L105.238 102.214L99.801 96.3299C104.02 91.6955 107.397 86.3454 109.761 80.5411L117.413 82.9184L120.102 74.2561L112.455 71.8815C113.775 65.8876 114.068 59.5892 113.18 53.224L121 51.4557ZM68.1331 94.2224C23.6349 103.496 8.71789 37.5607 52.8669 26.7776C97.3651 17.5036 112.279 83.4393 68.1331 94.2224Z" fill="#7B5BDD"/>
</svg>

