<svg width="96" height="96" viewBox="0 0 96 96" fill="none" xmlns="http://www.w3.org/2000/svg">
    <path fill-rule="evenodd" clip-rule="evenodd" d="M96 46.6196L91.9193 28.7009L81.5691 31.0293C80.0255 28.0167 78.0962 25.2666 75.8562 22.8271L81.5785 13.8122L65.9442 4.0087L60.437 12.6849C56.7892 11.4089 52.9197 10.6818 48.9546 10.5814L46.5452 0L28.515 4.05557L30.9257 14.637C27.641 16.2986 24.6682 18.4114 22.0639 20.8777L13.8514 15.7282L3.98923 31.2676L12.2017 36.4157C11.083 39.8125 10.4444 43.3901 10.3503 47.0507L0 49.3804L4.08069 67.2991L14.4322 64.9694C16.2312 68.484 18.5573 71.6412 21.2867 74.3645L15.7809 83.0393L31.4151 92.8428L37.1375 83.828C40.316 84.7853 43.6451 85.3329 47.0467 85.4186L49.4548 96L67.485 91.9431L65.0743 81.363C68.359 79.7014 71.3318 77.5886 73.9361 75.1224L83.5079 81.1233L93.3701 65.5853L83.7983 59.5843C84.917 56.1875 85.5556 52.6099 85.6498 48.948L96 46.6196ZM52.7973 64.0937C31.5577 70.2085 22.0988 38.2487 43.2054 31.9049C64.4437 25.7901 73.9012 57.7513 52.7973 64.0937Z" fill="#7B5BDD"/>
</svg>

