<svg width="62" height="62" viewBox="0 0 62 62" fill="none" xmlns="http://www.w3.org/2000/svg">
    <path fill-rule="evenodd" clip-rule="evenodd" d="M61.2617 26.0518L60.2456 21.5728L56.2892 22.4694C55.3055 19.3671 53.7996 16.5528 51.8903 14.101L54.8684 11.3503L51.7499 7.97754L48.7719 10.7323C46.4239 8.59694 43.7144 6.88754 40.7768 5.68935L41.9791 1.81487L37.5936 0.453036L36.394 4.32347C33.3579 3.65676 30.1693 3.50936 26.9484 3.95835L26.0524 0L21.5725 1.01427L22.4685 4.97261C19.3662 5.95442 16.5514 7.46095 14.101 9.37047L11.3496 6.39394L7.97753 9.51112L10.7329 12.4904C8.59688 14.8367 6.8872 17.5455 5.68896 20.4841L1.81355 19.2805L0.452054 23.6662L4.32341 24.8684C3.65816 27.9031 3.50974 31.092 3.95908 34.3147L0 35.2099L1.01338 39.6889L4.97247 38.7923C5.95481 41.8946 7.46204 44.7089 9.36871 47.1607L6.39333 49.9127L9.51175 53.2841L12.4898 50.5294C14.8377 52.6647 17.5446 54.3741 20.4849 55.5723L19.2799 59.4482L23.668 60.8086L24.8677 56.9382C27.9038 57.6049 31.0923 57.7523 34.3133 57.3033L35.2093 61.2617L39.6879 60.2474L38.7932 56.2891C41.8927 55.3073 44.7075 53.8007 47.1594 51.8926L49.9107 54.8677L53.2815 51.7506L50.5287 48.7713C52.6648 46.425 54.3745 43.7162 55.5714 40.7776L59.4454 41.9811L60.8069 37.5955L56.9356 36.3932C57.6035 33.3586 57.7519 30.1697 57.3026 26.947L61.2617 26.0518ZM34.4954 47.7043C11.9663 52.3997 4.41383 19.0168 26.7662 13.5574C49.2954 8.86198 56.8465 42.2449 34.4954 47.7043Z" fill="#F57A78"/>
</svg>

