<svg xmlns="http://www.w3.org/2000/svg" width="18" height="44" viewBox="0 0 18 44" fill="none">
    <path d="M8.53609 25.4725C8.77886 25.6353 9.10969 25.5453 9.23542 25.2754C10.2783 23.0258 10.8647 20.5106 10.8647 17.8582C10.8647 16.5342 10.7181 15.2444 10.4417 14.006C10.3832 13.7532 10.1486 13.5861 9.89304 13.6247C9.61667 13.6675 9.43647 13.9418 9.495 14.2246C9.75457 15.3944 9.89304 16.6113 9.89304 17.8582C9.89304 20.3605 9.34435 22.7301 8.35995 24.8511C8.25971 25.0739 8.33098 25.3353 8.53203 25.4725H8.53609ZM11.8949 21.4146C12.1672 21.4875 12.4436 21.3118 12.494 21.029C12.6823 20.0006 12.779 18.9423 12.779 17.8582C12.779 16.427 12.607 15.0345 12.2848 13.7018C12.2257 13.4533 11.987 13.2905 11.7402 13.3333C11.4597 13.3762 11.2796 13.659 11.3462 13.9418C11.6481 15.1972 11.8074 16.5084 11.8074 17.8625C11.8074 18.8823 11.7147 19.8806 11.5391 20.8533C11.4928 21.1062 11.648 21.3546 11.8908 21.4189L11.8949 21.4146ZM7.09917 8.58139C6.71793 8.58139 6.40853 8.89845 6.40853 9.28836C6.40853 9.67833 6.71793 9.99539 7.09917 9.99539C7.48042 9.99539 7.7904 9.67833 7.7904 9.28836C7.7904 8.89845 7.48042 8.58139 7.09917 8.58139ZM16.8795 0.812847C16.8041 0.872839 16.7282 0.932825 16.6529 0.997097C15.2247 2.1883 14.0398 3.67088 13.1933 5.35913C13.5995 5.89046 13.9013 6.53321 14.0943 7.2659C14.3411 8.21715 14.3788 9.2755 14.2281 10.3724C15.1957 11.1309 15.9032 12.1207 16.3389 13.3376C18.1188 18.3338 14.559 25.4982 13.4239 27.5764C12.0334 30.1258 10.6973 31.9127 9.38607 32.971C9.37795 32.9539 9.97242 34.6935 9.97242 37.303C9.97242 39.0513 9.7592 43.1219 7.7904 43.1219C7.18318 43.1219 6.74342 42.7363 6.42475 42.1493C6.03539 42.7363 5.53305 43.1348 4.90035 43.1348C4.85457 43.1348 4.80417 43.1348 4.75781 43.1262C2.45411 42.8863 2.82725 37.9286 2.92343 36.9389C2.97789 36.3989 3.183 34.6378 3.75718 33.2196C2.45875 32.2169 1.4616 30.4387 0.92565 28.0562C0.255283 25.0739 0.150991 21.3418 0.812667 17.9353C0.514855 17.434 0.292945 16.8598 0.159103 16.2214C-0.33107 13.9161 0.32655 11.0581 1.92222 8.58139C3.83656 5.60765 6.90681 3.61089 9.5622 3.61089C10.0188 3.61089 10.4585 3.67088 10.8688 3.78228C12.1591 1.98691 14.0352 0.65859 16.205 0.0844151C16.3053 0.0587057 16.4061 0.0329962 16.511 0.0115717C16.9716 -0.0912659 17.252 0.51719 16.8835 0.812847H16.8795ZM14.2826 1.95692C11.8868 3.3795 10.2158 5.95042 9.99328 8.92418C9.97242 9.20698 9.7256 9.42119 9.44053 9.38267C9.18096 9.34408 9.00945 9.09554 9.03031 8.82987C9.1433 7.32162 9.59581 5.91188 10.2992 4.67354C10.0605 4.63069 9.81773 4.60498 9.55815 4.60498C7.21679 4.60498 4.46927 6.42177 2.72643 9.12986C1.2733 11.388 0.662023 13.9632 1.10179 16.0157C1.1267 16.1271 1.15162 16.2385 1.18523 16.3499C1.41119 15.5401 1.68351 14.7602 2.01029 14.0275C2.14008 13.7361 2.50858 13.6461 2.76004 13.8561C2.93212 14.0018 2.97789 14.2546 2.88577 14.4603C1.20203 18.2738 0.921594 23.6385 1.86776 27.842C2.34982 29.9887 3.18763 31.4842 4.20506 32.3326L4.50229 32.5554C4.77055 32.7568 4.86674 33.121 4.72884 33.4295C4.34354 34.3036 4.0295 35.5934 3.88697 37.0502C3.61871 39.784 4.05036 42.0679 4.85457 42.1536C5.23524 42.1922 5.63329 41.7293 5.97282 40.9367C5.66284 39.6897 5.60432 38.2029 5.60432 37.3159C5.60432 36.4289 5.66283 34.8092 6.01453 33.5281C6.08985 33.2453 6.39578 33.091 6.6681 33.2024C6.90275 33.2967 7.01573 33.5709 6.94852 33.8194C6.71792 34.6979 6.57133 35.9404 6.57133 37.3159C6.57133 39.9811 7.11598 42.1407 7.78229 42.1407C8.44802 42.1407 8.99265 39.9811 8.99265 37.3159C8.99265 35.4863 8.73714 33.8966 8.35995 33.0781C8.25102 32.8425 8.32229 32.5596 8.5274 32.3969L8.90459 32.1012C10.1943 31.0085 11.4429 29.1746 12.5734 27.1093C15.0909 22.503 17.7294 15.0045 14.0103 11.4994C14.0016 11.5422 13.9894 11.5808 13.9807 11.6237C13.9013 11.9279 13.5664 12.0907 13.2814 11.9321C13.0803 11.8208 12.9923 11.5765 13.0514 11.3537C13.4071 9.99966 13.4529 8.67564 13.1557 7.53584C13.0514 7.1288 12.9001 6.76029 12.7159 6.43037C12.0751 8.02432 11.7193 9.76831 11.7193 11.5979C11.7193 11.6922 11.7193 11.7865 11.7193 11.8807C11.7274 12.1721 11.4928 12.4121 11.2042 12.3906C10.9528 12.3735 10.7558 12.1507 10.7517 11.8893C10.7517 11.7908 10.7517 11.6965 10.7517 11.5979C10.7517 7.91295 12.0838 4.545 14.2826 1.97406V1.95692Z" fill="white"/>
</svg>