<svg width="1000" height="410" xmlns="http://www.w3.org/2000/svg" xmlns:xlink="http://www.w3.org/1999/xlink">
 <defs>
  <path id="continents" d="m136.4,19.7c-2.8,-0.1 -5.4,0.4 -7.9,1.5c0.5,0.5 1.1,1 1.9,1.3c2.5,1.4 5.5,1.9 8.7,1.4c2.6,0.2 5.2,0.7 7.7,1.4c0.5,0.2 0.9,0.5 1.2,1c1.1,2.9 3.2,4.4 6,5c-0.3,0.2 -0.5,0.5 -0.8,1c0,0 0.1,0.1 0.2,0.1c0.2,0.2 0.5,0.4 0.7,0.5c0.2,0.2 0.3,0.4 0.3,0.7c-2.9,1.2 -3.3,3.1 -1.4,5.4c0.3,0.4 0.6,0.8 0.9,1.2c1,1.9 2.5,3.1 4.4,3.9c2.5,0.9 5.2,1.8 7.7,2.5c1.3,-1.6 2.4,-3.4 3.3,-5.4c0.3,-0.8 0.9,-1.2 1.5,-1.5c1.8,-1 3.6,-1.8 5.7,-2.4c1,-0.3 2,-0.7 3,-0.9c4.5,-0.3 8.6,-1.7 12.5,-4l-0.1,-1.3c-1.9,-0.4 -3.2,-1.2 -4,-2.2l4.7,-1l0.4,-0.9l1.9,-0.2c0.1,-0.2 0.2,-0.3 0.2,-0.5c0.2,-0.5 0,-1.1 -0.4,-1.5c0.5,-0.1 0.9,-0.2 1.4,-0.3c1.1,-0.3 1.7,-1.1 1.7,-2.2l-2.4,-0.3l0.2,-0.8l1.2,-0.7l-0.9,-1c2.2,0.2 4,-0.4 5.4,-2.1l-0.6,-0.3c-3.4,0.1 -6.9,0.6 -10.3,1.3l-0.9,-1.1c-9.2,-0.4 -18.1,-0.9 -27.1,-0.8c-0.7,0.2 -1.5,0.2 -2.2,0.2c-2.2,0.3 -4.3,0.4 -6.4,0.3c-1.8,-0.1 -3.5,0 -5.2,0.2c-4.3,0.9 -8.6,1.2 -13,1.1l0.8,1.4zm96.6,48.9l-0.1,0.4l1.3,0.9l0.2,-1.5c-0.6,-0.1 -1.1,0 -1.4,0.2zm-36.8,-31.1l-0.6,0.6c-1.4,-0.9 -3,-1.1 -4.6,-0.7c-0.8,1.3 -0.4,2.5 1,3.5c2.1,1.5 4.3,1.8 6.9,0.9c0.7,-0.2 1.2,-0.4 1.8,-0.9c2.1,-1.4 1.9,-2.5 -0.3,-3.5l-4.2,0.1zm45.9,39.5l0.2,-2l-0.4,-0.7l-3.6,0.3l3.1,2.2l0.7,0.2zm26.3,1.2l-1,-0.2l-2.1,0.2l0.1,0.7c1.1,0.2 2.1,0 3,-0.7zm-146.3,-49.2c-1.5,-0.5 -3.2,-1 -4.8,-1.2c-3.3,-0.4 -6.7,-0.4 -10,0.1c-1.6,-0.1 -2.6,0.6 -3.3,2.2c-0.1,0.2 -0.1,0.4 -0.1,0.7c4.3,0.9 8.8,1.2 13.2,1.1c3.1,-0.2 5.7,0.7 8,2.9l-0.1,0.6l-1.2,0.9l-3.3,-0.5l-1.9,2.5l0.4,0.6c4.3,-0.2 8.4,0.3 12.2,1.9c0.8,0.2 1.4,0.3 2.2,0.4c1.2,-0.2 2.3,-0.5 3.3,-1.1l0.1,-0.7l-3.1,-2.3c2.2,0.1 4.3,-0.2 6.3,-0.9c-5.8,-3 -11.9,-5.3 -17.9,-7.2zm134,48.8l-3.5,-0.2l0.4,1.1l3.2,-0.1l-0.1,-0.8zm-107.6,-19.4c0.2,-0.3 0.2,-0.9 0.2,-1.3l-1.2,0l-3.7,5.7c3,1.2 6,1.3 9,0.5c-0.5,-2.2 -1.9,-3.6 -4.1,-4c-0.2,-0.1 -0.4,-0.3 -0.6,-0.4l0,-0.2c0.2,0.2 0.3,-0.1 0.4,-0.3zm-59.6,-36.2c2,0.9 3.6,0.7 5.2,-0.4c-1.5,-0.8 -3,-1.1 -4.8,-0.9c-0.4,0.2 -0.7,0.6 -0.5,1.1c-0.1,0 0,0.1 0.1,0.2zm0.3,3.3c1.9,0.2 3.6,0.2 5.4,-0.4c1.3,1 2.5,1.2 3.7,0.5l0,-0.3c0,-1.2 0.6,-2.1 1.4,-2.6c-0.8,-1.3 -1.9,-1.9 -3.3,-1.9l-0.6,1.5l-0.2,1.2c-1.7,0.1 -3.3,0.3 -5,0.7c-0.3,0.1 -0.8,0 -1,-0.2c-1.9,-0.9 -3.1,-0.5 -3.4,1.2c0.1,0.1 0.3,0.2 0.5,0.3c0.9,0.2 1.6,0.2 2.5,0zm20.5,14l-0.1,1.6l-0.9,1.1c1.2,0.2 2.4,0.4 3.6,0.7c0.8,-0.8 1.8,-1 2.9,-1c0.8,0.2 1.5,0.2 2.3,0.2l-0.3,-0.7c-2.4,-1.1 -4.8,-1.9 -7.4,-2.3l-0.1,0.4zm-0.8,-18.7c-0.1,-0.2 -0.1,-0.3 -0.2,-0.5c-0.3,-0.7 -0.8,-1 -1.5,-1c-2.5,-0.9 -5,-0.7 -7.3,0.4l0.1,1.2c2.9,1.4 5.8,1.4 8.9,-0.1zm-17.6,10.1c0.6,0 1.1,-0.1 1.7,-0.2l0.2,-1.5l-1.2,-0.4l1.2,-0.8c-1.3,-0.4 -2.5,-0.5 -4,-0.5c-0.2,0 -0.4,0.2 -0.7,0.2l0.2,1.3l-1.9,0.4c1.3,1.1 2.8,1.5 4.5,1.5zm23.7,-4.8l0.2,-0.3c-0.3,-0.6 -0.8,-0.8 -1.3,-0.8c-4.3,-0.1 -8.8,-0.2 -13.2,-0.2c0.3,0.3 0.6,0.5 1,0.7c4.3,1.5 8.7,1.7 13.3,0.6zm-17.8,1.7c-1.3,0.9 -1.5,1.8 -0.9,2.4l1.2,-0.1c0.2,-0.1 0.3,-0.2 0.4,-0.3c1.7,-0.1 3,-0.8 4,-1.9l-2,-0.4c-1,-0.3 -2,-0.2 -2.7,0.3zm10.2,-3.9c0.6,0.4 1.3,0.7 2.2,0.5c0.7,-0.2 1.3,-0.2 2.1,0c3,0.4 5.6,-0.3 8.1,-2c0.5,-0.3 1.1,-0.7 1.8,-0.9c5,-1.4 9.9,-3 15,-4.3l-4.4,-0.2c-2.3,0.2 -4.6,0.2 -6.9,-0.2c-5.7,-0.1 -11.2,0.5 -16.4,1.9l0.9,2.9l-2.4,2.3zm223.1,90.9l0,-0.4l-2.5,-3.3c-0.9,0.9 -1.2,1.9 -1.2,3c0,1.2 0.6,2.1 1.7,2.4l2,-1.7zm-97.4,-41.2l1.7,-0.7l0.2,-1.7l-0.3,-0.5l-1.8,0c-0.4,0.9 -0.1,1.9 0.2,2.9zm74.1,-54.7l-3.2,0.9l3.2,0.2l0,-1.1zm-3.3,-0.3c-1.5,-0.5 -3,-0.2 -3.9,1.1c-0.2,0.2 -0.3,0.2 -0.4,0.4c1.8,0.6 3.3,0.1 4.3,-1.5zm-23.4,136.6c0.3,1.5 1.2,2.1 3,1.6c1.4,-1.6 2.2,-3.6 2.6,-5.6c0.7,-3.3 1.2,-6.5 1.6,-9.8c0.1,-0.9 -0.3,-1.5 -1.1,-1.8l-7.3,6.9c0.6,2 0.8,4 0.7,6.1c0.1,1 0.2,1.8 0.5,2.6zm-71,-97.6c1.5,-0.2 2.8,-0.7 3.9,-1.3c0,-0.2 0,-0.3 0.1,-0.5c0.2,-1.2 0.4,-2.2 0.6,-2.9l-2.5,-0.6l-0.5,0.1l-0.7,1.2l-2.1,0.5l0,0.5c0.1,0.6 0,1 -0.2,1.4c-0.4,0.5 -0.4,1 -0.2,1.4c0.4,0.4 1.1,0.4 1.6,0.2zm8.2,-3l-2.1,0.8l-0.9,2.1l0.5,0.9l-0.4,1.4l8,-1.9l1,-2.2c-3,-1.1 -4.4,-3 -4.6,-5.7c0,-0.4 0.1,-0.8 0.2,-1.1l-2.1,-0.5l-0.7,-0.9l-0.4,-0.1c-1.4,0.7 -2.1,1.9 -2.1,3.5c0.8,1.6 1.9,2.8 3.6,3.7zm80.8,-35.5l-2,0l-0.4,-0.3c-1.2,0 -2.2,0.1 -3.2,0.5c0,0 0,0.1 0,0.2c1.9,0.2 3.9,0.4 5.5,0.4l0.1,-0.8zm-8.3,11.9l10.1,0.8l-0.2,-0.4c-1.4,-0.1 -2.8,-0.8 -3.7,-1.9c1.5,-2.1 3.6,-3.3 6.6,-3.6c3,-0.2 5.7,-0.4 8.6,-1c-0.1,-0.2 -0.2,-0.4 -0.5,-0.4c-5.5,0 -10.9,0.7 -16.2,2.1c-1.5,0.4 -2.9,1.3 -3.7,2.8c-0.6,0.4 -0.7,1 -1,1.6zm-51.6,-9.2l5.7,1.4l1.4,-1.1l6.3,0.1l-1.4,-0.9c1.6,0.2 3,-0.1 3.9,-1c-2.5,-0.8 -5.2,-1 -7.8,-0.6l-0.9,1.1l-1.2,-0.2l-0.9,1l-1.6,-0.1l-0.1,-0.2c0.2,-0.1 0.2,-0.1 0.5,-0.2l0.2,-0.6l-1.1,-0.5l-1.6,0.9l-1.5,-0.5l-0.4,0.1l-0.2,0.4l0.2,0.6l0.5,0.3zm53,-1.7c-0.2,-0.1 -0.2,-0.2 -0.3,-0.2c-3.2,-1.1 -6.2,-1.2 -9.1,-0.6c3,0.9 6.2,1.2 9.4,0.8zm-166.7,77.8l-1.9,-1.5c-1,-0.5 -2.1,-1 -3.1,-1.5c-2.9,-1.4 -5.4,-1.3 -7.7,0.2l0,0.7c0.9,0.5 1.8,0.5 2.5,0.2c2.5,-1.1 4.3,-0.4 5,2.1c2,0.7 3.7,0.7 5.2,-0.2zm-105.9,-49.8l4,-2.1l-1.4,1.6l0.5,1.1l6.3,-1.6l-0.1,-1.2l0.9,-0.6c5.4,2 11,3 16.7,2.6l1.9,3.4l-0.7,1.2l1.1,1.1l0.9,-1.2l5.3,5.4l-0.9,1l4.6,2.4l1.6,11.1l1.2,0.2c3.6,4.9 7.4,9.9 11.4,14.9l-0.5,0.6l8.5,8.2l-0.4,-1.9c-4,-3.3 -7.1,-7.1 -9.8,-11.5l2.2,0.9c1.4,3.1 3.5,5.5 6.4,7.3l-0.5,0.4l5.6,4.6l0.7,2.1l6,2.6l0.5,1.3l6.9,2.3l0.6,-1l1.1,0c2.2,1.8 4.6,3.3 7,4.6c0.8,0.3 1.3,1 1.9,1.9c1.2,2.2 3,3.9 5.3,4.7c1.9,0.9 4,0.9 6,0.1l1.2,0.3l0.1,4.9l-1,1.4l-0.9,0.3c-1.3,2 -2.2,4.2 -2.9,6.4l1.5,0.4l-0.1,0.8l-1.8,0.7l-0.4,0.5c2.5,3.9 5,7.8 7.4,11.9c1.6,3 4,5 7,6.1c-0.2,3.7 -0.4,7.5 -0.9,11.2l-0.9,0.6c0.4,3.6 0.2,7 -0.9,10.6l-0.9,0.5l0,1.3l-0.9,0.2c-0.1,1.2 0.1,2.5 0.5,3.7c0.2,0.8 0.4,1.5 0.4,2.3l0.6,0.7l-0.2,0.9l-1.1,0.1l-0.5,0.3c0.9,1.5 0.9,3 0,4.3l-1.1,0.3l0,2l1.3,1.4l-0.4,1.2l0.2,0.7l1.2,0.2l0.2,0.2l0.2,2.2l2.2,1.7l1.8,-0.7c2.5,2 5.3,2.4 8.4,1.2l-0.1,-0.4l-4.1,-1.9l0.3,-1.9l-1.8,-0.4l-0.3,-0.6l0.3,-0.7c2.1,-0.9 3.5,-2.2 4.2,-4.3c-1.4,0.2 -2.4,-0.4 -3.1,-1.6c-0.1,-0.1 -0.1,-0.2 -0.2,-0.4l2.2,-0.7l0.4,-2l2.1,-1.3l-0.5,-0.9c-1.3,0.2 -2.2,-0.4 -2.9,-1.6l4.8,-0.2c0.3,-0.8 0.3,-1.5 -0.1,-2.2c2.1,0.3 4,0.2 5.9,-0.1c1.5,-0.3 2.3,-1.3 2.5,-3c-0.8,-0.5 -1.1,-1.3 -1.2,-2.2l-0.9,-1c1.2,0.9 2.2,0.9 3.3,0.2c2.1,-1.3 4.2,-2.9 6.1,-4.4c1.4,-1.1 2.3,-2.5 3,-4c0.2,-0.9 0.2,-1.6 -0.1,-2.6c2.5,-1.2 5.1,-2.4 7.7,-3.6c0.7,-0.4 1.2,-0.8 1.7,-1.3c1.3,-1.5 2.2,-3.3 2.4,-5.1c0.2,-0.8 0.2,-1.5 0.3,-2.2c0.4,-2.9 1.8,-5.2 4,-6.9c0.4,-0.4 0.8,-1 0.9,-1.5c0.2,-3 -1.1,-5.2 -4.2,-6.5c-0.7,-0.2 -1.3,-0.7 -2,-1l-1.6,-0.6l-4,0l-0.5,0.8l-0.6,-0.3l0.2,-1.4c-0.9,-1.3 -2,-1.9 -3.6,-1.9l-0.6,0l0.2,0.9l-0.5,0.6l-0.4,-0.2l0.2,-1.6l-0.2,-0.3l-0.6,-0.3c-1.2,0.3 -2.2,0.9 -3,2l-0.4,-0.8l0.2,-0.9c0.9,-0.1 1.5,-0.5 1.9,-1.2c-0.9,-3.7 -3.3,-6.2 -6.7,-7.4c-0.3,-0.1 -0.8,-0.1 -1.2,0c-1.5,-0.2 -2.6,-0.9 -3.6,-2.2c-1.5,-2 -3.3,-3.3 -5.6,-3.7c-0.9,-0.2 -1.8,-0.1 -2.6,0.2l-0.2,-2.2l-0.6,-0.3l-0.4,0.2l-1.2,1.4c-1,-0.2 -1.9,-0.9 -2.6,-1.8c-1.5,0.7 -2.4,1.8 -2.9,3.3c-0.5,-1.3 -0.3,-2.5 0.6,-3.8c-1.4,0.4 -2.9,0.9 -4.2,1.4c-0.5,0.3 -1.1,0.6 -1.6,0.7c-0.1,1.2 -0.8,2.4 -1.8,3.3l0.2,1.2l-2,0.6l1.1,-0.7l0.1,-0.4c-2.6,-0.2 -5.3,-0.9 -7.9,-1.8c-0.2,-0.1 -0.3,-0.3 -0.2,-0.6c0.1,-1.2 0.2,-2.3 0.4,-3.6c0.1,-1 0.1,-2.1 -0.2,-3.1c-1.9,-0.9 -3.9,-1.4 -5.8,-1.5l2.5,-6.7l-0.3,-0.3c-3.1,-0.8 -5.2,0.1 -6.3,2.5c-0.2,0.5 -0.6,0.9 -0.9,1.2c-2.3,1.2 -4.4,0.9 -6.4,-1.3c-2.4,-2.8 -2.6,-5.7 -0.8,-8.8c0.6,-1 1.3,-1.6 2.3,-2.1c1.5,-0.9 3.4,-1.2 5.2,-0.8l0.3,0.4l1.3,-0.1l0.1,-1.4l5.2,0l0.3,0.8l1.2,0.2l0.2,-0.4l0.9,-0.2c0.7,1.6 1.2,3.3 1.9,4.9c0.9,1.2 1.9,1.7 3.3,1.5c0.3,-3.1 -0.2,-6 -1.7,-8.8l2.8,-2l0.4,-0.9c1.9,-0.6 3.5,-1.5 4.9,-3c-1.1,-1.1 -1.4,-2.2 -0.9,-3.5l1.2,-0.2l0.3,-1.5c2.3,0.2 4.5,-0.4 6.5,-1.5l-1.2,-0.9l-0.1,-0.9c0.9,-0.5 1.4,-1.2 1.5,-2.2l3.7,-1.2c-0.8,0.9 -0.8,1.9 -0.1,2.6c1,0.1 1.9,-0.4 2.4,-1.3c1.8,0.2 3.3,-0.3 4.6,-1.5l-0.3,-1c-2.2,0.6 -4,-0.2 -5.3,-1.9c-0.3,-0.6 -0.6,-1.1 -0.8,-1.8l0,-0.4c-2.5,-0.2 -4.8,0.3 -6.9,1.9c4.2,-3.3 9,-4.6 14.3,-4.2c0.2,0.2 0.5,0.2 0.8,0.1c0.5,-0.3 0.9,-0.9 0.9,-1.5c1.2,-0.2 2,-0.7 2.6,-1.5c-1.1,-2.5 -3,-4 -5.9,-4.5c-0.2,0 -0.2,-0.1 -0.3,-0.3c-0.6,-2.1 -1.3,-3.6 -2.9,-4.7c-1.4,0.9 -3,1.5 -4.5,1.8c-1.9,-1.7 -3.6,-3.3 -5.1,-5.2c-2.9,-1.5 -5.6,-2.3 -8.5,-2.6l-0.5,0.5c0.9,1.5 1,3.2 0.3,4.8l0.9,1.5l-1.5,2.2l0.2,0.3c1.2,0.4 1.6,1.2 1.3,2.4l-3.2,2.1l0.2,4l-1.9,0.6l-2.8,-4.6c-3,-0.5 -5.8,-1.5 -8.5,-2.6c-0.5,-0.2 -1.2,-0.3 -1.9,-0.2c-2.6,-0.4 -4,-1.9 -4.2,-4.3c0,-1.2 0.4,-2.1 1.5,-2.6c0.9,-0.4 1.9,-0.9 2.9,-1.2c2.1,-0.9 3.5,-2.5 4.3,-4.6c2.1,-0.1 4.2,-0.2 6.3,-0.7l0.2,-0.9l-1.2,-1l0.8,-0.9c-1.4,-1 -3.3,-1.2 -5.3,-0.8l0.5,1.5l-1.9,0.9c-2.9,-0.8 -5.4,-1.9 -7.8,-3.6c-1.5,-1 -3.1,-1 -4.6,0.2c1.1,0.6 2.1,1.2 3.1,2.1c0.1,0.2 0.2,0.3 0.3,0.6l-1.4,0.5l0,0.8c-1.1,-0.9 -2.3,-1.2 -3.8,-1.2c-2.2,0.2 -4.3,0.4 -6.5,0.7l-0.5,-0.7l-5.7,0l0.9,0.7l-8,0l-0.4,-1.3c-5.8,-1.5 -11.8,-1.9 -17.7,-1.1c-2.8,-0.2 -5.6,-0.2 -8.5,0.2c-1.6,0.3 -3.4,0.5 -5.2,0.4c-10.3,-1.2 -20.8,-1.3 -31.1,-0.2c-1.6,0 -3.3,0.2 -4.7,0.5l6.5,4.6l-8.9,0.5l1.2,2l6.2,-0.3l0,0.8l-6,2.2l1.2,2.6l3,0.3l-0.3,1.6l1.9,0.4l0.6,-0.9l0.7,0.8l3,-0.3l-13.9,6.1l0.3,1.3l19.1,-7.6l-0.4,-0.9zm48.4,-18.5c1.3,-0.7 2.8,-1.4 4.2,-2.1l-0.1,-0.4c-2.9,-0.9 -5.6,-1.1 -8.4,-0.2c-1.3,0.4 -2.4,1.3 -3.1,2.6l0.2,0.9c2.3,0.7 4.7,0.4 7.2,-0.8zm15.6,-7.3c0.2,0 0.2,0 0,0c-1.9,-0.6 -3.7,-0.2 -5.6,0.7l0.1,0.9c2,0.2 3.9,-0.3 5.5,-1.6zm-3.2,7.3c-1.9,0.1 -3.5,0.1 -5.4,0.1c-1.9,0 -3.6,0.2 -5.4,0.4l-0.9,1.4c2.2,3 5.4,4.1 9.6,3.3c1.5,-0.2 3.1,-0.2 4.6,-0.1c2.4,0.1 4.7,-0.5 6.8,-1.5l0.2,-0.6c-2.6,-0.3 -4.6,-1.9 -5.8,-4.5c-1.2,0.8 -2.5,1.4 -3.7,1.5zm14.2,4.3l-2.8,-0.5l-1.2,0.9l4.3,0.2l-0.3,-0.6zm-22,-8.6l1,1.5l0.7,0l1.4,-0.9l0.6,0l0,1.2c2.9,-0.2 5.7,-0.5 8.4,-0.9c0.4,-0.2 0.7,-0.3 1.1,-0.5c-2,-1.9 -4,-1.9 -5.7,-0.1c-1.5,-0.8 -3,-1.5 -4.6,-2.3l-8.2,0.7l-0.3,0.5l0.9,1l4.7,-0.2zm62,75.6l2.1,0l0,-0.9l-2.1,0l0,0.9zm-14.6,-0.8l2.9,0.7l0.1,-0.5l-3,-0.7l0,0.5zm9.4,1.2c1,-0.9 2.2,-1.3 3.7,-1.2l-0.3,-1c-1.8,-1.2 -3.6,-1.6 -5.7,-1.5l-0.4,0.8l0.5,1.4c-1.1,-0.1 -1.9,0.1 -2.5,0.5l0.5,0.3c1.6,-0.5 2.9,-0.2 4.2,0.7zm288.5,75.6c-1.1,0.3 -2.2,0.7 -3.2,1l-0.2,0.9l1,0.8l0.2,2.1l0.4,0.1c0.2,-0.1 0.5,-0.1 0.7,-0.2c1.8,-0.9 2.3,-2.3 1.8,-4.3l-0.7,-0.4zm-18,-96c-1,-0.4 -1.9,-0.2 -2.4,0.8l0.2,1.2l2.2,-1.2l0,-0.8zm23.3,50.9l0.4,-1.2l-0.5,-0.2l-1.1,1l-2.6,0.1l-0.2,0.8c1.4,0.9 2.8,0.8 4,-0.5zm-11,-71l1,0.8l-3.3,-9c0,3.7 0.2,7.5 0.9,11.2l2.1,0.7l-1.5,-2.5l0,-1.2l0.8,0zm5.9,74.1c-0.9,-2.8 -2.8,-4.8 -5.4,-6c-2,-1.1 -4.2,-1.9 -6.5,-2.4c-0.4,-0.1 -0.9,-0.1 -1.2,0.2c-1.5,0.9 -3.2,1.3 -4.6,1.2l0,-1.8l-0.9,-0.9l-5,0.2c0.8,1.6 2.1,2.5 4,2.2l-0.4,0.7l-0.9,0.1l1,1.9l0.3,-0.8l0.5,-0.3l0.9,0.4l0.3,0.7c1.4,-0.1 2.9,0.2 4.1,0.9l1.1,3l-1.5,0.9l0.7,0.9l0.5,0.2c0.5,-0.7 1.2,-0.7 1.9,-0.3c0.2,0.2 0.4,0.4 0.7,0.8l1.3,0.4l1,-0.6l0.8,0.6l-0.2,1l1.6,1.1l-0.2,-2l0.7,-0.9l-0.4,-1.1l2.3,-0.4c0.1,0.2 0.2,0.5 0.3,0.9c1.3,2.3 3.3,3 5.8,2l-0.2,-1.8c-1,0.5 -1.9,0.3 -2.4,-1zm-17,-56.6c-2.6,-0.5 -4.6,0.2 -6,2.5c-1,1.9 -0.8,3.3 1,4.2c0.2,-0.3 0.3,-0.7 0.5,-1c0.5,-1 0.7,-2 0.2,-3.1c0.9,-0.9 2.1,-1.2 3.3,-0.9l1.7,2.6c1.2,-1.2 2.4,-2.1 4.1,-2.6c3.8,-1.2 5.3,-3.7 4,-7.9l0,0.4l-0.9,-1.2l-0.9,-0.1l-1.9,4.4c-1.9,0.4 -3.7,1.3 -5.1,2.7zm51.2,90c-0.9,-1 -1.4,-1.4 -1.9,-1.2c0,0.1 0.1,0.2 0.1,0.2c1.2,1.4 1.9,3.1 2,4.9c-0.7,2.2 -0.5,4.4 0.4,6.6l0.7,0c1.6,-1.6 2.9,-3.5 3.4,-5.6l-2.8,-1.1c-0.3,-1.3 -1.1,-2.6 -1.9,-3.8zm18.5,-130.8c-2.2,-0.3 -4.4,-0.9 -6.4,-1.4c-6.8,-2.2 -13.6,-2.8 -20.6,-1.5l-0.3,0.5c-2.5,-0.7 -4.8,-0.7 -7.4,-0.1c-0.9,-0.9 -1.9,-1.5 -3.2,-1.8c-0.9,0.1 -1.8,0 -2.5,-0.2c-7.5,-1.6 -15.2,-2.5 -22.9,-2.3l-0.9,1.2l-12.8,0.4l-0.4,0.7l-0.8,0l0,-0.5c0,-2 -1.1,-3 -3.3,-3c-1.2,0.1 -2.5,0.1 -3.7,0.1c-2.5,0 -5,-0.2 -7.4,-0.5c-5.7,-0.2 -11.4,0.3 -16.9,2.1c0.1,-0.2 0.2,-0.5 0.5,-0.8c0.2,-0.3 0.4,-0.5 0.6,-0.8c0.5,-0.4 1,-0.5 1.5,-0.5c2.5,-0.5 4.9,-1.2 7.5,-2.1l0.2,-1.3l-1,-0.9c-2.4,-0.2 -4.8,-0.2 -7.3,-0.4c-3.7,0.4 -7.4,0.2 -11.1,-0.6l0.7,-1.2c1.5,0.3 2.8,0.1 3.7,-0.7l0.2,-1.1c-2.5,-0.9 -5.3,-1.1 -8,-0.7l-0.7,1.1c-0.8,-0.8 -3.4,-1.4 -5.9,-2l0,1.9c-0.6,0.1 -0.9,0.2 -0.9,0.3c-1.3,2.4 -2.2,3.6 -2.5,3.6c-0.5,0.1 -0.9,0.2 -1.4,0.2c-1.5,0.2 -3.2,0.4 -4.7,0.8c-0.1,0 -0.2,0 -0.2,0l0,0.3c-0.6,0.1 -1,0.2 -1.5,0.2l0.4,1.2c-0.5,0.2 -1.2,0.4 -1.9,0.5c-0.7,0.2 -1.3,0.2 -2,0.2l-0.5,-0.4c-2.6,1.9 -5.6,2.5 -8.8,1.9l-0.3,0.7l2.2,3.3c-0.3,-0.1 -0.7,-0.2 -1,-0.3c-2.5,-0.9 -4.2,-2.6 -5,-5.3c-1.1,-0.1 -2.2,0.2 -3,0.7c-0.9,0.5 -1.4,1.3 -1.5,2.2c0.3,0.4 0.6,0.8 0.9,1c1,1 2.1,1.6 3.3,2.1c-4.3,-0.7 -8.8,-1.2 -13.3,-1.5l0.2,1.4c-3.1,0.5 -6,0.7 -9.2,0.5c-0.8,0 -1.4,0.1 -2.2,0.3c-2,0.9 -4.1,1.3 -6.3,1.3c-0.5,0 -0.9,-0.2 -1.3,-0.4c-2.2,-1.8 -4,-1.2 -5.1,1.5c-2.2,0.8 -4.3,1.8 -6.4,3.1l-2.9,-0.9l-1.2,-2.5c0.4,0.2 0.8,0.3 1.1,0.5c2.5,0.9 5,0.8 7.1,-0.7c-0.3,-0.4 -0.7,-0.7 -1.1,-0.9c-4.8,-1.5 -9.7,-2.9 -14.6,-3.7l-0.2,-0.2l-3.5,0.5l-0.4,-0.9l-4.3,0.6l-0.2,0.4l-1.8,0.3l-0.7,-0.4l-2.9,0.9l-0.3,0.9c-0.9,-0.2 -1.8,-0.1 -2.4,0.2c-0.4,0.2 -1,0.4 -1.4,0.6l1.1,0.8l-3.2,2c-2.8,2.3 -5.8,4.2 -9.2,5.4c-0.3,1.5 0.1,2.9 1,4c1,1.4 2.2,1.5 3.4,0.7c0.6,-0.3 1.1,-0.5 1.9,-0.5c0.2,-0.2 0.6,-0.2 0.6,0c1.5,1.6 3.3,3.2 4.9,4.6l3.3,-1.2l0.4,-3.1l2.2,-1c0.2,-0.9 -0.1,-1.6 -0.8,-2.2c-0.5,-0.2 -0.7,-0.6 -0.5,-1.2c0.2,-1.5 1.2,-2.5 2.9,-2.6c0.7,-0.9 1.5,-1.5 2.3,-2.1c1.2,-0.6 2.4,-0.6 3.4,0.2c-0.1,0.2 -0.2,0.4 -0.3,0.6c-0.4,0.9 -1.2,1.5 -2,1.9c-0.5,0.1 -0.9,0.2 -1.3,0.4l-0.3,0.9c0.1,0.4 0.2,0.8 0.3,1c1.2,1.9 3,2.5 4.9,1.8c2.2,-0.8 3.9,-0.6 4.8,0.8c-2.8,0.5 -5.5,1 -8.5,1.4c0.1,0.6 0.2,1.3 0.2,1.9c0,-0.1 0,-0.1 -0.2,-0.1c-0.5,0 -1,-0.1 -1.5,-0.1c-0.3,0 -0.5,0.1 -0.8,0.2c-0.2,0.2 -0.5,0.2 -0.7,0.3l-0.4,2.4c-0.9,0.2 -1.9,0.5 -3,0.7c-3.2,0.9 -6.3,0.9 -9.5,0.2l2.1,-0.5l0,-1.3l-1.4,0c-0.1,0 -0.2,0 -0.2,0.1c0,0.1 0,0.2 -0.1,0.2l-0.3,0c0,0 -0.1,0 -0.2,0c-0.1,-0.8 -0.1,-1.3 -0.2,-2l-2.8,1.1l0.9,2.5l-0.4,0.9l-3,-0.2c-0.9,1 -1.6,1.9 -2.6,2.8c-0.9,0.8 -1.9,1 -3,0.9l-0.1,1.2l-2.3,0.9l-1.6,-0.5l-0.3,0.2l-0.5,1.3c-0.8,-0.2 -1.4,-0.3 -1.9,-0.3c-0.3,0 -0.5,-0.1 -0.8,-0.1c-0.3,0 -0.5,0 -0.9,0.1l-0.2,0.5c0.1,0.2 0.2,0.2 0.3,0.3c0.2,0.2 0.6,0.3 0.8,0.4c0.2,0.1 0.2,0.1 0.4,0.2c0.3,0.1 0.6,0.1 0.9,0.1l1.4,1.5l1.2,0.3l-0.8,3l-0.7,0.3c-3.6,-1.2 -6.9,-0.8 -9.8,1.2c0.4,1.2 0.4,2.4 0,3.6c-0.2,0.5 -0.8,1.2 -1.2,1.8l0.7,0.2l0.2,1.9l0.4,0.3c0.9,0.1 1.6,0.2 2.5,0.3c0.9,0.2 1.5,0.6 2.3,0.8l1.7,-0.9c0.7,0.1 1.4,0.1 2.2,0c1.2,-0.3 2.2,-0.9 3.3,-1.5l-0.2,-2.1c0.3,-0.2 0.7,-0.6 1.1,-0.9c1,-0.9 2.2,-1.4 3.5,-1.9l0.2,-2c0.4,-0.4 0.9,-0.6 1.5,-0.6c2.3,-0.3 4.8,-0.5 7.1,-0.3c0.4,0.6 0.9,0.9 1.4,1.2c2.3,1.2 4.6,2.8 6.7,4.4l0,2.3c0.8,0.2 1.2,-0.2 1.2,-0.9c0.1,-0.8 0.2,-1.3 0.2,-2c0.8,0.3 1.4,0.5 2.2,0.7l0,-0.2c-3.4,-1.9 -6.4,-4.3 -9,-7.4c0.3,-0.1 0.6,-0.2 0.8,0c3.1,1.5 6.1,3.3 8.8,5.2c-0.1,0.8 0.1,1.5 0.8,2.2c0.1,0.1 0.2,0.1 0.4,0.1c0,0.1 0.2,0.2 0.2,0.2l1.7,1.5l0.2,1.2l2.2,0.9l0.9,-1.5l1.5,-0.1l-2.5,-3c0.7,-0.5 1.4,-0.7 2.3,-0.3c0.6,0.2 1,0.4 1.4,0.7l-0.2,1.9l1.2,0.7l0.9,1.4c0.5,0.1 1.1,0.2 1.6,0.2c3.2,0.3 6.5,0.4 9.8,0c-0.2,0.7 -0.2,1.3 -0.3,1.9c-0.4,1.9 -1.2,3.5 -2.5,5c-5.2,0.8 -10.2,0.2 -15.1,-1.5c-0.5,-0.2 -1,-0.2 -1.5,-0.1c-1.4,0.1 -2.2,1 -2.4,2.5c-2.1,-0.1 -4,-0.8 -5.7,-1.6c-0.6,-0.3 -1.1,-0.5 -1.7,-0.8c-3.3,0 -4.6,-1.6 -4,-4.7l-0.3,-0.7c-1.2,-0.5 -2.5,-0.7 -4,-0.5c-1,0.1 -1.9,0.1 -3,-0.1c-2.9,-0.3 -5.3,0.4 -7.1,2.2c-2.4,0.2 -5,0.2 -7.4,0l-0.2,0.9l-4.8,3.5c-0.2,1.1 -0.4,2.2 -1,3.1c-0.9,1.6 -2.2,2.5 -4.2,2.8l-0.4,1.2l-0.7,0.7l0,1.1c-1.2,1.2 -2.4,2.4 -3.5,3.7c-0.1,0.2 -0.2,0.2 -0.2,0.6c1.1,3.2 0.9,6.4 -0.6,9.5c0,0.2 0.1,0.3 0.2,0.5c0.1,0.8 0.2,1.5 0.4,2.2c0.1,0.3 0.2,0.5 0.4,0.8l0.7,0.1c0.7,0.8 1.2,1.5 1.6,2.4c1.3,3 3.6,5 6.7,5.7c0.4,1 1.1,1.6 2.1,1.8c2,-0.2 4,-0.5 5.9,-0.9c3.6,-0.9 7.4,-1.2 11.2,-1.2c0.3,1.2 1.2,2 2.4,2.2c0.8,0.2 1.5,0.1 2.2,-0.2c0.9,0.5 1.5,1.4 1.8,2.4c0.4,1 0.3,2.1 -0.1,3.1l-0.5,0.9c0.2,0.9 0.5,1.9 1.3,2.5c2.6,2.8 4.1,5.7 4.1,9.2l0.7,1.1c-0.1,0.5 -0.2,1 -0.4,1.3c-1.1,2.1 -1.8,4.1 -2.3,6.1c-0.1,0.5 0,0.9 0.2,1.2c2.2,3.4 3.4,7.1 3.9,11.3l0.4,0.2l0.4,2.4c1.8,1.7 3,3.6 3.6,6.1l-0.4,1c0.1,0.2 0.2,0.3 0.3,0.6c0.8,1.2 1.7,1.9 3,2.1c1.1,-0.1 1.9,-0.7 2.3,-1.5c1.1,0.1 2.2,0.1 3.3,-0.2c6.1,-1.5 9.8,-5.3 11.2,-11c0.2,-0.2 0.4,-0.2 0.5,-0.2c0.6,-0.3 1.1,-0.7 1.6,-1.2c0.4,-0.4 0.7,-1.1 0.8,-1.8c0.1,-1.1 -0.2,-2.1 -0.7,-3c1.6,-2.3 3.8,-4.1 6.4,-5.3l0.3,-0.5c1.8,-1.4 2.1,-3.3 1.2,-5.7c-0.7,-1.5 -1,-3.3 -1.2,-4.9c0,-0.6 0,-1.2 0.2,-1.8c1.3,-4.9 4.2,-8.6 8.6,-11.1c0.6,-0.2 1,-0.7 1.4,-1.2c2.6,-3.1 4.7,-6.7 6.4,-10.5l-0.4,-0.9c-1.4,0.2 -2.9,0.6 -4.2,0.9c-1.5,0.1 -2.8,-0.4 -4,-0.9c-3,-1.1 -5.7,-1.9 -7.7,-4.7c-0.2,-0.2 -0.2,-0.4 -0.3,-0.7c-0.2,-0.7 -0.6,-1.2 -1.1,-1.6c-1.9,-1.8 -2.8,-3.9 -2.8,-6.4c-0.2,-0.1 -0.4,-0.2 -0.5,-0.3l-1.7,-1.6l-0.2,-1.5c-0.3,-0.3 -0.6,-0.7 -0.7,-1c-0.8,-1.5 -1.9,-2.9 -3.1,-4l1.6,-0.7c0.2,0.2 0.4,0.4 0.7,0.5c1.4,1.3 2.4,3 3.1,4.6c0.5,0 1.1,0.2 1.5,0.8c0.4,0.7 0.9,1.3 0.9,2.2c0.2,1.5 1.2,2.5 2.6,3c1.2,2.5 2.2,5 3.2,7.5c0.4,1.1 1.2,1.8 2.2,1.9c3.4,-0.4 6.6,-1.5 9.5,-3.5c0.5,-0.3 0.9,-0.5 1.5,-0.8c4.6,-1.4 7.3,-4.4 8,-8.8c-0.2,-0.2 -0.4,-0.3 -0.7,-0.4c-1.8,-0.8 -3.3,-1.9 -4.4,-3.5c-0.4,0.3 -0.9,0.7 -1.2,1c-0.9,0.9 -1.8,1.1 -2.8,0.9c-1.4,-0.3 -2.3,-1.2 -2.5,-2.8l-0.9,1.6c-0.1,-0.5 -0.2,-0.9 -0.4,-1.3c-0.4,-0.9 -0.9,-1.8 -1.5,-2.3c-0.8,-0.7 -1,-1.5 -0.7,-2.6l0.4,-0.2c0.1,0.1 0.2,0.1 0.3,0.2c2.9,3.3 6.5,5 10.8,4.8l0.2,0.5c2.8,1.1 5.6,1.2 8.5,0.6c3,-0.6 5.5,0.5 7.4,3.2l1.7,0.3l-1.5,0.8c0.1,0.1 0.2,0.2 0.2,0.4c0.6,0.9 1.4,1.4 2.5,1.3c0.3,-0.1 0.7,-0.2 1.1,-0.3l0.2,-1.5l0.8,0c0.2,3.2 0.9,6.4 1.9,9.5c0.4,0.2 0.8,0.7 1,1.2c0.2,0.8 0.5,1.4 0.8,2.1c0.2,0.1 0.2,0.2 0.3,0.3c1,1.2 1.8,2.5 2.3,4c0.5,1.3 1.4,1.6 2.8,1c0.5,-1.1 1,-2 1.5,-3.1c0.2,-0.3 0.5,-0.7 0.9,-1c-0.1,-1 -0.2,-1.9 -0.3,-2.9c-0.1,-0.9 0.2,-1.7 0.8,-2.3c0.7,-0.7 1.2,-1.5 1.9,-2.2c0.6,-0.4 0.9,-0.9 1.4,-1.3l0,0.4c0.2,-0.2 0.4,-0.6 0.5,-0.8c0.3,-0.4 0.9,-0.9 1.3,-1.2l1.5,-1.2c1.2,-0.9 2.5,-1.4 4,-1.9c0.3,-0.1 0.9,-0.2 1.4,-0.3c0.1,0 0.5,-0.1 1.1,-0.1l0,2.9c1,0.2 1.9,0.4 2,0.7c1.4,1.9 2.2,4 2.3,6.2l4,-0.1c0.8,1.2 1.2,2.6 1.2,4.3l1.2,0.9l0,5.2c0.9,0.7 1.8,1.5 2.4,2.5c0.2,0.2 0.2,0.5 0.4,0.9c0.2,0.6 0.4,1.1 0.5,1.5c0.2,0.5 0.3,1 0.7,1.4c1.1,1.2 2.3,2.3 3.6,3.4c0,-0.2 0.1,-0.4 0.2,-0.7c0.2,-1 0.1,-1.9 -0.4,-3c-0.4,-0.9 -1,-1.6 -1.8,-2.2c-3.2,-2.8 -4.5,-6.2 -4,-10.1c0.3,0 0.5,0 0.9,0.1c0.2,0 0.4,0 0.7,0.1c0.2,0.1 0.5,0.2 0.7,0.3c0.4,0.2 0.8,0.6 0.9,0.9c1.1,2.4 2.8,4.1 4.9,4.9l0.9,-0.9l0.2,-1.6l0.7,-0.6c1.2,0.1 2.3,-0.2 3.3,-1.1c-0.5,-3.4 -1.8,-6.5 -3.9,-9.2c-1.5,-2.2 -1.1,-3.7 1.5,-4.6l0.6,0.6l-0.4,2.3l1.1,1.2l1.2,-0.3c0.2,-2.5 1.5,-3.9 4,-4.1c3,-0.4 5.4,-1.6 7.4,-4c1.5,-1.9 2.8,-4 3.9,-6c0.9,-1.6 0.3,-2.6 -1.5,-3.3l-0.9,-4.1c1.1,-0.7 2,-1.5 2.5,-2.6l-0.4,-0.2c-1.5,0.5 -3,0.2 -4.2,-0.7l0,-1l4,-3l-0.2,2.4l0.3,0.4l0.4,0c1.3,-1.1 2.8,-1.4 4.2,-0.9l-0.5,2.2l1.5,0.6l0.5,4c0.8,0.5 1.4,0.5 2.2,0.2c0.3,-0.2 0.5,-0.4 0.8,-0.8c0.9,-0.9 1.2,-2.1 0.8,-3.4c-0.1,-0.6 -0.2,-1.1 -0.2,-1.5c0,-2.1 0.9,-3.7 2.5,-5.2c0.5,0.1 1,0.1 1.4,0.2c0.9,0.1 1.5,-0.1 2.4,-0.4c3.6,-2 6.4,-4.6 8.6,-7.8c0.5,-0.9 0.9,-1.9 0.7,-3c-0.4,-3.5 -2.4,-4.9 -5.8,-4.4c1.8,-2.2 3.9,-3.9 6.4,-4.7c3.3,-1.2 6.7,-1.5 10.1,-1.2c1.9,0 3.5,-0.4 5,-1.2c2.6,-1.3 5.6,-2.3 8.6,-3.2c0.2,0.5 0.3,1 0.4,1.5c0.2,1 -0.1,1.8 -0.9,2.2c-1.2,0.7 -2.2,1.5 -3.3,2.5c-1,0.9 -1.4,2.1 -1.2,3.3c0.6,2.5 0.2,4.8 -1.2,7c2.1,-0.4 3.6,-1.5 4.7,-3.4c0.8,-1.3 1.6,-2.3 2.9,-3.2c1.3,-0.9 2.3,-2.1 3.2,-3.6c0.2,-0.5 0.2,-0.9 0.2,-1.4c-0.5,-2.3 0,-4 1.8,-5l0.8,2.4c1.1,0.1 2.2,0.2 3.2,0.2c1,0 1.9,-0.2 3,-0.4c4,-1.2 8.1,-2.1 12.2,-2.5l0.5,-0.5l0.2,-0.6l-1.4,-1.5c0.5,-0.5 1.1,-0.9 1.5,-1.2c0.4,-0.2 0.9,-0.5 1.3,-0.7c2.5,0.3 5,1.2 7,2.8c0.2,-0.1 0.4,-0.2 0.7,-0.2c1.5,-0.7 2.5,-1.9 3,-3.6l0.1,-0.9zm-94.4,99l0.4,0.8c0.2,0.1 0.5,0.1 0.8,0.1c1.2,0.2 2.1,0 2.6,-1l-2.9,0c-0.3,0 -0.6,0.1 -0.9,0.1zm72.6,41.3c-1.9,2.2 -4,4.3 -6.4,6.1c-1.2,1 -1.2,1.9 0,2.9c1.4,1.1 2.5,0.7 3.6,-1.2c0.7,-1.5 1.9,-2.4 3.7,-2.6l-0.1,-1.6c0.1,0 0.2,-0.2 0.2,-0.2c0.8,-0.2 1.2,-0.7 1.3,-1.5c-0.2,-1.5 -1.1,-2.2 -2.3,-1.9zm-85.5,-46.9c-0.3,-0.5 -0.5,-1.2 -1,-1.9c-3.1,-5.1 -7.4,-9 -12.8,-11.7l-0.5,0.3c0.4,0.9 0.9,1.5 1.5,2.4c1.2,1.9 2.5,3.6 3.6,5.4c4.7,7.5 11.5,11 20.4,10.5c-1.9,-1.2 -4,-1.9 -6.1,-1.9c-2.4,0.2 -4.1,-0.9 -5.1,-3.1zm44.3,-61.8c-0.4,0.4 -0.7,0.9 -0.7,1.3l5,0.2c0.1,-0.2 0.3,-0.4 0.5,-0.6c1.2,-0.7 2.2,-1.5 3.3,-2.5l-0.6,-0.7c-1.9,0.2 -3.5,-0.5 -4.8,-1.8l-0.4,0.2l-0.8,2.8c-0.5,0.3 -0.9,0.6 -1.5,1.1zm-16.4,57.6l0.5,-1.9l1.2,-0.6l0.2,-0.5l-0.8,-0.5l-0.8,-1.8c-1.2,1 -1.5,2.3 -1.1,4.2c0.4,0.4 0.6,0.8 0.8,1.1zm-10.5,-19.2c0,0.9 0.4,1.5 1.2,1.9c0.9,-1.5 2.2,-2 4.1,-1.3l0.5,-0.8l-0.1,-0.5l-3,-0.4c-0.7,-0.7 -0.8,-1.5 -0.4,-2.5c0.5,-1.3 0.2,-2.2 -1.1,-3c-0.2,0 -0.4,-0.1 -0.6,-0.2c-0.6,2.2 -0.9,4.3 -0.6,6.8zm4.5,30.5l-0.1,0.8l0.5,0.4l5,-2.5c-1.8,-0.2 -3.7,0.3 -5.4,1.3zm-5.7,-20.1c-0.9,-0.5 -1.8,-0.9 -2.5,-1.2c-0.2,-0.1 -0.5,-0.1 -0.8,-0.1l-1.9,2.5c-0.4,0.2 -0.8,0.6 -1,0.9c-0.6,0.6 -1,0.9 -1.7,1.2l-1.9,0.2l-0.9,1.2l-1.5,-0.2c-1.1,0.9 -1.2,2.1 -0.4,3.3c0.6,0.9 0.9,1.9 1,3c2.5,1 5.3,1.5 8.1,1.2c0.5,-2.6 1.9,-5 3.6,-6.8l-1.5,-2.3c0.2,-0.3 0.4,-0.5 0.7,-0.9c0.6,-0.4 0.8,-1.1 0.7,-2zm4.1,-26c-0.2,-0.1 -0.2,-0.2 -0.2,-0.2c-1.5,1.3 -2,2.6 -1.1,4.3l0.7,-1.2l-0.4,-1.2l1.3,-0.9l-0.3,-0.8zm-2.6,41.3l0.4,0.1l0.7,-0.3c0.1,-0.1 0.1,-0.2 0,-0.4c-0.2,-1 -0.2,-2 0.2,-3c0.5,1.3 1.4,1.9 2.8,1.5l0.3,-0.6l-1.3,-2.5l1.9,-1.9l-3.2,0.7c-0.1,-0.2 -0.2,-0.2 -0.2,-0.3c-0.4,-0.5 -0.3,-1.2 0.1,-1.6c0.2,-0.1 0.5,-0.1 0.8,-0.1c2.1,0.5 3.7,0 5.2,-1.5l-0.4,-0.2c-1.4,0.2 -2.9,0.4 -4.3,0.4c-1.1,0 -1.9,0.4 -2.2,1.3c-0.2,0.9 -0.5,1.6 -0.9,2.5c-0.2,0.5 -0.2,1 -0.2,1.5c-0.1,1.7 0,3 0.3,4.4zm5.2,-24.5c0.2,0.9 0.3,1.9 0.6,2.8l0.7,0.2l0.5,-2.3l-0.5,-0.7l-1.3,0zm-11.9,45c-1.5,1.9 -1.9,4.1 -0.9,6.4c0.5,1.2 1.1,2.2 1.5,3.3c1,2.1 1.4,4.2 1,6.4c0,0.3 0.1,0.6 0.3,0.9c0.7,0.9 1.5,1 2.5,0.9c5.4,-1.5 10.8,-3.3 16.1,-5.1c1.4,-0.6 2.9,-0.4 4.1,0.5c0.7,0.6 1.2,1.1 1.8,1.5c0.7,0.7 1.4,0.9 2.2,0.9c0.5,0 1.2,-0.1 1.8,-0.1l-1.7,2.3l0.6,0.3c1.2,-0.3 2.2,-0.1 3,0.8c0.5,0.5 0.7,1.2 0.3,1.8c4,1.5 7.8,1.5 11.7,-0.2c1,-0.6 1.8,-1.2 1.9,-2.4c0.2,-1.2 0.9,-2.3 2,-3.2c1,-0.7 1.9,-1.5 2.2,-2.8c1.9,-4.3 1.2,-8.1 -2,-11.7c-2,-2.1 -4,-4.3 -5.9,-6.4c-1,-1 -1.9,-2.1 -2.5,-3.3c-0.9,-2.3 -2.4,-4 -4.6,-5c-0.3,-0.1 -0.7,-0.2 -0.9,-0.2l-0.4,0.2c0.5,2.2 0.5,4.4 0.2,6.6c0,0.2 -0.1,0.4 -0.2,0.6c-3.4,0.2 -5.7,-1.2 -6.5,-4.3c-0.2,-0.6 -0.2,-1 0,-1.5l-6.6,-1.9l-1.2,1.8l-1.5,0.6l-0.1,2.9l-0.9,0l-0.9,-0.5l-1,-1l-1.3,0.2c-0.5,0.9 -1.2,1.6 -2.2,2.2l-0.1,1.1l-1.2,0.1c-1.7,3.6 -4.6,5.7 -8.6,6.6c-0.8,-0.4 -1.5,0 -2,0.7zm11.4,-17.5c-1.8,0 -3.3,0.2 -4.7,0.9l0.3,0.5c1.8,0.1 3.3,-0.2 4.6,-1.1l-0.2,-0.3zm2.8,-24.1l-0.5,1.4c-0.2,0 -0.5,0 -0.8,-0.1c-2.1,-0.6 -3.3,0.1 -3.3,2l2.4,-0.3c0.4,1.2 1.2,2.1 2.3,2.5l0.5,-0.4l-0.4,-1.3l0.1,-0.1c0.9,0.2 1.3,0.2 1.5,-0.3l-1.3,-3.4l-0.5,0zm-4.2,-1.3c0.2,0 0.4,0 0.5,-0.2c0.2,-0.2 0.2,-0.3 0.2,-0.5s0,-0.4 -0.2,-0.5c-0.2,-0.2 -0.3,-0.3 -0.5,-0.3c-0.2,0 -0.4,0.1 -0.6,0.3c-0.2,0.1 -0.3,0.3 -0.3,0.5s0.1,0.4 0.3,0.5c0.2,0.2 0.4,0.2 0.6,0.2z"/>
  <style type="text/css">
   <![CDATA[
      .fr {fill:#fff; opacity:1;}
      .bk {fill:#fff; opacity:0.1;}
    ]]>
  </style>
 </defs>
 <g>
  <title>background</title>
  <rect x="-1" y="-1" width="1002" height="412" id="canvas_background" fill="none"/>
 </g>
 <g>
  <title>Layer 1</title>
  <g class="fr" id="svg_1">
   <use xlink:href="#continents" x="5" y="-5" id="svg_2"/>
   <use xlink:href="#continents" x="478" y="-5" id="svg_3"/>
  </g>
  <g class="bk" id="svg_4">
   <use xlink:href="#continents" x="-468" y="215" transform="scale(-1,1) " id="svg_5"/>
   <use xlink:href="#continents" x="-941" y="215" transform="scale(-1,1) " id="svg_6"/>
  </g>
  <path fill="#7b5bdd" class="globe_dot" stroke-width="1" d="m72.89472,48.32744l0.36045,-0.56185l0.62429,-0.32442l0.72091,0l0.62428,0.32442l0.36046,0.56185l0,0.64882l-0.36046,0.56186l-0.62428,0.32441l-0.72091,0l-0.62429,-0.32441l-0.36045,-0.56186l0,-0.64882z" stroke="#fff"/>
  <path fill="#7b5bdd" class="globe_dot" stroke-width="1" d="m30.93394,35.38626l0.36045,-0.56185l0.62429,-0.32442l0.72091,0l0.62428,0.32442l0.36046,0.56185l0,0.64882l-0.36046,0.56186l-0.62428,0.32441l-0.72091,0l-0.62429,-0.32441l-0.36045,-0.56186l0,-0.64882z" stroke="#fff"/>
  <path fill="#7b5bdd" class="globe_dot" stroke-width="1" d="m42.89472,38.13136l0.36045,-0.56185l0.62429,-0.32442l0.72091,0l0.62428,0.32442l0.36046,0.56185l0,0.64882l-0.36046,0.56186l-0.62428,0.32441l-0.72091,0l-0.62429,-0.32441l-0.36045,-0.56186l0,-0.64882z" stroke="#fff"/>
  <path fill="#7b5bdd" class="globe_dot" stroke-width="1" d="m44.8555,32.64116l0.36045,-0.56185l0.62429,-0.32442l0.72091,0l0.62428,0.32442l0.36046,0.56185l0,0.64882l-0.36046,0.56186l-0.62428,0.32441l-0.72091,0l-0.62429,-0.32441l-0.36045,-0.56186l0,-0.64882z" stroke="#fff"/>
  <path fill="#7b5bdd" class="globe_dot" stroke-width="1" d="m57.99276,34.40587l0.36045,-0.56185l0.62429,-0.32442l0.72091,0l0.62428,0.32442l0.36046,0.56185l0,0.64882l-0.36046,0.56186l-0.62428,0.32441l-0.72091,0l-0.62429,-0.32441l-0.36045,-0.56186l0,-0.64882z" stroke="#fff"/>
  <path fill="#7b5bdd" class="globe_dot" stroke-width="1" d="m60.54178,45.19018l0.36045,-0.56185l0.62429,-0.32442l0.72091,0l0.62428,0.32442l0.36046,0.56185l0,0.64882l-0.36046,0.56186l-0.62428,0.32441l-0.72091,0l-0.62429,-0.32441l-0.36045,-0.56186l0,-0.64882z" stroke="#fff"/>
  <path fill="#7b5bdd" class="globe_dot" stroke-width="1" d="m59.16923,39.11175l0.36045,-0.56185l0.62429,-0.32442l0.72091,0l0.62428,0.32442l0.36046,0.56185l0,0.64882l-0.36046,0.56186l-0.62428,0.32441l-0.72091,0l-0.62429,-0.32441l-0.36045,-0.56186l0,-0.64882z" stroke="#fff"/>
  <path fill="#7b5bdd" class="globe_dot" stroke-width="1" d="m77.01237,35.58234l0.36045,-0.56185l0.62429,-0.32442l0.72091,0l0.62428,0.32442l0.36046,0.56185l0,0.64882l-0.36046,0.56186l-0.62428,0.32441l-0.72091,0l-0.62429,-0.32441l-0.36045,-0.56186l0,-0.64882z" stroke="#fff"/>
  <path fill="#7b5bdd" class="globe_dot" stroke-width="1" d="m93.67903,41.85685l0.36045,-0.56185l0.62429,-0.32442l0.72091,0l0.62428,0.32442l0.36046,0.56185l0,0.64882l-0.36046,0.56186l-0.62428,0.32441l-0.72091,0l-0.62429,-0.32441l-0.36045,-0.56186l0,-0.64882z" stroke="#fff"/>
  <path fill="#7b5bdd" class="globe_dot" stroke-width="1" d="m76.03198,68.32744l0.36045,-0.56185l0.62429,-0.32442l0.72091,0l0.62428,0.32442l0.36046,0.56185l0,0.64882l-0.36046,0.56186l-0.62428,0.32441l-0.72091,0l-0.62429,-0.32441l-0.36045,-0.56186l0,-0.64882z" stroke="#fff"/>
  <path fill="#7b5bdd" class="globe_dot" stroke-width="1" d="m109.36531,55.77842l0.36045,-0.56185l0.62429,-0.32442l0.72091,0l0.62428,0.32442l0.36046,0.56185l0,0.64882l-0.36046,0.56186l-0.62428,0.32441l-0.72091,0l-0.62429,-0.32441l-0.36045,-0.56186l0,-0.64882z" stroke="#fff"/>
  <path fill="#7b5bdd" class="globe_dot" stroke-width="1" d="m89.95354,83.62156l0.36045,-0.56185l0.62429,-0.32442l0.72091,0l0.62428,0.32442l0.36046,0.56185l0,0.64882l-0.36046,0.56186l-0.62428,0.32441l-0.72091,0l-0.62429,-0.32441l-0.36045,-0.56186l0,-0.64882z" stroke="#fff"/>
  <path fill="#7b5bdd" class="globe_dot" stroke-width="1" d="m100.345701,75.386262l0.36045,-0.56185l0.62429,-0.32442l0.72091,0l0.62428,0.32442l0.36046,0.56185l0,0.64882l-0.36046,0.56186l-0.62428,0.32441l-0.72091,0l-0.62429,-0.32441l-0.36045,-0.56186l0,-0.64882z" stroke="#fff"/>
  <path fill="#7b5bdd" class="globe_dot" stroke-width="1" d="m97.79668,73.03332l0.36045,-0.56185l0.62429,-0.32442l0.72091,0l0.62428,0.32442l0.36046,0.56185l0,0.64882l-0.36046,0.56186l-0.62428,0.32441l-0.72091,0l-0.62429,-0.32441l-0.36045,-0.56186l0,-0.64882z" stroke="#fff"/>
  <path fill="#7b5bdd" class="globe_dot" stroke-width="1" d="m102.50256,59.69999l0.36045,-0.56185l0.62429,-0.32442l0.72091,0l0.62428,0.32442l0.36046,0.56185l0,0.64882l-0.36046,0.56186l-0.62428,0.32441l-0.72091,0l-0.62429,-0.32441l-0.36045,-0.56186l0,-0.64882z" stroke="#fff"/>
  <path fill="#7b5bdd" class="globe_dot" stroke-width="1" d="m87.20844,45.19018l0.36045,-0.56185l0.62429,-0.32442l0.72092,0l0.62428,0.32442l0.36046,0.56185l0,0.64882l-0.36046,0.56186l-0.62428,0.32441l-0.72092,0l-0.62429,-0.32441l-0.36045,-0.56186l0,-0.64882z" stroke="#fff"/>
  <path fill="#7b5bdd" class="globe_dot" stroke-width="1" d="m95.44374,52.05293l0.36045,-0.56185l0.62429,-0.32442l0.72091,0l0.62428,0.32442l0.36046,0.56185l0,0.64882l-0.36046,0.56186l-0.62428,0.32441l-0.72091,0l-0.62429,-0.32441l-0.36045,-0.56186l0,-0.64882z" stroke="#fff"/>
  <path fill="#7b5bdd" class="globe_dot" stroke-width="1" d="m82.11041,58.13136l0.36045,-0.56185l0.62429,-0.32442l0.72091,0l0.62428,0.32442l0.36046,0.56185l0,0.64882l-0.36046,0.56186l-0.62428,0.32441l-0.72091,0l-0.62429,-0.32441l-0.36045,-0.56186l0,-0.64882z" stroke="#fff"/>
  <path fill="#7b5bdd" class="globe_dot" stroke-width="1" d="m69.75747,58.71959l0.36045,-0.56185l0.62429,-0.32442l0.72091,0l0.62428,0.32442l0.36046,0.56185l0,0.64882l-0.36046,0.56187l-0.62428,0.32441l-0.72091,0l-0.62429,-0.32441l-0.36045,-0.56187l0,-0.64882z" stroke="#fff"/>
  <path fill="#7b5bdd" class="globe_dot" stroke-width="1" d="m121.20528,65.40113l0.36045,-0.56185l0.62429,-0.32442l0.72091,0l0.62428,0.32442l0.36046,0.56185l0,0.64882l-0.36046,0.56186l-0.62428,0.32441l-0.72091,0l-0.62429,-0.32441l-0.36045,-0.56186l0,-0.64882z" stroke="#fff"/>
  <path fill="#7b5bdd" class="globe_dot" stroke-width="1" d="m133.00933,47.13827l0.36045,-0.56185l0.62429,-0.32442l0.72091,0l0.62428,0.32442l0.36046,0.56185l0,0.64882l-0.36046,0.56186l-0.62428,0.32441l-0.72091,0l-0.62429,-0.32441l-0.36045,-0.56186l0,-0.64882z" stroke="#fff"/>
  <path fill="#7b5bdd" class="globe_dot" stroke-width="1" d="m96.48361,34.66608l0.36045,-0.56185l0.62429,-0.32442l0.72091,0l0.62428,0.32442l0.36046,0.56185l0,0.64882l-0.36046,0.56186l-0.62428,0.32441l-0.72091,0l-0.62429,-0.32441l-0.36045,-0.56186l0,-0.64882z" stroke="#fff"/>
  <path fill="#7b5bdd" class="globe_dot" stroke-width="1" d="m136.58875,116.17847l0.36045,-0.56185l0.62429,-0.32442l0.72091,0l0.62428,0.32442l0.36046,0.56185l0,0.64882l-0.36046,0.56186l-0.62428,0.32441l-0.72091,0l-0.62429,-0.32441l-0.36045,-0.56186l0,-0.64882z" stroke="#fff"/>
  <path fill="#7b5bdd" class="globe_dot" stroke-width="1" d="m152.73498,118.52228l0.36045,-0.56185l0.62429,-0.32442l0.72091,0l0.62428,0.32442l0.36046,0.56185l0,0.64882l-0.36046,0.56186l-0.62428,0.32441l-0.72091,0l-0.62429,-0.32441l-0.36045,-0.56186l0,-0.64882z" stroke="#fff"/>
  <path fill="#7b5bdd" class="globe_dot" stroke-width="1" d="m129.03648,127.63709l0.36045,-0.56185l0.62429,-0.32442l0.72091,0l0.62428,0.32442l0.36046,0.56185l0,0.64882l-0.36046,0.56186l-0.62428,0.32441l-0.72091,0l-0.62429,-0.32441l-0.36045,-0.56186l0,-0.64882z" stroke="#fff"/>
  <path fill="#7b5bdd" class="globe_dot" stroke-width="1" d="m141.79721,127.37667l0.36045,-0.56186l0.62429,-0.32442l0.72091,0l0.62428,0.32442l0.36046,0.56186l0,0.64882l-0.36046,0.56185l-0.62428,0.32441l-0.72091,0l-0.62429,-0.32441l-0.36045,-0.56185l0,-0.64882z" stroke="#fff"/>
  <path fill="#7b5bdd" class="globe_dot" stroke-width="1" d="m167.31866,129.19963l0.36045,-0.56185l0.62429,-0.32442l0.72091,0l0.62428,0.32442l0.36046,0.56185l0,0.64882l-0.36046,0.56186l-0.62428,0.32441l-0.72091,0l-0.62429,-0.32441l-0.36045,-0.56186l0,-0.64882z" stroke="#fff"/>
  <path fill="#7b5bdd" class="globe_dot" stroke-width="1" d="m139.71383,145.8667l0.36045,-0.56185l0.62429,-0.32442l0.72091,0l0.62428,0.32442l0.36046,0.56185l0,0.64882l-0.36046,0.56186l-0.62428,0.32441l-0.72091,0l-0.62429,-0.32441l-0.36045,-0.56186l0,-0.64882z" stroke="#fff"/>
  <path fill="#7b5bdd" class="globe_dot" stroke-width="1" d="m155.59963,136.49147l0.36045,-0.56185l0.62429,-0.32442l0.72091,0l0.62428,0.32442l0.36046,0.56185l0,0.64882l-0.36046,0.56186l-0.62428,0.32441l-0.72091,0l-0.62429,-0.32441l-0.36045,-0.56186l0,-0.64882z" stroke="#fff"/>
  <path fill="#7b5bdd" class="globe_dot" stroke-width="1" d="m140.75552,137.27274l0.36045,-0.56185l0.62429,-0.32442l0.72091,0l0.62428,0.32442l0.36046,0.56185l0,0.64882l-0.36046,0.56186l-0.62428,0.32441l-0.72091,0l-0.62429,-0.32441l-0.36045,-0.56186l0,-0.64882z" stroke="#fff"/>
  <path fill="#7b5bdd" class="globe_dot" stroke-width="1" d="m158.98513,147.95007l0.36045,-0.56184l0.62429,-0.32442l0.72091,0l0.62428,0.32442l0.36046,0.56184l0,0.64882l-0.36046,0.56186l-0.62428,0.32441l-0.72091,0l-0.62429,-0.32441l-0.36045,-0.56186l0,-0.64882z" stroke="#fff"/>
  <path fill="#7b5bdd" class="globe_dot" stroke-width="1" d="m142.57848,163.83588l0.36045,-0.56185l0.62429,-0.32442l0.72091,0l0.62428,0.32442l0.36046,0.56185l0,0.64882l-0.36046,0.56186l-0.62428,0.32441l-0.72091,0l-0.62429,-0.32441l-0.36045,-0.56186l0,-0.64882z" stroke="#fff"/>
  <path fill="#7b5bdd" class="globe_dot" stroke-width="1" d="m221.48664,102.8969l0.36045,-0.56185l0.62429,-0.32442l0.72091,0l0.62428,0.32442l0.36046,0.56185l0,0.64882l-0.36046,0.56186l-0.62428,0.32441l-0.72091,0l-0.62429,-0.32441l-0.36045,-0.56186l0,-0.64882z" stroke="#fff"/>
  <path fill="#7b5bdd" class="globe_dot" stroke-width="1" d="m167.90601,28.38782l0.36045,-0.56185l0.62429,-0.32442l0.72091,0l0.62428,0.32442l0.36046,0.56185l0,0.64882l-0.36046,0.56186l-0.62428,0.32441l-0.72091,0l-0.62429,-0.32441l-0.36045,-0.56186l0,-0.64882z" stroke="#fff"/>
  <path fill="#7b5bdd" class="globe_dot" stroke-width="1" d="m183.79181,24.48147l0.36045,-0.56185l0.62429,-0.32442l0.72091,0l0.62428,0.32442l0.36046,0.56185l0,0.64882l-0.36046,0.56186l-0.62428,0.32441l-0.72091,0l-0.62429,-0.32441l-0.36045,-0.56186l0,-0.64882z" stroke="#fff"/>
  <path fill="#7b5bdd" class="globe_dot" stroke-width="1" d="m163.21839,21.09597l0.36045,-0.56185l0.62429,-0.32442l0.72091,0l0.62428,0.32442l0.36046,0.56185l0,0.64882l-0.36046,0.56186l-0.62428,0.32441l-0.72091,0l-0.62429,-0.32441l-0.36045,-0.56186l0,-0.64882z" stroke="#fff"/>
  <path fill="#7b5bdd" class="globe_dot" stroke-width="1" d="m210.8093,96.90717l0.36045,-0.56185l0.62429,-0.32442l0.72091,0l0.62428,0.32442l0.36046,0.56185l0,0.64882l-0.36046,0.56186l-0.62428,0.32441l-0.72091,0l-0.62429,-0.32441l-0.36045,-0.56186l0,-0.64882z" stroke="#fff"/>
  <path fill="#7b5bdd" class="globe_dot" stroke-width="1" d="m222.78876,84.66729l0.36044,-0.56185l0.62429,-0.32442l0.72092,0l0.62427,0.32442l0.36046,0.56185l0,0.64882l-0.36046,0.56186l-0.62427,0.32441l-0.72092,0l-0.62429,-0.32441l-0.36044,-0.56186l0,-0.64882z" stroke="#fff"/>
  <path fill="#7b5bdd" class="globe_dot" stroke-width="1" d="m260.28966,91.43829l0.36045,-0.56185l0.62429,-0.32442l0.72091,0l0.62428,0.32442l0.36046,0.56185l0,0.64882l-0.36046,0.56186l-0.62428,0.32441l-0.72091,0l-0.62429,-0.32441l-0.36045,-0.56186l0,-0.64882z" stroke="#fff"/>
  <path fill="#7b5bdd" class="globe_dot" stroke-width="1" d="m245.44555,118.00143l0.36045,-0.56185l0.62429,-0.32442l0.72091,0l0.62428,0.32442l0.36046,0.56185l0,0.64882l-0.36046,0.56186l-0.62428,0.32441l-0.72091,0l-0.62429,-0.32441l-0.36045,-0.56186l0,-0.64882z" stroke="#fff"/>
  <path fill="#7b5bdd" class="globe_dot" stroke-width="1" d="m251.6957,152.11684l0.36045,-0.56185l0.62429,-0.32442l0.72091,0l0.62428,0.32442l0.36046,0.56185l0,0.64882l-0.36046,0.56186l-0.62428,0.32441l-0.72091,0l-0.62429,-0.32441l-0.36045,-0.56186l0,-0.64882z" stroke="#fff"/>
  <path fill="#7b5bdd" class="globe_dot" stroke-width="1" d="m279.30054,79.19841l0.36045,-0.56185l0.62429,-0.32442l0.72091,0l0.62428,0.32442l0.36046,0.56185l0,0.64882l-0.36046,0.56186l-0.62428,0.32441l-0.72091,0l-0.62429,-0.32441l-0.36045,-0.56186l0,-0.64882z" stroke="#fff"/>
  <path fill="#7b5bdd" class="globe_dot" stroke-width="1" d="m281.90477,88.31321l0.36045,-0.56185l0.62429,-0.32442l0.72091,0l0.62428,0.32442l0.36046,0.56185l0,0.64882l-0.36046,0.56186l-0.62428,0.32441l-0.72091,0l-0.62429,-0.32441l-0.36045,-0.56186l0,-0.64882z" stroke="#fff"/>
  <path fill="#7b5bdd" class="globe_dot" stroke-width="1" d="m294.14465,92.7404l0.36045,-0.56185l0.62429,-0.32442l0.72091,0l0.62428,0.32442l0.36046,0.56185l0,0.64882l-0.36046,0.56186l-0.62428,0.32441l-0.72091,0l-0.62429,-0.32441l-0.36045,-0.56186l0,-0.64882z" stroke="#fff"/>
  <path fill="#7b5bdd" class="globe_dot" stroke-width="1" d="m236.07032,56.80203l0.36045,-0.56185l0.62429,-0.32442l0.72091,0l0.62428,0.32442l0.36046,0.56185l0,0.64882l-0.36046,0.56186l-0.62428,0.32441l-0.72091,0l-0.62429,-0.32441l-0.36045,-0.56186l0,-0.64882z" stroke="#fff"/>
  <path fill="#7b5bdd" class="globe_dot" stroke-width="1" d="m242.32048,62.27091l0.36045,-0.56185l0.62429,-0.32442l0.72091,0l0.62428,0.32442l0.36046,0.56185l0,0.64882l-0.36046,0.56186l-0.62428,0.32441l-0.72091,0l-0.62429,-0.32441l-0.36045,-0.56186l0,-0.64882z" stroke="#fff"/>
  <path fill="#7b5bdd" class="globe_dot" stroke-width="1" d="m254.03951,59.66668l0.36045,-0.56185l0.62429,-0.32442l0.72091,0l0.62428,0.32442l0.36046,0.56185l0,0.64882l-0.36046,0.56186l-0.62428,0.32441l-0.72091,0l-0.62429,-0.32441l-0.36045,-0.56186l0,-0.64882z" stroke="#fff"/>
  <path fill="#7b5bdd" class="globe_dot" stroke-width="1" d="m247.00809,55.76034l0.36045,-0.56185l0.62429,-0.32442l0.72091,0l0.62428,0.32442l0.36046,0.56185l0,0.64882l-0.36046,0.56186l-0.62428,0.32441l-0.72091,0l-0.62429,-0.32441l-0.36045,-0.56186l0,-0.64882z" stroke="#fff"/>
  <path fill="#7b5bdd" class="globe_dot" stroke-width="1" d="m262.8939,63.05218l0.36045,-0.56185l0.62429,-0.32442l0.72091,0l0.62428,0.32442l0.36046,0.56185l0,0.64882l-0.36046,0.56186l-0.62428,0.32441l-0.72091,0l-0.62429,-0.32441l-0.36045,-0.56186l0,-0.64882z" stroke="#fff"/>
  <path fill="#7b5bdd" class="globe_dot" stroke-width="1" d="m265.49813,56.02076l0.36045,-0.56185l0.62429,-0.32442l0.72091,0l0.62428,0.32442l0.36046,0.56185l0,0.64882l-0.36046,0.56186l-0.62428,0.32441l-0.72091,0l-0.62429,-0.32441l-0.36045,-0.56186l0,-0.64882z" stroke="#fff"/>
  <path fill="#7b5bdd" class="globe_dot" stroke-width="1" d="m279.82139,66.17726l0.36045,-0.56185l0.62429,-0.32442l0.72091,0l0.62428,0.32442l0.36046,0.56185l0,0.64882l-0.36046,0.56186l-0.62428,0.32441l-0.72091,0l-0.62429,-0.32441l-0.36045,-0.56186l0,-0.64882z" stroke="#fff"/>
  <path fill="#7b5bdd" class="globe_dot" stroke-width="1" d="m262.11263,47.94765l0.36045,-0.56185l0.62429,-0.32442l0.72091,0l0.62428,0.32442l0.36046,0.56185l0,0.64882l-0.36046,0.56186l-0.62428,0.32441l-0.72091,0l-0.62429,-0.32441l-0.36045,-0.56186l0,-0.64882z" stroke="#fff"/>
  <path fill="#7b5bdd" class="globe_dot" stroke-width="1" d="m281.38393,50.03103l0.36045,-0.56185l0.62429,-0.32442l0.72091,0l0.62428,0.32442l0.36046,0.56185l0,0.64882l-0.36046,0.56186l-0.62428,0.32441l-0.72091,0l-0.62429,-0.32441l-0.36045,-0.56186l0,-0.64882z" stroke="#fff"/>
  <path fill="#7b5bdd" class="globe_dot" stroke-width="1" d="m296.22804,60.18753l0.36045,-0.56185l0.62429,-0.32442l0.72091,0l0.62428,0.32442l0.36046,0.56185l0,0.64882l-0.36046,0.56186l-0.62428,0.32441l-0.72091,0l-0.62429,-0.32441l-0.36045,-0.56186l0,-0.64882z" stroke="#fff"/>
  <path fill="#7b5bdd" class="globe_dot" stroke-width="1" d="m294.6655,70.60445l0.36046,-0.56185l0.62428,-0.32442l0.72091,0l0.62428,0.32442l0.36046,0.56185l0,0.64882l-0.36046,0.56186l-0.62428,0.32441l-0.72091,0l-0.62428,-0.32441l-0.36046,-0.56186l0,-0.64882z" stroke="#fff"/>
  <path fill="#7b5bdd" class="globe_dot" stroke-width="1" d="m305.34284,79.45883l0.36045,-0.56185l0.62429,-0.32442l0.72091,0l0.62428,0.32442l0.36046,0.56185l0,0.64882l-0.36046,0.56186l-0.62428,0.32441l-0.72091,0l-0.62429,-0.32441l-0.36045,-0.56186l0,-0.64882z" stroke="#fff"/>
  <path fill="#7b5bdd" class="globe_dot" stroke-width="1" d="m299.61354,77.11502l0.36045,-0.56185l0.62429,-0.32442l0.72091,0l0.62428,0.32442l0.36046,0.56185l0,0.64882l-0.36046,0.56186l-0.62428,0.32441l-0.72091,0l-0.62429,-0.32441l-0.36045,-0.56186l0,-0.64882z" stroke="#fff"/>
  <path fill="#7b5bdd" class="globe_dot" stroke-width="1" d="m281.90477,60.18753l0.36045,-0.56185l0.62429,-0.32442l0.72091,0l0.62428,0.32442l0.36046,0.56185l0,0.64882l-0.36046,0.56186l-0.62428,0.32441l-0.72091,0l-0.62429,-0.32441l-0.36045,-0.56186l0,-0.64882z" stroke="#fff"/>
  <path fill="#7b5bdd" class="globe_dot" stroke-width="1" d="m287.63408,65.91684l0.36045,-0.56185l0.62429,-0.32442l0.72091,0l0.62428,0.32442l0.36046,0.56185l0,0.64882l-0.36046,0.56186l-0.62428,0.32441l-0.72091,0l-0.62429,-0.32441l-0.36045,-0.56186l0,-0.64882z" stroke="#fff"/>
  <path fill="#7b5bdd" class="globe_dot" stroke-width="1" d="m270.96701,62.01049l0.36045,-0.56185l0.62429,-0.32442l0.72091,0l0.62428,0.32442l0.36046,0.56185l0,0.64882l-0.36046,0.56186l-0.62428,0.32441l-0.72091,0l-0.62429,-0.32441l-0.36045,-0.56186l0,-0.64882z" stroke="#fff"/>
  <path fill="#7b5bdd" class="globe_dot" stroke-width="1" d="m273.31082,50.03103l0.36045,-0.56185l0.62429,-0.32442l0.72091,0l0.62428,0.32442l0.36046,0.56185l0,0.64882l-0.36046,0.56186l-0.62428,0.32441l-0.72091,0l-0.62429,-0.32441l-0.36045,-0.56186l0,-0.64882z" stroke="#fff"/>
  <path fill="#7b5bdd" class="globe_dot" stroke-width="1" d="m279.56097,42.21834l0.36045,-0.56185l0.62429,-0.32442l0.72091,0l0.62428,0.32442l0.36046,0.56185l0,0.64882l-0.36046,0.56186l-0.62428,0.32441l-0.72091,0l-0.62429,-0.32441l-0.36045,-0.56186l0,-0.64882z" stroke="#fff"/>
  <path fill="#7b5bdd" class="globe_dot" stroke-width="1" d="m294.14466,53.93738l0.36045,-0.56185l0.62428,-0.32442l0.72091,0l0.62428,0.32442l0.36046,0.56185l0,0.64882l-0.36046,0.56186l-0.62428,0.32441l-0.72091,0l-0.62428,-0.32441l-0.36045,-0.56186l0,-0.64882z" stroke="#fff"/>
  <path fill="#7b5bdd" class="globe_dot" stroke-width="1" d="m313.67637,69.56276l0.36045,-0.56185l0.62429,-0.32442l0.72091,0l0.62428,0.32442l0.36046,0.56185l0,0.64882l-0.36046,0.56186l-0.62428,0.32441l-0.72091,0l-0.62429,-0.32441l-0.36045,-0.56186l0,-0.64882z" stroke="#fff"/>
  <path fill="#7b5bdd" class="globe_dot" stroke-width="1" d="m313.67637,43.52046l0.36045,-0.56185l0.62429,-0.32442l0.72091,0l0.62428,0.32442l0.36046,0.56185l0,0.64882l-0.36046,0.56186l-0.62428,0.32441l-0.72091,0l-0.62429,-0.32441l-0.36045,-0.56186l0,-0.64882z" stroke="#fff"/>
  <path fill="#7b5bdd" class="globe_dot" stroke-width="1" d="m315.75976,56.28119l0.36045,-0.56185l0.62429,-0.32442l0.72091,0l0.62428,0.32442l0.36046,0.56185l0,0.64882l-0.36046,0.56186l-0.62428,0.32441l-0.72091,0l-0.62429,-0.32441l-0.36045,-0.56186l0,-0.64882z" stroke="#fff"/>
  <path fill="#7b5bdd" class="globe_dot" stroke-width="1" d="m337.63529,55.49992l0.36045,-0.56185l0.62429,-0.32442l0.72091,0l0.62428,0.32442l0.36046,0.56185l0,0.64882l-0.36046,0.56186l-0.62428,0.32441l-0.72091,0l-0.62429,-0.32441l-0.36045,-0.56186l0,-0.64882z" stroke="#fff"/>
  <path fill="#7b5bdd" class="globe_dot" stroke-width="1" d="m330.08302,64.61473l0.36045,-0.56185l0.62429,-0.32443l0.72091,0l0.62428,0.32443l0.36046,0.56185l0,0.64882l-0.36046,0.56186l-0.62428,0.32441l-0.72091,0l-0.62429,-0.32441l-0.36045,-0.56186l0,-0.64882z" stroke="#fff"/>
  <path fill="#7b5bdd" class="globe_dot" stroke-width="1" d="m324.35372,79.19841l0.36045,-0.56185l0.62429,-0.32442l0.72091,0l0.62428,0.32442l0.36046,0.56185l0,0.64882l-0.36046,0.56186l-0.62428,0.32441l-0.72091,0l-0.62429,-0.32441l-0.36045,-0.56186l0,-0.64882z" stroke="#fff"/>
  <path fill="#7b5bdd" class="globe_dot" stroke-width="1" d="m341.02079,77.63587l0.36045,-0.56185l0.62429,-0.32442l0.72091,0l0.62428,0.32442l0.36046,0.56185l0,0.64882l-0.36046,0.56186l-0.62428,0.32441l-0.72091,0l-0.62429,-0.32441l-0.36045,-0.56186l0,-0.64882z" stroke="#fff"/>
  <path fill="#7b5bdd" class="globe_dot" stroke-width="1" d="m327.99964,93.52167l0.36045,-0.56185l0.62429,-0.32442l0.72091,0l0.62428,0.32442l0.36046,0.56185l0,0.64882l-0.36046,0.56186l-0.62428,0.32441l-0.72091,0l-0.62429,-0.32441l-0.36045,-0.56186l0,-0.64882z" stroke="#fff"/>
  <path fill="#7b5bdd" class="globe_dot" stroke-width="1" d="m356.38575,89.87575l0.36045,-0.56185l0.62429,-0.32442l0.72091,0l0.62428,0.32442l0.36046,0.56185l0,0.64882l-0.36046,0.56186l-0.62428,0.32441l-0.72091,0l-0.62429,-0.32441l-0.36045,-0.56186l0,-0.64882z" stroke="#fff"/>
  <path fill="#7b5bdd" class="globe_dot" stroke-width="1" d="m371.75071,85.44856l0.36045,-0.56185l0.62429,-0.32442l0.72091,0l0.62428,0.32442l0.36046,0.56185l0,0.64882l-0.36046,0.56186l-0.62428,0.32441l-0.72091,0l-0.62429,-0.32441l-0.36045,-0.56186l0,-0.64882z" stroke="#fff"/>
  <path fill="#7b5bdd" class="globe_dot" stroke-width="1" d="m357.94829,79.97968l0.36045,-0.56185l0.62429,-0.32442l0.72091,0l0.62428,0.32442l0.36046,0.56185l0,0.64882l-0.36046,0.56186l-0.62428,0.32441l-0.72091,0l-0.62429,-0.32441l-0.36045,-0.56186l0,-0.64882z" stroke="#fff"/>
  <path fill="#7b5bdd" class="globe_dot" stroke-width="1" d="m372.7924,72.94826l0.36045,-0.56185l0.62429,-0.32442l0.72091,0l0.62428,0.32442l0.36046,0.56185l0,0.64882l-0.36046,0.56186l-0.62428,0.32441l-0.72091,0l-0.62429,-0.32441l-0.36045,-0.56186l0,-0.64882z" stroke="#fff"/>
  <path fill="#7b5bdd" class="globe_dot" stroke-width="1" d="m354.30237,68.78149l0.36045,-0.56185l0.62429,-0.32442l0.72091,0l0.62428,0.32442l0.36046,0.56185l0,0.64882l-0.36046,0.56186l-0.62428,0.32441l-0.72091,0l-0.62429,-0.32441l-0.36045,-0.56186l0,-0.64882z" stroke="#fff"/>
  <path fill="#7b5bdd" class="globe_dot" stroke-width="1" d="m364.670082,57.176468l0.36045,-0.56185l0.62429,-0.32442l0.72091,0l0.62428,0.32442l0.36046,0.56185l0,0.64882l-0.36046,0.56186l-0.62428,0.32441l-0.72091,0l-0.62429,-0.32441l-0.36045,-0.56186l0,-0.64882z" stroke="#fff"/>
  <path fill="#7b5bdd" class="globe_dot" stroke-width="1" d="m338.15614,41.95792l0.36045,-0.56185l0.62429,-0.32442l0.72091,0l0.62428,0.32442l0.36046,0.56185l0,0.64882l-0.36046,0.56186l-0.62428,0.32441l-0.72091,0l-0.62429,-0.32441l-0.36045,-0.56186l0,-0.64882z" stroke="#fff"/>
  <path fill="#7b5bdd" class="globe_dot" stroke-width="1" d="m351.95856,53.41654l0.36045,-0.56185l0.62429,-0.32443l0.72091,0l0.62428,0.32443l0.36046,0.56185l0,0.64882l-0.36046,0.56186l-0.62428,0.32441l-0.72091,0l-0.62429,-0.32441l-0.36045,-0.56186l0,-0.64882z" stroke="#fff"/>
  <path fill="#7b5bdd" class="globe_dot" stroke-width="1" d="m496.950031,36.261025l0.36045,-0.56185l0.62429,-0.32443l0.72091,0l0.62428,0.32443l0.36046,0.56185l0,0.64882l-0.36046,0.56186l-0.62428,0.32441l-0.72091,0l-0.62429,-0.32441l-0.36045,-0.56186l0,-0.64882z" stroke="#fff"/>
  <path fill="#7b5bdd" class="globe_dot" stroke-width="1" d="m379.82382,48.20808l0.36045,-0.56185l0.62429,-0.32442l0.72091,0l0.62428,0.32442l0.36046,0.56185l0,0.64882l-0.36046,0.56186l-0.62428,0.32441l-0.72091,0l-0.62429,-0.32441l-0.36045,-0.56186l0,-0.64882z" stroke="#fff"/>
  <path fill="#7b5bdd" class="globe_dot" stroke-width="1" d="m384.51144,57.5833l0.36045,-0.56185l0.62429,-0.32442l0.72091,0l0.62428,0.32442l0.36046,0.56185l0,0.64882l-0.36046,0.56186l-0.62428,0.32441l-0.72091,0l-0.62429,-0.32441l-0.36045,-0.56186l0,-0.64882z" stroke="#fff"/>
  <path fill="#7b5bdd" class="globe_dot" stroke-width="1" d="m401.69936,55.76034l0.36045,-0.56185l0.62429,-0.32442l0.72091,0l0.62428,0.32442l0.36046,0.56185l0,0.64882l-0.36046,0.56186l-0.62428,0.32441l-0.72091,0l-0.62429,-0.32441l-0.36045,-0.56186l0,-0.64882z" stroke="#fff"/>
  <path fill="#7b5bdd" class="globe_dot" stroke-width="1" d="m395.97005,45.083l0.36045,-0.56185l0.62429,-0.32442l0.72091,0l0.62428,0.32442l0.36046,0.56185l0,0.64882l-0.36046,0.56186l-0.62428,0.32441l-0.72091,0l-0.62429,-0.32441l-0.36045,-0.56186l0,-0.64882z" stroke="#fff"/>
  <path fill="#7b5bdd" class="globe_dot" stroke-width="1" d="m400.91809,32.84312l0.36045,-0.56185l0.62429,-0.32442l0.72091,0l0.62428,0.32442l0.36046,0.56185l0,0.64882l-0.36046,0.56186l-0.62428,0.32441l-0.72091,0l-0.62429,-0.32441l-0.36045,-0.56186l0,-0.64882z" stroke="#fff"/>
  <path fill="#7b5bdd" class="globe_dot" stroke-width="1" d="m424.877,35.96819l0.36045,-0.56185l0.62429,-0.32442l0.72091,0l0.62428,0.32442l0.36046,0.56185l0,0.64882l-0.36046,0.56186l-0.62428,0.32441l-0.72091,0l-0.62429,-0.32441l-0.36045,-0.56186l0,-0.64882z" stroke="#fff"/>
  <path fill="#7b5bdd" class="globe_dot" stroke-width="1" d="m387.86698,155.30732l0.36045,-0.56185l0.62429,-0.32442l0.72091,0l0.62428,0.32442l0.36046,0.56185l0,0.64882l-0.36046,0.56186l-0.62428,0.32441l-0.72091,0l-0.62429,-0.32441l-0.36045,-0.56186l0,-0.64882z" stroke="#fff"/>
  <path fill="#7b5bdd" class="globe_dot" stroke-width="1" d="m394.34841,146.97405l0.36045,-0.56185l0.62429,-0.32442l0.72091,0l0.62428,0.32442l0.36046,0.56185l0,0.64882l-0.36046,0.56186l-0.62428,0.32441l-0.72091,0l-0.62429,-0.32441l-0.36045,-0.56186l0,-0.64882z" stroke="#fff"/>
  <path fill="#7b5bdd" class="globe_dot" stroke-width="1" d="m383.23739,150.98637l0.36045,-0.56185l0.62429,-0.32442l0.72091,0l0.62428,0.32442l0.36046,0.56185l0,0.64882l-0.36046,0.56186l-0.62428,0.32441l-0.72091,0l-0.62429,-0.32441l-0.36045,-0.56186l0,-0.64882z" stroke="#fff"/>
  <path fill="#7b5bdd" class="globe_dot" stroke-width="1" d="m404.53351,157.4678l0.36045,-0.56185l0.62429,-0.32442l0.72091,0l0.62428,0.32442l0.36046,0.56185l0,0.64882l-0.36046,0.56186l-0.62428,0.32441l-0.72091,0l-0.62429,-0.32441l-0.36045,-0.56186l0,-0.64882z" stroke="#fff"/>
  <path fill="#7b5bdd" class="globe_dot" stroke-width="1" d="m416.26182,149.13453l0.36045,-0.56185l0.62429,-0.32442l0.72091,0l0.62428,0.32442l0.36045,0.56185l0,0.64882l-0.36045,0.56186l-0.62428,0.32441l-0.72091,0l-0.62429,-0.32441l-0.36045,-0.56186l0,-0.64882z" stroke="#fff"/>
  <path fill="#7b5bdd" class="globe_dot" stroke-width="1" d="m420.89141,160.24555l0.36045,-0.56185l0.62429,-0.32442l0.72091,0l0.62428,0.32442l0.36046,0.56185l0,0.64882l-0.36046,0.56186l-0.62428,0.32441l-0.72091,0l-0.62429,-0.32441l-0.36045,-0.56186l0,-0.64882z" stroke="#fff"/>
  <path fill="#7b5bdd" class="globe_dot" stroke-width="1" d="m405.45943,150.36909l0.36045,-0.56185l0.62429,-0.32442l0.72091,0l0.62428,0.32442l0.36046,0.56185l0,0.64882l-0.36046,0.56186l-0.62428,0.32441l-0.72091,0l-0.62429,-0.32441l-0.36045,-0.56186l0,-0.64882z" stroke="#fff"/>
  <path fill="#7b5bdd" class="globe_dot" stroke-width="1" d="m355.153281,32.579205l0.36045,-0.56185l0.62429,-0.32442l0.72091,0l0.62428,0.32442l0.36046,0.56185l0,0.64882l-0.36046,0.56186l-0.62428,0.32441l-0.72091,0l-0.62429,-0.32441l-0.36045,-0.56186l0,-0.64882z" stroke="#fff"/>
  <path fill="#7b5bdd" class="globe_dot" stroke-width="1" d="m367.305501,36.825156l0.36045,-0.56185l0.62429,-0.32442l0.72091,0l0.62428,0.32442l0.36046,0.56185l0,0.64882l-0.36046,0.56186l-0.62428,0.32441l-0.72091,0l-0.62429,-0.32441l-0.36045,-0.56186l0,-0.64882z" stroke="#fff"/>
  <path fill="#7b5bdd" class="globe_dot" stroke-width="1" d="m515.251567,38.750029l0.36045,-0.56185l0.62429,-0.32443l0.72091,0l0.62428,0.32443l0.36046,0.56185l0,0.64882l-0.36046,0.56186l-0.62428,0.32441l-0.72091,0l-0.62429,-0.32441l-0.36045,-0.56186l0,-0.64882z" stroke="#fff"/>
  <path fill="#7b5bdd" class="globe_dot" stroke-width="1" d="m532.08898,37.725143l0.36045,-0.56185l0.62429,-0.32443l0.72091,0l0.62428,0.32443l0.36046,0.56185l0,0.64882l-0.36046,0.56186l-0.62428,0.32441l-0.72091,0l-0.62429,-0.32441l-0.36045,-0.56186l0,-0.64882z" stroke="#fff"/>
  <path fill="#7b5bdd" class="globe_dot" stroke-width="1" d="m535.017226,49.145299l0.36045,-0.56185l0.62429,-0.32443l0.72091,0l0.62428,0.32443l0.36046,0.56185l0,0.64882l-0.36046,0.56186l-0.62428,0.32441l-0.72091,0l-0.62429,-0.32441l-0.36045,-0.56186l0,-0.64882z" stroke="#fff"/>
  <path fill="#7b5bdd" class="globe_dot" stroke-width="1" d="m551.415404,43.43522l0.36045,-0.56185l0.62429,-0.32443l0.72091,0l0.62428,0.32443l0.36046,0.56185l0,0.64882l-0.36046,0.56186l-0.62428,0.32441l-0.72091,0l-0.62429,-0.32441l-0.36045,-0.56186l0,-0.64882z" stroke="#fff"/>
  <path fill="#7b5bdd" class="globe_dot" stroke-width="1" d="m569.86335,49.584536l0.36045,-0.56185l0.62429,-0.32443l0.72091,0l0.62428,0.32443l0.36046,0.56185l0,0.64882l-0.36046,0.56186l-0.62428,0.32441l-0.72091,0l-0.62429,-0.32441l-0.36045,-0.56186l0,-0.64882z" stroke="#fff"/>
  <path fill="#7b5bdd" class="globe_dot" stroke-width="1" d="m566.203043,38.457205l0.36045,-0.56185l0.62429,-0.32443l0.72091,0l0.62428,0.32443l0.36046,0.56185l0,0.64882l-0.36046,0.56186l-0.62428,0.32441l-0.72091,0l-0.62429,-0.32441l-0.36045,-0.56186l0,-0.64882z" stroke="#fff"/>
  <path fill="#7b5bdd" class="globe_dot" stroke-width="1" d="m547.023028,66.129135l0.36045,-0.56185l0.62429,-0.32443l0.72091,0l0.62428,0.32443l0.36046,0.56185l0,0.64882l-0.36046,0.56186l-0.62428,0.32441l-0.72091,0l-0.62429,-0.32441l-0.36045,-0.56186l0,-0.64882z" stroke="#fff"/>
  <path fill="#7b5bdd" class="globe_dot" stroke-width="1" d="m548.779977,56.612335l0.36045,-0.56185l0.62429,-0.32443l0.72091,0l0.62428,0.32443l0.36046,0.56185l0,0.64882l-0.36046,0.56186l-0.62428,0.32441l-0.72091,0l-0.62429,-0.32441l-0.36045,-0.56186l0,-0.64882z" stroke="#fff"/>
  <path fill="#7b5bdd" class="globe_dot" stroke-width="1" d="m563.274798,59.686988l0.36045,-0.56185l0.62429,-0.32443l0.72091,0l0.62428,0.32443l0.36046,0.56185l0,0.64882l-0.36046,0.56186l-0.62428,0.32441l-0.72091,0l-0.62429,-0.32441l-0.36045,-0.56186l0,-0.64882z" stroke="#fff"/>
  <path fill="#7b5bdd" class="globe_dot" stroke-width="1" d="m558.589606,79.013414l0.36045,-0.56185l0.62429,-0.32443l0.72091,0l0.62428,0.32443l0.36046,0.56185l0,0.64882l-0.36046,0.56186l-0.62428,0.32441l-0.72091,0l-0.62429,-0.32441l-0.36045,-0.56186l0,-0.64882z" stroke="#fff"/>
  <path fill="#7b5bdd" class="globe_dot" stroke-width="1" d="m576.891147,69.203786l0.36045,-0.56185l0.62429,-0.32443l0.72091,0l0.62428,0.32443l0.36046,0.56185l0,0.64882l-0.36046,0.56186l-0.62428,0.32441l-0.72091,0l-0.62429,-0.32441l-0.36045,-0.56186l0,-0.64882z" stroke="#fff"/>
  <path fill="#7b5bdd" class="globe_dot" stroke-width="1" d="m558.150376,72.278448l0.36045,-0.56185l0.62429,-0.32443l0.72091,0l0.62428,0.32443l0.36046,0.56185l0,0.64882l-0.36046,0.56186l-0.62428,0.32441l-0.72091,0l-0.62429,-0.32441l-0.36045,-0.56186l0,-0.64882z" stroke="#fff"/>
  <path fill="#7b5bdd" class="globe_dot" stroke-width="1" d="m571.327487,80.038302l0.36045,-0.56185l0.62429,-0.32443l0.72091,0l0.62428,0.32443l0.36046,0.56185l0,0.64882l-0.36046,0.56186l-0.62428,0.32441l-0.72091,0l-0.62429,-0.32441l-0.36045,-0.56186l0,-0.64882z" stroke="#fff"/>
  <path fill="#7b5bdd" class="globe_dot" stroke-width="1" d="m591.239563,73.888984l0.36045,-0.56185l0.62429,-0.32443l0.72091,0l0.62428,0.32443l0.36046,0.56185l0,0.64882l-0.36046,0.56186l-0.62428,0.32441l-0.72091,0l-0.62429,-0.32441l-0.36045,-0.56186l0,-0.64882z" stroke="#fff"/>
  <path fill="#7b5bdd" class="globe_dot" stroke-width="1" d="m588.457726,61.883171l0.36045,-0.56185l0.62429,-0.32443l0.72091,0l0.62428,0.32443l0.36046,0.56185l0,0.64882l-0.36046,0.56186l-0.62428,0.32441l-0.72091,0l-0.62429,-0.32441l-0.36045,-0.56186l0,-0.64882z" stroke="#fff"/>
  <path fill="#7b5bdd" class="globe_dot" stroke-width="1" d="m601.927662,61.151108l0.36045,-0.56185l0.62429,-0.32443l0.72091,0l0.62428,0.32443l0.36046,0.56185l0,0.64882l-0.36046,0.56186l-0.62428,0.32441l-0.72091,0l-0.62429,-0.32441l-0.36045,-0.56186l0,-0.64882z" stroke="#fff"/>
  <path fill="#7b5bdd" class="globe_dot" stroke-width="1" d="m583.47971,53.976908l0.36045,-0.56185l0.62429,-0.32443l0.72091,0l0.62428,0.32443l0.36046,0.56185l0,0.64882l-0.36046,0.56186l-0.62428,0.32441l-0.72091,0l-0.62429,-0.32441l-0.36045,-0.56186l0,-0.64882z" stroke="#fff"/>
  <path fill="#7b5bdd" class="globe_dot" stroke-width="1" d="m609.687512,110.784882l0.36045,-0.56185l0.62429,-0.32443l0.72091,0l0.62428,0.32443l0.36046,0.56185l0,0.64882l-0.36046,0.56186l-0.62428,0.32441l-0.72091,0l-0.62429,-0.32441l-0.36045,-0.56186l0,-0.64882z" stroke="#fff"/>
  <path fill="#7b5bdd" class="globe_dot" stroke-width="1" d="m602.366895,122.937101l0.36045,-0.56185l0.62429,-0.32443l0.72091,0l0.62428,0.32443l0.36046,0.56185l0,0.64882l-0.36046,0.56186l-0.62428,0.32441l-0.72091,0l-0.62429,-0.32441l-0.36045,-0.56186l0,-0.64882z" stroke="#fff"/>
  <path fill="#7b5bdd" class="globe_dot" stroke-width="1" d="m613.20141,118.983968l0.36045,-0.56185l0.62429,-0.32443l0.72091,0l0.62428,0.32443l0.36046,0.56185l0,0.64882l-0.36046,0.56186l-0.62428,0.32441l-0.72091,0l-0.62429,-0.32441l-0.36045,-0.56186l0,-0.64882z" stroke="#fff"/>
  <path fill="#7b5bdd" class="globe_dot" stroke-width="1" d="m631.502947,133.478788l0.36045,-0.56185l0.62429,-0.32443l0.72091,0l0.62428,0.32443l0.36046,0.56185l0,0.64882l-0.36046,0.56186l-0.62428,0.32441l-0.72091,0l-0.62429,-0.32441l-0.36045,-0.56186l0,-0.64882z" stroke="#fff"/>
  <path fill="#7b5bdd" class="globe_dot" stroke-width="1" d="m609.541105,135.821387l0.36045,-0.56185l0.62429,-0.32443l0.72091,0l0.62428,0.32443l0.36046,0.56185l0,0.64882l-0.36046,0.56186l-0.62428,0.32441l-0.72091,0l-0.62429,-0.32441l-0.36045,-0.56186l0,-0.64882z" stroke="#fff"/>
  <path fill="#7b5bdd" class="globe_dot" stroke-width="1" d="m617.300952,148.412847l0.36045,-0.56185l0.62429,-0.32443l0.72091,0l0.62428,0.32443l0.36046,0.56185l0,0.64882l-0.36046,0.56186l-0.62428,0.32441l-0.72091,0l-0.62429,-0.32441l-0.36045,-0.56186l0,-0.64882z" stroke="#fff"/>
  <path fill="#7b5bdd" class="globe_dot" stroke-width="1" d="m632.235004,145.338192l0.36045,-0.56185l0.62429,-0.32443l0.72091,0l0.62428,0.32443l0.36046,0.56185l0,0.64882l-0.36046,0.56186l-0.62428,0.32441l-0.72091,0l-0.62429,-0.32441l-0.36045,-0.56186l0,-0.64882z" stroke="#fff"/>
  <path fill="#7b5bdd" class="globe_dot" stroke-width="1" d="m618.618657,131.429022l0.36045,-0.56185l0.62429,-0.32443l0.72091,0l0.62428,0.32443l0.36046,0.56185l0,0.64882l-0.36046,0.56186l-0.62428,0.32441l-0.72091,0l-0.62429,-0.32441l-0.36045,-0.56186l0,-0.64882z" stroke="#fff"/>
  <path fill="#7b5bdd" class="globe_dot" stroke-width="1" d="m622.132555,141.677881l0.36045,-0.56185l0.62429,-0.32443l0.72091,0l0.62428,0.32443l0.36046,0.56185l0,0.64882l-0.36046,0.56186l-0.62428,0.32441l-0.72091,0l-0.62429,-0.32441l-0.36045,-0.56186l0,-0.64882z" stroke="#fff"/>
  <path fill="#7b5bdd" class="globe_dot" stroke-width="1" d="m611.29805,156.465522l0.36045,-0.56185l0.62429,-0.32443l0.72091,0l0.62428,0.32443l0.36046,0.56185l0,0.64882l-0.36046,0.56186l-0.62428,0.32441l-0.72091,0l-0.62429,-0.32441l-0.36045,-0.56186l0,-0.64882z" stroke="#fff"/>
  <path fill="#7b5bdd" class="globe_dot" stroke-width="1" d="m625.57b5bdd43,155.733458l0.36045,-0.56185l0.62429,-0.32443l0.72091,0l0.62428,0.32443l0.36046,0.56185l0,0.64882l-0.36046,0.56186l-0.62428,0.32441l-0.72091,0l-0.62429,-0.32441l-0.36045,-0.56186l0,-0.64882z" stroke="#fff"/>
  <path fill="#7b5bdd" class="globe_dot" stroke-width="1" d="m611.005222,168.764155l0.36045,-0.56185l0.62429,-0.32443l0.72091,0l0.62428,0.32443l0.36046,0.56185l0,0.64882l-0.36046,0.56186l-0.62428,0.32441l-0.72091,0l-0.62429,-0.32441l-0.36045,-0.56186l0,-0.64882z" stroke="#fff"/>
  <path fill="#7b5bdd" class="globe_dot" stroke-width="1" d="m605.484145,49.854039l0.36045,-0.56185l0.62429,-0.32443l0.72091,0l0.62428,0.32443l0.36046,0.56185l0,0.64882l-0.36046,0.56186l-0.62428,0.32441l-0.72091,0l-0.62429,-0.32441l-0.36045,-0.56186l0,-0.64882z" stroke="#fff"/>
 </g>
</svg>