<svg width="49" height="49" viewBox="0 0 49 49" fill="none" xmlns="http://www.w3.org/2000/svg">
<path d="M42.8751 30.6251V38.6483C42.8815 39.2382 42.76 39.8225 42.5189 40.3609C42.2779 40.8993 41.923 41.3791 41.4787 41.7672C41.0344 42.1553 40.5113 42.4425 39.9454 42.609C39.3795 42.7756 38.7842 42.8175 38.2005 42.732C30.1091 41.6929 22.5934 37.9911 16.8377 32.2099C11.082 26.4286 7.41354 18.8966 6.41032 10.8006C6.32505 10.2186 6.36652 9.6251 6.53188 9.06062C6.69725 8.49613 6.98261 7.97403 7.36843 7.53004C7.75426 7.08605 8.23145 6.73065 8.76735 6.48816C9.30325 6.24567 9.8852 6.12181 10.4734 6.12506H18.3742C18.8788 6.122 19.3667 6.306 19.7437 6.64154C20.1207 6.97707 20.36 7.44036 20.4155 7.94198C20.6184 10.6174 21.3102 13.234 22.4578 15.6595C22.6546 16.1189 22.676 16.6345 22.5179 17.1087C22.3599 17.5828 22.0334 17.9825 21.6003 18.232L19.8442 19.2316C19.5911 19.371 19.3705 19.5625 19.1969 19.7934C19.0233 20.0243 18.9006 20.2895 18.837 20.5713C18.7734 20.8531 18.7702 21.1452 18.8278 21.4283C18.8854 21.7114 19.0023 21.9791 19.1709 22.2137C21.1901 25.1727 23.7451 27.7278 26.7042 29.747C26.9386 29.9157 27.2063 30.0328 27.4893 30.0904C27.7724 30.1481 28.0645 30.1449 28.3463 30.0813C28.6281 30.0177 28.8931 29.8949 29.124 29.7213C29.3548 29.5476 29.5461 29.3269 29.6853 29.0737L30.6849 27.3176C30.9493 26.8786 31.369 26.5551 31.8608 26.4113C32.3527 26.2675 32.8806 26.314 33.3397 26.5414C35.7658 27.6881 38.3815 28.3804 41.0572 28.5837C41.5589 28.6392 42.0222 28.8785 42.3577 29.2555C42.6932 29.6325 42.8782 30.1204 42.8751 30.6251Z" stroke="url(#paint0_linear_1058_10134)" stroke-width="1.96" stroke-linecap="round" stroke-linejoin="round"/>
<defs>
<linearGradient id="paint0_linear_1058_10134" x1="8.36801" y1="9.20223" x2="41.9767" y2="32.5788" gradientUnits="userSpaceOnUse">
<stop offset="0.00399963" stop-color="#F57A78"/>
<stop offset="0.229" stop-color="#F94F63"/>
<stop offset="0.539" stop-color="#B73CB7"/>
<stop offset="1" stop-color="#7B5BDD"/>
</linearGradient>
</defs>
</svg>
